<svg id="Capa_1" enable-background="new 0 0 510 510" height="512" viewBox="0 0 510 510" width="512" xmlns="http://www.w3.org/2000/svg" xmlns:xlink="http://www.w3.org/1999/xlink"><linearGradient id="lg1"><stop offset="0" stop-color="#eaf6ff"/><stop offset="1" stop-color="#b3dafe"/></linearGradient><linearGradient id="SVGID_1_" gradientUnits="userSpaceOnUse" x1="114.712" x2="194.982" xlink:href="#lg1" y1="193.414" y2="318.927"/><linearGradient id="SVGID_00000178890076505040625450000000331766526605531029_" gradientUnits="userSpaceOnUse" x1="203.698" x2="467.372" xlink:href="#lg1" y1="109.73" y2="232.324"/><linearGradient id="SVGID_00000035510627558581684660000009178452369329125535_" gradientUnits="userSpaceOnUse" x1="253.938" x2="428.765" xlink:href="#lg1" y1="120.992" y2="295.82"/><linearGradient id="lg2"><stop offset="0" stop-color="#d8ecfe" stop-opacity="0"/><stop offset="1" stop-color="#678d98"/></linearGradient><linearGradient id="SVGID_00000013168326684420437260000014977515948262048150_" gradientUnits="userSpaceOnUse" x1="419.734" x2="370.147" xlink:href="#lg2" y1="297.12" y2="309.935"/><linearGradient id="SVGID_00000157308610518413010960000017508379474323910577_" gradientUnits="userSpaceOnUse" x1="162.496" x2="288.467" xlink:href="#lg1" y1="241.057" y2="367.027"/><linearGradient id="SVGID_00000016766976910708722540000006684552919732683939_" gradientUnits="userSpaceOnUse" x1="270.419" x2="180.716" xlink:href="#lg2" y1="320.654" y2="316.753"/><linearGradient id="SVGID_00000130639924537438630110000018373764723317039521_" gradientUnits="userSpaceOnUse" x1="109.231" x2="275.299" y1="314.264" y2="480.332"><stop offset="0" stop-color="#bbec6c"/><stop offset=".2905" stop-color="#abdc59"/><stop offset=".8729" stop-color="#82b22a"/><stop offset="1" stop-color="#78a91f"/></linearGradient><linearGradient id="lg3"><stop offset="0" stop-color="#026841" stop-opacity="0"/><stop offset=".238" stop-color="#076743" stop-opacity=".238"/><stop offset=".5198" stop-color="#156349" stop-opacity=".52"/><stop offset=".8225" stop-color="#2d5d52" stop-opacity=".823"/><stop offset="1" stop-color="#3e5959"/></linearGradient><linearGradient id="SVGID_00000014628178176845575100000010412085879793131392_" gradientUnits="userSpaceOnUse" x1="229.913" x2="229.913" xlink:href="#lg3" y1="400.832" y2="358.254"/><linearGradient id="SVGID_00000161633632570675196330000014569961050747562886_" gradientUnits="userSpaceOnUse" x1="109.595" x2="109.595" xlink:href="#lg3" y1="400.832" y2="358.254"/><linearGradient id="SVGID_00000077324230216146150080000003528550794449637020_" gradientUnits="userSpaceOnUse" x1="273.558" x2="447.995" y1="328.214" y2="502.651"><stop offset="0" stop-color="#fe646f"/><stop offset="1" stop-color="#e41f2d"/></linearGradient><linearGradient id="lg4"><stop offset="0" stop-color="#e41f2d" stop-opacity="0"/><stop offset=".142" stop-color="#d41f29" stop-opacity=".142"/><stop offset=".4198" stop-color="#aa2021" stop-opacity=".42"/><stop offset=".8027" stop-color="#672013" stop-opacity=".803"/><stop offset="1" stop-color="#42210b"/></linearGradient><linearGradient id="SVGID_00000124855304764679240260000012732116331124981405_" gradientUnits="userSpaceOnUse" x1="340.246" x2="340.246" xlink:href="#lg4" y1="480.274" y2="520.405"/><linearGradient id="SVGID_00000036243827263429900130000018073572230284335504_" gradientTransform="matrix(1 0 0 -1 0 759.306)" gradientUnits="userSpaceOnUse" x1="400.405" x2="400.405" xlink:href="#lg4" y1="390.449" y2="347.87"/><linearGradient id="SVGID_00000130611794973917374130000009980277466986936480_" gradientTransform="matrix(1 0 0 -1 0 759.306)" gradientUnits="userSpaceOnUse" x1="280.087" x2="280.087" xlink:href="#lg4" y1="390.449" y2="347.87"/><g><g><circle cx="126.708" cy="212.171" fill="url(#SVGID_1_)" r="103.884"/><circle cx="243.858" cy="128.402" fill="url(#SVGID_00000178890076505040625450000000331766526605531029_)" r="128.402"/><circle cx="358.884" cy="225.939" fill="url(#SVGID_00000035510627558581684660000009178452369329125535_)" r="128.292"/><path d="m355.741 354.191c1.045.025 2.093.04 3.144.04 23.824 0 46.126-6.502 65.243-17.816l-68.387-68.387z" fill="url(#SVGID_00000013168326684420437260000014977515948262048150_)"/><circle cx="219.34" cy="297.901" fill="url(#SVGID_00000157308610518413010960000017508379474323910577_)" r="71.962"/></g><path d="m204.159 266.275v101.969c4.896 1.052 9.972 1.619 15.182 1.619 24.07 0 45.364-11.829 58.428-29.978z" fill="url(#SVGID_00000016766976910708722540000006684552919732683939_)"/><g><g><path d="m230.48 380.859h-19.731v-98.677c0-12.422-10.07-22.492-22.492-22.492h-37.006c-12.422 0-22.492 10.07-22.492 22.492v98.677h-19.731c-14.79 0-23.642 16.449-15.495 28.793l60.726 92.009c7.338 11.119 23.652 11.119 30.991 0l60.726-92.009c8.146-12.344-.706-28.793-15.496-28.793z" fill="url(#SVGID_00000130639924537438630110000018373764723317039521_)"/><path d="m245.976 409.652c8.147-12.344-.706-28.793-15.495-28.793h-19.731v82.166z" fill="url(#SVGID_00000014628178176845575100000010412085879793131392_)"/><path d="m93.533 409.652 35.227 53.374v-82.167h-19.731c-14.79 0-23.643 16.449-15.496 28.793z" fill="url(#SVGID_00000161633632570675196330000014569961050747562886_)"/></g><g><path d="m400.972 388.83h-19.731v98.677c0 12.422-10.07 22.492-22.492 22.492h-37.006c-12.422 0-22.492-10.07-22.492-22.492v-98.677h-19.731c-14.79 0-23.642-16.449-15.495-28.793l60.726-92.009c7.338-11.119 23.652-11.119 30.991 0l60.726 92.009c8.146 12.344-.707 28.793-15.496 28.793z" fill="url(#SVGID_00000077324230216146150080000003528550794449637020_)"/><path d="m299.251 434.682v52.826c0 12.422 10.07 22.492 22.492 22.492h37.006c12.422 0 22.492-10.07 22.492-22.492v-52.826z" fill="url(#SVGID_00000124855304764679240260000012732116331124981405_)"/><path d="m416.467 360.038c8.147 12.344-.706 28.793-15.495 28.793h-19.731v-82.166z" fill="url(#SVGID_00000036243827263429900130000018073572230284335504_)"/><path d="m264.024 360.038 35.227-53.374v82.167h-19.731c-14.79-.001-23.642-16.45-15.496-28.793z" fill="url(#SVGID_00000130611794973917374130000009980277466986936480_)"/></g></g></g></svg>