<svg id="Capa_1" enable-background="new 0 0 510 510" height="512" viewBox="0 0 510 510" width="512" xmlns="http://www.w3.org/2000/svg" xmlns:xlink="http://www.w3.org/1999/xlink"><linearGradient id="lg1"><stop offset="0" stop-color="#eaf6ff"/><stop offset="1" stop-color="#b3dafe"/></linearGradient><linearGradient id="SVGID_1_" gradientUnits="userSpaceOnUse" x1="125.19" x2="153.506" xlink:href="#lg1" y1="83.592" y2="83.592"/><linearGradient id="lg2"><stop offset="0" stop-color="#d8ecfe" stop-opacity="0"/><stop offset="1" stop-color="#678d98"/></linearGradient><linearGradient id="SVGID_00000041998248487190875680000017578284215998801836_" gradientUnits="userSpaceOnUse" x1="141.694" x2="141.694" xlink:href="#lg2" y1="44.197" y2="106.476"/><linearGradient id="SVGID_00000116207483395792569100000003554876899380108420_" gradientUnits="userSpaceOnUse" x1="204.46" x2="232.776" xlink:href="#lg1" y1="83.592" y2="83.592"/><linearGradient id="SVGID_00000141447074273594377540000014838553134649849785_" gradientUnits="userSpaceOnUse" x1="220.963" x2="220.963" xlink:href="#lg2" y1="44.197" y2="106.476"/><linearGradient id="SVGID_00000152981709162453157660000011756030672729535638_" gradientUnits="userSpaceOnUse" x1="272.533" x2="300.85" xlink:href="#lg1" y1="83.592" y2="83.592"/><linearGradient id="SVGID_00000116225939521733231620000010892534704955022467_" gradientUnits="userSpaceOnUse" x1="289.037" x2="289.037" xlink:href="#lg2" y1="44.197" y2="106.476"/><linearGradient id="SVGID_00000023990087313751293130000004992439866722968197_" gradientUnits="userSpaceOnUse" x1="351.803" x2="380.119" xlink:href="#lg1" y1="83.592" y2="83.592"/><linearGradient id="SVGID_00000116204913759322372000000012570354071266553487_" gradientUnits="userSpaceOnUse" x1="368.307" x2="368.307" xlink:href="#lg2" y1="44.197" y2="106.476"/><linearGradient id="SVGID_00000113353864770655128820000000008384807673608341_" gradientTransform="matrix(1 0 0 -1 0 1064.01)" gradientUnits="userSpaceOnUse" x1="125.19" x2="153.506" xlink:href="#lg1" y1="637.602" y2="637.602"/><linearGradient id="SVGID_00000157998717234237626970000008462242798471164822_" gradientTransform="matrix(1 0 0 -1 0 1064.01)" gradientUnits="userSpaceOnUse" x1="141.694" x2="141.694" xlink:href="#lg2" y1="598.207" y2="660.486"/><linearGradient id="SVGID_00000139988710077209511750000015959419558083566477_" gradientTransform="matrix(1 0 0 -1 0 1064.01)" gradientUnits="userSpaceOnUse" x1="204.46" x2="232.776" xlink:href="#lg1" y1="637.602" y2="637.602"/><linearGradient id="SVGID_00000129176244191312789210000000477027438982434446_" gradientTransform="matrix(1 0 0 -1 0 1064.01)" gradientUnits="userSpaceOnUse" x1="220.963" x2="220.963" xlink:href="#lg2" y1="598.207" y2="660.486"/><linearGradient id="SVGID_00000166670147098356082430000014662243414348253825_" gradientTransform="matrix(1 0 0 -1 0 1064.01)" gradientUnits="userSpaceOnUse" x1="272.533" x2="300.85" xlink:href="#lg1" y1="637.602" y2="637.602"/><linearGradient id="SVGID_00000148642806941968078940000014888258792395785144_" gradientTransform="matrix(1 0 0 -1 0 1064.01)" gradientUnits="userSpaceOnUse" x1="289.037" x2="289.037" xlink:href="#lg2" y1="598.207" y2="660.486"/><linearGradient id="SVGID_00000054970762665564078330000012721563361301466793_" gradientTransform="matrix(1 0 0 -1 0 1064.01)" gradientUnits="userSpaceOnUse" x1="351.803" x2="380.119" xlink:href="#lg1" y1="637.602" y2="637.602"/><linearGradient id="SVGID_00000079469805102553340190000016321376635542432935_" gradientTransform="matrix(1 0 0 -1 0 1064.01)" gradientUnits="userSpaceOnUse" x1="368.307" x2="368.307" xlink:href="#lg2" y1="598.207" y2="660.486"/><linearGradient id="SVGID_00000035505531495137666490000004536417272675854225_" gradientTransform="matrix(0 1 -1 0 510 0)" gradientUnits="userSpaceOnUse" x1="125.19" x2="153.506" xlink:href="#lg1" y1="83.592" y2="83.592"/><linearGradient id="SVGID_00000067223577534654713360000016517744097851295930_" gradientTransform="matrix(0 1 -1 0 510 0)" gradientUnits="userSpaceOnUse" x1="141.694" x2="141.694" xlink:href="#lg2" y1="44.197" y2="106.476"/><linearGradient id="SVGID_00000088110810080637056510000012309432347940765375_" gradientTransform="matrix(0 1 -1 0 510 0)" gradientUnits="userSpaceOnUse" x1="204.46" x2="232.776" xlink:href="#lg1" y1="83.592" y2="83.592"/><linearGradient id="SVGID_00000008150075907998034260000003873045031333426073_" gradientTransform="matrix(0 1 -1 0 510 0)" gradientUnits="userSpaceOnUse" x1="220.963" x2="220.963" xlink:href="#lg2" y1="44.197" y2="106.476"/><linearGradient id="SVGID_00000140717543548336365270000000865145890491434687_" gradientTransform="matrix(0 1 -1 0 510 0)" gradientUnits="userSpaceOnUse" x1="272.533" x2="300.85" xlink:href="#lg1" y1="83.592" y2="83.592"/><linearGradient id="SVGID_00000141444944751128149900000001332861726217281692_" gradientTransform="matrix(0 1 -1 0 510 0)" gradientUnits="userSpaceOnUse" x1="289.037" x2="289.037" xlink:href="#lg2" y1="44.197" y2="106.476"/><linearGradient id="SVGID_00000003100233971216655480000009403064978136689598_" gradientTransform="matrix(0 1 -1 0 510 0)" gradientUnits="userSpaceOnUse" x1="351.803" x2="380.119" xlink:href="#lg1" y1="83.592" y2="83.592"/><linearGradient id="SVGID_00000020385145476598446410000016360570099880034988_" gradientTransform="matrix(0 1 -1 0 510 0)" gradientUnits="userSpaceOnUse" x1="368.307" x2="368.307" xlink:href="#lg2" y1="44.197" y2="106.476"/><linearGradient id="SVGID_00000027600414819545884980000003344209578941755797_" gradientTransform="matrix(0 1 1 0 -554.01 0)" gradientUnits="userSpaceOnUse" x1="125.19" x2="153.506" xlink:href="#lg1" y1="637.602" y2="637.602"/><linearGradient id="SVGID_00000165204141374666145890000004858743166701772473_" gradientTransform="matrix(0 1 1 0 -554.01 0)" gradientUnits="userSpaceOnUse" x1="141.694" x2="141.694" xlink:href="#lg2" y1="598.207" y2="660.486"/><linearGradient id="SVGID_00000005227216497203729260000003406284696137659809_" gradientTransform="matrix(0 1 1 0 -554.01 0)" gradientUnits="userSpaceOnUse" x1="204.46" x2="232.776" xlink:href="#lg1" y1="637.602" y2="637.602"/><linearGradient id="SVGID_00000151524365546042896240000003044868766239064711_" gradientTransform="matrix(0 1 1 0 -554.01 0)" gradientUnits="userSpaceOnUse" x1="220.963" x2="220.963" xlink:href="#lg2" y1="598.207" y2="660.486"/><linearGradient id="SVGID_00000105405308751998183130000013275127059286452611_" gradientTransform="matrix(0 1 1 0 -554.01 0)" gradientUnits="userSpaceOnUse" x1="272.533" x2="300.85" xlink:href="#lg1" y1="637.602" y2="637.602"/><linearGradient id="SVGID_00000084513028520739015290000005725842828280398496_" gradientTransform="matrix(0 1 1 0 -554.01 0)" gradientUnits="userSpaceOnUse" x1="289.037" x2="289.037" xlink:href="#lg2" y1="598.207" y2="660.486"/><linearGradient id="SVGID_00000124880511822978546680000016705630804403526826_" gradientTransform="matrix(0 1 1 0 -554.01 0)" gradientUnits="userSpaceOnUse" x1="351.803" x2="380.119" xlink:href="#lg1" y1="637.602" y2="637.602"/><linearGradient id="SVGID_00000067201146764884715920000014937438030637436586_" gradientTransform="matrix(0 1 1 0 -554.01 0)" gradientUnits="userSpaceOnUse" x1="368.307" x2="368.307" xlink:href="#lg2" y1="598.207" y2="660.486"/><linearGradient id="lg3"><stop offset="0" stop-color="#bbec6c"/><stop offset=".2905" stop-color="#abdc59"/><stop offset=".8729" stop-color="#82b22a"/><stop offset="1" stop-color="#78a91f"/></linearGradient><linearGradient id="SVGID_00000025436114809367712080000001360367112350397851_" gradientUnits="userSpaceOnUse" x1="152.216" x2="352.277" xlink:href="#lg3" y1="152.216" y2="352.277"/><linearGradient id="SVGID_00000120519487388795699510000009752354695531543986_" gradientUnits="userSpaceOnUse" x1="368.716" x2="-29.43" xlink:href="#lg3" y1="368.716" y2="-29.43"/><linearGradient id="lg4"><stop offset="0" stop-color="#026841" stop-opacity="0"/><stop offset=".238" stop-color="#076743" stop-opacity=".238"/><stop offset=".5198" stop-color="#156349" stop-opacity=".52"/><stop offset=".8225" stop-color="#2d5d52" stop-opacity=".823"/><stop offset="1" stop-color="#3e5959"/></linearGradient><linearGradient id="SVGID_00000173850227500175350910000005482410200757602963_" gradientUnits="userSpaceOnUse" x1="409.56" x2="190.478" xlink:href="#lg4" y1="409.44" y2="190.358"/><linearGradient id="SVGID_00000000191192543834146200000010228932045555803830_" gradientUnits="userSpaceOnUse" x1="255" x2="255" xlink:href="#lg4" y1="379.076" y2="453.339"/><linearGradient id="lg5"><stop offset="0" stop-color="#5a5a5a"/><stop offset="1" stop-color="#444"/></linearGradient><linearGradient id="SVGID_00000011721231600341781550000008778961351766017448_" gradientUnits="userSpaceOnUse" x1="200.916" x2="321.829" xlink:href="#lg5" y1="200.916" y2="321.829"/><linearGradient id="SVGID_00000047756474700037128630000004714633936366492803_" gradientUnits="userSpaceOnUse" x1="333.42" x2="155.136" xlink:href="#lg5" y1="333.42" y2="155.136"/><linearGradient id="SVGID_00000069392006912024798350000017068745031095781803_" gradientUnits="userSpaceOnUse" x1="190.591" x2="229.589" xlink:href="#lg1" y1="238.583" y2="327.079"/><linearGradient id="SVGID_00000074440109838717581590000003328754728722929340_" gradientUnits="userSpaceOnUse" x1="236.33" x2="275.328" xlink:href="#lg1" y1="218.427" y2="306.922"/><linearGradient id="SVGID_00000080925432370290261780000018382717989926419111_" gradientUnits="userSpaceOnUse" x1="288.453" x2="327.451" xlink:href="#lg1" y1="195.457" y2="283.953"/><linearGradient id="SVGID_00000122678950991946561480000007151589355103114914_" gradientUnits="userSpaceOnUse" x1="255" x2="255" y1="292.824" y2="390.388"><stop offset="0" stop-color="#1a1a1a" stop-opacity="0"/><stop offset="1" stop-color="#1a1a1a"/></linearGradient><g><g><g><g><path d="m156.429 14.741v152.443h-29.471v-152.443c0-8.144 6.596-14.741 14.73-14.741 8.145 0 14.741 6.596 14.741 14.741z" fill="url(#SVGID_1_)"/><path d="m126.958 27.551h29.471v139.633h-29.471z" fill="url(#SVGID_00000041998248487190875680000017578284215998801836_)"/></g><g><path d="m235.698 14.741v152.443h-29.471v-152.443c0-8.144 6.596-14.741 14.73-14.741 8.145 0 14.741 6.596 14.741 14.741z" fill="url(#SVGID_00000116207483395792569100000003554876899380108420_)"/><path d="m206.228 27.551h29.471v139.633h-29.471z" fill="url(#SVGID_00000141447074273594377540000014838553134649849785_)"/></g><g><path d="m303.772 14.741v152.443h-29.471v-152.443c0-8.144 6.596-14.741 14.73-14.741 8.145 0 14.741 6.596 14.741 14.741z" fill="url(#SVGID_00000152981709162453157660000011756030672729535638_)"/><path d="m274.302 27.551h29.471v139.633h-29.471z" fill="url(#SVGID_00000116225939521733231620000010892534704955022467_)"/></g><g><path d="m383.042 14.741v152.443h-29.471v-152.443c0-8.144 6.596-14.741 14.73-14.741 8.145 0 14.741 6.596 14.741 14.741z" fill="url(#SVGID_00000023990087313751293130000004992439866722968197_)"/><path d="m353.571 27.551h29.471v139.633h-29.471z" fill="url(#SVGID_00000116204913759322372000000012570354071266553487_)"/></g></g><g><g><path d="m156.429 495.259v-152.443h-29.471v152.443c0 8.144 6.596 14.741 14.73 14.741 8.145 0 14.741-6.596 14.741-14.741z" fill="url(#SVGID_00000113353864770655128820000000008384807673608341_)"/><path d="m126.958 342.816h29.471v139.633h-29.471z" fill="url(#SVGID_00000157998717234237626970000008462242798471164822_)"/></g><g><path d="m235.698 495.259v-152.443h-29.471v152.443c0 8.144 6.596 14.741 14.73 14.741 8.145 0 14.741-6.596 14.741-14.741z" fill="url(#SVGID_00000139988710077209511750000015959419558083566477_)"/><path d="m206.228 342.816h29.471v139.633h-29.471z" fill="url(#SVGID_00000129176244191312789210000000477027438982434446_)"/></g><g><path d="m303.772 495.259v-152.443h-29.471v152.443c0 8.144 6.596 14.741 14.73 14.741 8.145 0 14.741-6.596 14.741-14.741z" fill="url(#SVGID_00000166670147098356082430000014662243414348253825_)"/><path d="m274.302 342.816h29.471v139.633h-29.471z" fill="url(#SVGID_00000148642806941968078940000014888258792395785144_)"/></g><g><path d="m383.042 495.259v-152.443h-29.471v152.443c0 8.144 6.596 14.741 14.73 14.741 8.145 0 14.741-6.596 14.741-14.741z" fill="url(#SVGID_00000054970762665564078330000012721563361301466793_)"/><path d="m353.571 342.816h29.471v139.633h-29.471z" fill="url(#SVGID_00000079469805102553340190000016321376635542432935_)"/></g></g></g><g><g><g><path d="m495.259 156.429h-152.443v-29.471h152.443c8.144 0 14.741 6.596 14.741 14.73 0 8.145-6.596 14.741-14.741 14.741z" fill="url(#SVGID_00000035505531495137666490000004536417272675854225_)"/><path d="m342.816 126.958h139.633v29.471h-139.633z" fill="url(#SVGID_00000067223577534654713360000016517744097851295930_)"/></g><g><path d="m495.259 235.698h-152.443v-29.471h152.443c8.144 0 14.741 6.596 14.741 14.73 0 8.145-6.596 14.741-14.741 14.741z" fill="url(#SVGID_00000088110810080637056510000012309432347940765375_)"/><path d="m342.816 206.228h139.633v29.471h-139.633z" fill="url(#SVGID_00000008150075907998034260000003873045031333426073_)"/></g><g><path d="m495.259 303.772h-152.443v-29.471h152.443c8.144 0 14.741 6.596 14.741 14.73 0 8.145-6.596 14.741-14.741 14.741z" fill="url(#SVGID_00000140717543548336365270000000865145890491434687_)"/><path d="m342.816 274.302h139.633v29.471h-139.633z" fill="url(#SVGID_00000141444944751128149900000001332861726217281692_)"/></g><g><path d="m495.259 383.042h-152.443v-29.471h152.443c8.144 0 14.741 6.596 14.741 14.73 0 8.145-6.596 14.741-14.741 14.741z" fill="url(#SVGID_00000003100233971216655480000009403064978136689598_)"/><path d="m342.816 353.571h139.633v29.471h-139.633z" fill="url(#SVGID_00000020385145476598446410000016360570099880034988_)"/></g></g><g><g><path d="m14.741 156.429h152.443v-29.471h-152.443c-8.145 0-14.741 6.596-14.741 14.73 0 8.145 6.596 14.741 14.741 14.741z" fill="url(#SVGID_00000027600414819545884980000003344209578941755797_)"/><path d="m27.551 126.958h139.633v29.471h-139.633z" fill="url(#SVGID_00000165204141374666145890000004858743166701772473_)"/></g><g><path d="m14.741 235.698h152.443v-29.471h-152.443c-8.145.001-14.741 6.597-14.741 14.731 0 8.144 6.596 14.74 14.741 14.74z" fill="url(#SVGID_00000005227216497203729260000003406284696137659809_)"/><path d="m27.551 206.228h139.633v29.471h-139.633z" fill="url(#SVGID_00000151524365546042896240000003044868766239064711_)"/></g><g><path d="m14.741 303.772h152.443v-29.471h-152.443c-8.145.001-14.741 6.597-14.741 14.731 0 8.144 6.596 14.74 14.741 14.74z" fill="url(#SVGID_00000105405308751998183130000013275127059286452611_)"/><path d="m27.551 274.302h139.633v29.471h-139.633z" fill="url(#SVGID_00000084513028520739015290000005725842828280398496_)"/></g><g><path d="m14.741 383.042h152.443v-29.471h-152.443c-8.145 0-14.741 6.596-14.741 14.73 0 8.145 6.596 14.741 14.741 14.741z" fill="url(#SVGID_00000124880511822978546680000016705630804403526826_)"/><path d="m27.551 353.571h139.633v29.471h-139.633z" fill="url(#SVGID_00000067201146764884715920000014937438030637436586_)"/></g></g></g><g><path d="m394.204 437.824h-278.408c-24.091 0-43.62-19.529-43.62-43.62v-278.408c0-24.091 19.529-43.62 43.62-43.62h278.409c24.091 0 43.62 19.529 43.62 43.62v278.409c-.001 24.09-19.53 43.619-43.621 43.619z" fill="url(#SVGID_00000025436114809367712080000001360367112350397851_)"/><path d="m370.685 406.936h-231.37c-20.02 0-36.25-16.23-36.25-36.25v-231.371c0-20.02 16.23-36.25 36.25-36.25h231.371c20.02 0 36.25 16.23 36.25 36.25v231.371c0 20.02-16.23 36.25-36.251 36.25z" fill="url(#SVGID_00000120519487388795699510000009752354695531543986_)"/><path d="m375.744 137.699-237.925 237.924 62.201 62.201h194.184c24.091 0 43.62-19.529 43.62-43.62v-194.425z" fill="url(#SVGID_00000173850227500175350910000005482410200757602963_)"/><path d="m72.176 315.712v78.492c0 24.091 19.529 43.62 43.62 43.62h278.409c24.091 0 43.62-19.529 43.62-43.62v-78.492z" fill="url(#SVGID_00000000191192543834146200000010228932045555803830_)"/></g><g><path d="m352.5 126.958h-195c-16.868 0-30.542 13.674-30.542 30.542v195c0 16.868 13.674 30.542 30.542 30.542h136.69c10.025 0 19.64-3.983 26.729-11.072l51.051-51.051c7.089-7.089 11.072-16.704 11.072-26.729v-136.69c0-16.868-13.674-30.542-30.542-30.542z" fill="url(#SVGID_00000011721231600341781550000008778961351766017448_)"/><path d="m317.436 337h-124.872c-10.805 0-19.564-8.759-19.564-19.564v-124.872c0-10.805 8.759-19.564 19.564-19.564h124.872c10.805 0 19.564 8.759 19.564 19.564v124.872c0 10.805-8.759 19.564-19.564 19.564z" fill="url(#SVGID_00000047756474700037128630000004714633936366492803_)"/><g><path d="m197.601 231.749c-5.7 0-9.001 3.2-9.001 10.001v26.501c0 6.801 3.301 10.001 9.101 10.001 8.001 0 8.501-6.101 8.801-10.001.3-3.7 3.7-4.7 7.7-4.7 5.4 0 7.9 1.4 7.9 7.4 0 13.301-10.8 20.901-25.102 20.901-13.101 0-24.001-6.4-24.001-23.602v-26.5c0-17.201 10.9-23.602 24.001-23.602 14.302 0 25.102 7.2 25.102 19.901 0 6-2.5 7.4-7.8 7.4-4.2 0-7.601-1.101-7.801-4.7-.099-2.6-.4-9-8.9-9z" fill="url(#SVGID_00000069392006912024798350000017068745031095781803_)"/><path d="m230 222.848c0-2.5 2.3-4.7 5.8-4.7h20.7c13.201 0 23.602 6.2 23.602 23.001v.5c0 16.802-10.801 23.202-24.602 23.202h-9.9v21.601c0 3.2-3.9 4.801-7.801 4.801-3.899 0-7.8-1.601-7.8-4.801v-63.604zm15.6 8.901v21.102h9.9c5.601 0 9.001-3.2 9.001-10.001v-1.1c0-6.801-3.4-10.001-9.001-10.001z" fill="url(#SVGID_00000074440109838717581590000003328754728722929340_)"/><path d="m321.4 222.848c0-3.301 3.8-4.7 7.801-4.7 3.8 0 7.8 1.399 7.8 4.7v45.402c0 17.201-11.101 23.602-25.201 23.602-14.201 0-25.202-6.4-25.202-23.602v-45.402c0-3.301 3.801-4.7 7.801-4.7 3.801 0 7.801 1.399 7.801 4.7v45.402c0 6.801 3.6 10.001 9.601 10.001 6 0 9.601-3.2 9.601-10.001v-45.402z" fill="url(#SVGID_00000080925432370290261780000018382717989926419111_)"/></g><path d="m126.958 263.881v88.62c0 16.868 13.674 30.542 30.542 30.542h136.69c10.025 0 19.64-3.983 26.729-11.072l51.051-51.051c7.089-7.089 11.072-16.704 11.072-26.729v-30.31z" fill="url(#SVGID_00000122678950991946561480000007151589355103114914_)"/></g></g></svg>