<svg id="Capa_1" enable-background="new 0 0 510 510" height="512" viewBox="0 0 510 510" width="512" xmlns="http://www.w3.org/2000/svg" xmlns:xlink="http://www.w3.org/1999/xlink"><linearGradient id="lg1"><stop offset="0" stop-color="#fee45a"/><stop offset="1" stop-color="#fea613"/></linearGradient><linearGradient id="SVGID_1_" gradientUnits="userSpaceOnUse" x1="38.204" x2="323.319" xlink:href="#lg1" y1="106.553" y2="391.668"/><linearGradient id="lg2"><stop offset="0" stop-color="#fea613" stop-opacity="0"/><stop offset="1" stop-color="#e94444"/></linearGradient><linearGradient id="SVGID_00000087381250402497392080000003420590582091747993_" gradientUnits="userSpaceOnUse" x1="212.769" x2="212.769" xlink:href="#lg2" y1="298.944" y2="485.856"/><linearGradient id="SVGID_00000063615678535243749450000007807793809694162068_" gradientUnits="userSpaceOnUse" x1="384.537" x2="438.87" xlink:href="#lg2" y1="283.501" y2="283.501"/><linearGradient id="SVGID_00000137834556862815625000000007028352072085342343_" gradientUnits="userSpaceOnUse" x1="203.453" x2="336.904" xlink:href="#lg1" y1="131.151" y2="493.137"/><linearGradient id="SVGID_00000152977895358504088020000013338911224823460281_" gradientUnits="userSpaceOnUse" x1="276.116" x2="276.116" xlink:href="#lg2" y1="403.584" y2="500.109"/><linearGradient id="SVGID_00000166658627830601648610000011437557005640798872_" gradientUnits="userSpaceOnUse" x1="469" x2="523.332" xlink:href="#lg2" y1="314.259" y2="314.259"/><linearGradient id="SVGID_00000051370440592546438670000013848210353185270448_" gradientUnits="userSpaceOnUse" x1="332.684" x2="557.864" xlink:href="#lg2" y1="308.224" y2="245.384"/><linearGradient id="SVGID_00000029041573435338138980000001559865298091870626_" gradientUnits="userSpaceOnUse" x1="293.765" x2="281.099" y1="193.953" y2="66.62"><stop offset="0" stop-color="#fff" stop-opacity="0"/><stop offset="1" stop-color="#fff"/></linearGradient><g><path d="m153.132 57.211c0-15.741-12.761-28.502-28.502-28.502h-96.128c-15.741-.001-28.502 12.76-28.502 28.501v381.848c0 23.324 18.908 42.231 42.231 42.231h349.211c18.83 0 34.095-15.265 34.095-34.095v-327.386c0-18.83-15.265-34.095-34.095-34.095h-209.808c-15.742 0-28.502-12.761-28.502-28.502z" fill="url(#SVGID_1_)"/><path d="m425.537 447.195v-232.198h-425.537v224.061c0 23.324 18.908 42.231 42.231 42.231h349.211c18.831.001 34.095-15.264 34.095-34.094z" fill="url(#SVGID_00000087381250402497392080000003420590582091747993_)"/><path d="m391.443 85.713h-50.365v395.577h50.365c18.83 0 34.095-15.265 34.095-34.095v-327.387c-.001-18.83-15.265-34.095-34.095-34.095z" fill="url(#SVGID_00000063615678535243749450000007807793809694162068_)"/><path d="m510 447.195c0 18.83-15.265 34.095-34.095 34.095h-433.674c23.324 0 42.231-18.908 42.231-42.231v-257.742c0-18.83 15.265-34.095 34.095-34.095h357.348c18.83 0 34.095 15.265 34.095 34.095z" fill="url(#SVGID_00000137834556862815625000000007028352072085342343_)"/><g fill="#fff"><path d="m135.786 181.509h-10.897c-5.31 0-9.615 4.305-9.615 9.615s4.305 9.615 9.615 9.615h10.897c5.31 0 9.615-4.305 9.615-9.615s-4.305-9.615-9.615-9.615z"/><path d="m275.158 181.509h-105.657c-5.311 0-9.615 4.305-9.615 9.615s4.305 9.615 9.615 9.615h105.657c5.31 0 9.615-4.305 9.615-9.615s-4.305-9.615-9.615-9.615z"/><path d="m236.57 225.897c0-5.31-4.305-9.615-9.615-9.615h-57.454c-5.311 0-9.615 4.305-9.615 9.615 0 5.311 4.305 9.615 9.615 9.615h57.454c5.31 0 9.615-4.304 9.615-9.615z"/><path d="m274.984 235.512c5.311 0 9.615-4.305 9.615-9.615 0-5.311-4.305-9.615-9.615-9.615h-18.666c-5.31 0-9.615 4.305-9.615 9.615s4.305 9.615 9.615 9.615z"/></g><path d="m84.463 277.994v161.065c0 23.324-18.908 42.231-42.231 42.231h433.674c18.83 0 34.095-15.265 34.095-34.095v-169.201z" fill="url(#SVGID_00000152977895358504088020000013338911224823460281_)"/><path d="m510 181.316v265.876c0 18.83-15.26 34.1-34.09 34.1h-50.37v-334.066h50.37c18.83 0 34.09 15.26 34.09 34.09z" fill="url(#SVGID_00000166658627830601648610000011437557005640798872_)"/><path d="m425.537 447.195v-299.973h-199.537v334.068h165.443c18.83 0 34.094-15.265 34.094-34.095z" fill="url(#SVGID_00000051370440592546438670000013848210353185270448_)"/><path d="m475.905 147.222h-357.348c-18.83 0-34.095 15.265-34.095 34.095v96.677h425.538v-96.677c0-18.83-15.265-34.095-34.095-34.095z" fill="url(#SVGID_00000029041573435338138980000001559865298091870626_)"/></g></svg>