<svg id="Capa_1" enable-background="new 0 0 510 510" height="512" viewBox="0 0 510 510" width="512" xmlns="http://www.w3.org/2000/svg" xmlns:xlink="http://www.w3.org/1999/xlink"><linearGradient id="SVGID_1_" gradientUnits="userSpaceOnUse" x1="149.633" x2="413.352" y1="124.761" y2="388.48"><stop offset="0" stop-color="#e4f2ff"/><stop offset="1" stop-color="#b2cbff"/></linearGradient><linearGradient id="SVGID_2_" gradientUnits="userSpaceOnUse" x1="280.502" x2="202.21" y1="413.828" y2="-150.139"><stop offset="0" stop-color="#fff" stop-opacity="0"/><stop offset="1" stop-color="#fff"/></linearGradient><linearGradient id="lg1"><stop offset="0" stop-color="#3f3ced" stop-opacity="0"/><stop offset=".2796" stop-color="#3c3de4" stop-opacity=".28"/><stop offset=".7305" stop-color="#3541cc" stop-opacity=".731"/><stop offset="1" stop-color="#2f43bb"/></linearGradient><linearGradient id="SVGID_3_" gradientUnits="userSpaceOnUse" x1="278.725" x2="1155.213" xlink:href="#lg1" y1="244.526" y2="159.841"/><linearGradient id="SVGID_4_" gradientUnits="userSpaceOnUse" x1="178.582" x2="204.446" xlink:href="#lg1" y1="383.415" y2="176.502"/><linearGradient id="SVGID_5_" gradientUnits="userSpaceOnUse" x1="349.056" x2="252.213" xlink:href="#lg1" y1="397.526" y2="230.838"/><linearGradient id="lg2"><stop offset="0" stop-color="#91f27f"/><stop offset="1" stop-color="#4ab172"/></linearGradient><linearGradient id="SVGID_6_" gradientTransform="matrix(.772 .636 -.636 .772 -952.407 -187.406)" gradientUnits="userSpaceOnUse" x1="1382.014" x2="1465.153" xlink:href="#lg2" y1="-523.187" y2="-512.88"/><linearGradient id="SVGID_7_" gradientTransform="matrix(.772 .636 -.636 .772 -952.407 -187.406)" gradientUnits="userSpaceOnUse" x1="1460.117" x2="1345.105" xlink:href="#lg2" y1="-510.893" y2="-510.893"/><linearGradient id="lg3"><stop offset="0" stop-color="#91f27f" stop-opacity="0"/><stop offset="1" stop-color="#ffed82"/></linearGradient><linearGradient id="SVGID_8_" gradientTransform="matrix(.772 .636 -.636 .772 -952.407 -187.406)" gradientUnits="userSpaceOnUse" x1="1413.98" x2="1358.158" xlink:href="#lg3" y1="-517.982" y2="-578.673"/><linearGradient id="SVGID_9_" gradientTransform="matrix(.993 .117 -.117 .993 -583.33 1166.824)" gradientUnits="userSpaceOnUse" x1="828.892" x2="912.033" xlink:href="#lg2" y1="-940.425" y2="-930.118"/><linearGradient id="SVGID_10_" gradientTransform="matrix(.993 .117 -.117 .993 -583.33 1166.824)" gradientUnits="userSpaceOnUse" x1="906.997" x2="791.981" xlink:href="#lg2" y1="-928.13" y2="-928.13"/><linearGradient id="SVGID_11_" gradientTransform="matrix(.993 .117 -.117 .993 -583.33 1166.824)" gradientUnits="userSpaceOnUse" x1="860.859" x2="805.035" xlink:href="#lg3" y1="-935.22" y2="-995.912"/><linearGradient id="SVGID_12_" gradientTransform="matrix(.034 .999 -.999 .034 33.273 -1997.776)" gradientUnits="userSpaceOnUse" x1="2383.969" x2="2467.107" xlink:href="#lg2" y1="-332.235" y2="-321.929"/><linearGradient id="SVGID_13_" gradientTransform="matrix(.034 .999 -.999 .034 33.273 -1997.776)" gradientUnits="userSpaceOnUse" x1="2462.072" x2="2347.059" xlink:href="#lg2" y1="-319.941" y2="-319.941"/><linearGradient id="SVGID_14_" gradientTransform="matrix(.034 .999 -.999 .034 33.273 -1997.776)" gradientUnits="userSpaceOnUse" x1="2415.935" x2="2360.112" xlink:href="#lg3" y1="-327.03" y2="-387.722"/><linearGradient id="SVGID_15_" gradientTransform="matrix(-.288 .958 -.958 -.288 760.716 -2355.246)" gradientUnits="userSpaceOnUse" x1="2781.231" x2="2864.37" xlink:href="#lg2" y1="-441.077" y2="-430.771"/><linearGradient id="SVGID_16_" gradientTransform="matrix(-.288 .958 -.958 -.288 760.716 -2355.246)" gradientUnits="userSpaceOnUse" x1="2859.335" x2="2744.321" xlink:href="#lg2" y1="-428.783" y2="-428.783"/><linearGradient id="SVGID_17_" gradientTransform="matrix(-.288 .958 -.958 -.288 760.716 -2355.246)" gradientUnits="userSpaceOnUse" x1="2813.198" x2="2757.374" xlink:href="#lg3" y1="-435.872" y2="-496.565"/><linearGradient id="SVGID_18_" gradientTransform="matrix(.993 .117 -.117 .993 -583.33 1166.824)" gradientUnits="userSpaceOnUse" x1="760.539" x2="843.679" xlink:href="#lg2" y1="-894.936" y2="-884.63"/><linearGradient id="SVGID_19_" gradientTransform="matrix(.993 .117 -.117 .993 -583.33 1166.824)" gradientUnits="userSpaceOnUse" x1="838.643" x2="723.628" xlink:href="#lg2" y1="-882.642" y2="-882.642"/><linearGradient id="SVGID_20_" gradientTransform="matrix(.993 .117 -.117 .993 -583.33 1166.824)" gradientUnits="userSpaceOnUse" x1="792.505" x2="736.681" xlink:href="#lg3" y1="-889.732" y2="-950.424"/><linearGradient id="SVGID_21_" gradientTransform="matrix(.972 .235 -.235 .972 98.053 -72.579)" gradientUnits="userSpaceOnUse" x1="341.453" x2="398.317" xlink:href="#lg2" y1="396.336" y2="448.908"/><linearGradient id="SVGID_22_" gradientTransform="matrix(.972 .235 -.235 .972 98.053 -72.579)" gradientUnits="userSpaceOnUse" x1="373.81" x2="335.542" xlink:href="#lg3" y1="425.215" y2="390.882"/><linearGradient id="SVGID_23_" gradientTransform="matrix(-.772 .636 .636 .772 1723.909 -187.406)" gradientUnits="userSpaceOnUse" x1="1583.771" x2="1666.909" xlink:href="#lg2" y1="-689.561" y2="-679.254"/><linearGradient id="SVGID_24_" gradientTransform="matrix(-.772 .636 .636 .772 1723.909 -187.406)" gradientUnits="userSpaceOnUse" x1="1661.874" x2="1546.861" xlink:href="#lg2" y1="-677.267" y2="-677.267"/><linearGradient id="SVGID_25_" gradientTransform="matrix(-.772 .636 .636 .772 1723.909 -187.406)" gradientUnits="userSpaceOnUse" x1="1615.737" x2="1559.914" xlink:href="#lg3" y1="-684.356" y2="-745.047"/><linearGradient id="SVGID_26_" gradientTransform="matrix(-.993 .117 .117 .993 1354.832 1166.824)" gradientUnits="userSpaceOnUse" x1="1088.612" x2="1171.753" xlink:href="#lg2" y1="-970.997" y2="-960.69"/><linearGradient id="SVGID_27_" gradientTransform="matrix(-.993 .117 .117 .993 1354.832 1166.824)" gradientUnits="userSpaceOnUse" x1="1166.717" x2="1051.702" xlink:href="#lg2" y1="-958.703" y2="-958.703"/><linearGradient id="SVGID_28_" gradientTransform="matrix(-.993 .117 .117 .993 1354.832 1166.824)" gradientUnits="userSpaceOnUse" x1="1120.579" x2="1064.755" xlink:href="#lg3" y1="-965.792" y2="-1026.485"/><linearGradient id="SVGID_29_" gradientTransform="matrix(-.034 .999 .999 .034 738.229 -1997.776)" gradientUnits="userSpaceOnUse" x1="2392.965" x2="2476.103" xlink:href="#lg2" y1="-593.585" y2="-583.278"/><linearGradient id="SVGID_30_" gradientTransform="matrix(-.034 .999 .999 .034 738.229 -1997.776)" gradientUnits="userSpaceOnUse" x1="2471.067" x2="2356.055" xlink:href="#lg2" y1="-581.291" y2="-581.291"/><linearGradient id="SVGID_31_" gradientTransform="matrix(-.034 .999 .999 .034 738.229 -1997.776)" gradientUnits="userSpaceOnUse" x1="2424.93" x2="2369.107" xlink:href="#lg3" y1="-588.38" y2="-649.071"/><linearGradient id="SVGID_32_" gradientTransform="matrix(.288 .958 .958 -.288 10.787 -2355.246)" gradientUnits="userSpaceOnUse" x1="2705.994" x2="2789.133" xlink:href="#lg2" y1="-691.528" y2="-681.221"/><linearGradient id="SVGID_33_" gradientTransform="matrix(.288 .958 .958 -.288 10.787 -2355.246)" gradientUnits="userSpaceOnUse" x1="2784.098" x2="2669.084" xlink:href="#lg2" y1="-679.234" y2="-679.234"/><linearGradient id="SVGID_34_" gradientTransform="matrix(.288 .958 .958 -.288 10.787 -2355.246)" gradientUnits="userSpaceOnUse" x1="2737.96" x2="2682.137" xlink:href="#lg3" y1="-686.323" y2="-747.015"/><linearGradient id="SVGID_35_" gradientTransform="matrix(-.993 .117 .117 .993 1354.832 1166.824)" gradientUnits="userSpaceOnUse" x1="1020.259" x2="1103.4" xlink:href="#lg2" y1="-925.509" y2="-915.202"/><linearGradient id="SVGID_36_" gradientTransform="matrix(-.993 .117 .117 .993 1354.832 1166.824)" gradientUnits="userSpaceOnUse" x1="1098.364" x2="983.349" xlink:href="#lg2" y1="-913.214" y2="-913.214"/><linearGradient id="SVGID_37_" gradientTransform="matrix(-.993 .117 .117 .993 1354.832 1166.824)" gradientUnits="userSpaceOnUse" x1="1052.226" x2="996.402" xlink:href="#lg3" y1="-920.304" y2="-980.996"/><linearGradient id="SVGID_38_" gradientTransform="matrix(-.972 .235 .235 .972 673.449 -72.579)" gradientUnits="userSpaceOnUse" x1="595.655" x2="652.519" xlink:href="#lg2" y1="334.989" y2="387.561"/><linearGradient id="SVGID_39_" gradientTransform="matrix(-.972 .235 .235 .972 673.449 -72.579)" gradientUnits="userSpaceOnUse" x1="628.012" x2="589.745" xlink:href="#lg3" y1="363.868" y2="329.534"/><circle cx="255" cy="230.128" fill="url(#SVGID_1_)" r="217.585"/><path d="m408.207 115.683c-7.466-5.485-15.383-10.514-23.679-15.083-4.569-8.297-9.599-16.214-15.083-23.68-30.456-41.46-71.101-64.294-114.445-64.294s-83.988 22.833-114.445 64.294c-5.485 7.466-10.515 15.383-15.083 23.68-8.297 4.568-16.213 9.598-23.68 15.083-41.461 30.457-64.294 71.1-64.294 114.445s22.833 83.988 64.294 114.445c7.466 5.485 15.383 10.514 23.68 15.083 4.568 8.297 9.598 16.213 15.083 23.68 30.457 41.461 71.1 64.294 114.445 64.294 43.344 0 83.989-22.833 114.445-64.294 5.485-7.466 10.515-15.383 15.083-23.68 8.297-4.568 16.213-9.598 23.679-15.083 41.461-30.457 64.294-71.101 64.294-114.445s-22.833-83.988-64.294-114.445zm-153.207 321.707c-11.945 0-24.606-17.793-34.615-48.155 11.345 1.335 22.908 2.026 34.615 2.026s23.271-.692 34.615-2.026c-10.009 30.362-22.67 48.155-34.615 48.155zm0-56.368c-12.942 0-25.606-.876-37.897-2.537-6.821-24.119-11.774-53.071-14.607-84.682 16.968 1.213 34.571 1.838 52.505 1.838s35.537-.625 52.505-1.838c-2.833 31.61-7.786 60.562-14.607 84.682-12.293 1.661-24.957 2.537-37.899 2.537zm0-358.156c11.945 0 24.606 17.793 34.615 48.155-11.345-1.335-22.908-2.026-34.615-2.026s-23.27.692-34.615 2.026c10.009-30.362 22.67-48.155 34.615-48.155zm0 56.367c12.942 0 25.606.876 37.898 2.537 6.821 24.119 11.774 53.072 14.607 84.682-16.968-1.213-34.571-1.838-52.505-1.838s-35.537.625-52.505 1.838c2.833-31.61 7.786-60.563 14.607-84.682 12.292-1.66 24.956-2.537 37.898-2.537zm-55.275 150.895c0-18.256.658-36.147 1.927-53.348 17.201-1.269 35.092-1.927 53.348-1.927s36.147.658 53.349 1.927c1.269 17.201 1.927 35.092 1.927 53.348s-.658 36.147-1.927 53.348c-17.201 1.269-35.092 1.927-53.349 1.927-18.256 0-36.147-.658-53.348-1.927-1.269-17.201-1.927-35.092-1.927-53.348zm-8.401 52.504c-31.61-2.833-60.563-7.786-84.682-14.607-1.66-12.291-2.537-24.956-2.537-37.897 0-12.942.876-25.606 2.537-37.897 24.119-6.821 53.071-11.774 84.682-14.607-1.213 16.968-1.838 34.571-1.838 52.505 0 17.933.625 35.536 1.838 52.503zm127.352-105.009c31.61 2.833 60.563 7.786 84.681 14.607 1.66 12.291 2.537 24.956 2.537 37.897 0 12.942-.876 25.606-2.537 37.897-24.119 6.822-53.071 11.774-84.681 14.608 1.213-16.968 1.838-34.571 1.838-52.505.001-17.933-.624-35.536-1.838-52.504zm-.82-10.35c-2.697-30.984-7.396-59.555-13.866-83.769 26.701 4.729 51.392 13.232 72.947 24.688 11.457 21.555 19.959 46.246 24.688 72.947-24.215-6.47-52.786-11.17-83.769-13.866zm-125.711 0c-30.984 2.696-59.555 7.396-83.77 13.865 4.729-26.701 13.232-51.392 24.688-72.947 21.555-11.456 46.246-19.959 72.947-24.688-6.469 24.215-11.169 52.786-13.865 83.77zm-96.253 97.47c-30.361-10.01-48.155-22.67-48.155-34.615s17.793-24.605 48.155-34.615c-1.335 11.345-2.026 22.908-2.026 34.615s.692 23.27 2.026 34.615zm96.253 28.24c2.697 30.984 7.396 59.555 13.865 83.77-26.701-4.729-51.392-13.232-72.947-24.688-11.456-21.555-19.959-46.246-24.688-72.947 24.215 6.469 52.786 11.168 83.77 13.865zm125.711 0c30.984-2.697 59.555-7.396 83.77-13.865-4.729 26.701-13.232 51.391-24.688 72.947-21.555 11.457-46.246 19.959-72.947 24.688 6.468-24.215 11.168-52.786 13.865-83.77zm96.252-97.47c30.361 10.009 48.154 22.67 48.154 34.615s-17.793 24.605-48.154 34.615c1.335-11.345 2.026-22.908 2.026-34.615s-.692-23.27-2.026-34.615zm45.736 11.556c-10.018-8.543-25.899-16.223-47.283-22.794-3.724-23.576-10.315-46.038-19.54-66.611 35.008 22.795 59.355 54.098 66.823 89.405zm-92.378-114.962c-20.573-9.226-43.036-15.817-66.612-19.541-6.571-21.383-14.251-37.265-22.795-47.283 35.307 7.469 66.611 31.816 89.407 66.824zm-135.525-66.824c-8.543 10.019-16.223 25.9-22.795 47.283-23.576 3.724-46.038 10.315-66.612 19.541 22.797-35.008 54.1-59.356 89.407-66.824zm-114.962 92.379c-9.225 20.573-15.817 43.036-19.541 66.612-21.383 6.571-37.265 14.251-47.283 22.795 7.468-35.307 31.816-66.611 66.824-89.407zm-66.824 135.525c10.019 8.543 25.9 16.223 47.283 22.795 3.724 23.576 10.315 46.039 19.541 66.612-35.008-22.797-59.356-54.1-66.824-89.407zm92.379 114.961c20.574 9.225 43.036 15.817 66.612 19.541 6.571 21.383 14.251 37.265 22.795 47.283-35.307-7.468-66.61-31.815-89.407-66.824zm135.525 66.824c8.543-10.019 16.223-25.9 22.795-47.283 23.577-3.724 46.039-10.315 66.612-19.541-22.796 35.009-54.1 59.356-89.407 66.824zm114.962-92.379c9.225-20.573 15.817-43.035 19.54-66.612 21.383-6.571 37.264-14.251 47.283-22.795-7.468 35.308-31.815 66.611-66.823 89.407z" fill="url(#SVGID_2_)"/><path d="m352.332 35.49c14.675 29.289 22.947 62.342 22.947 97.332 0 120.169-97.416 217.585-217.585 217.585-34.99 0-68.044-8.272-97.332-22.947 35.725 71.3 109.459 120.253 194.638 120.253 120.169 0 217.585-97.416 217.585-217.585 0-85.179-48.953-158.913-120.253-194.638z" fill="url(#SVGID_3_)"/><path d="m188.884 319.257-6.568 12.981-51.894-51.9c-4.118-4.862-11.86-3.951-14.737 1.734l-10.974 21.689c-2.954 5.838-5.015 11.923-6.241 18.089l-32.993-32.959c-6.62-7.013-14.724-12.723-23.964-16.597 19.637 99.986 107.746 175.419 213.487 175.419 23.696 0 46.5-3.802 67.854-10.805l-119.234-119.385c-4.117-4.862-11.86-3.951-14.736 1.734z" fill="url(#SVGID_4_)"/><path d="m255 447.713c82.682 0 154.59-46.118 191.409-114.033l-52.937-52.937c-3.332-4.454-10.125-4.853-13.893-.404l-15.71 18.549c-11.2 13.223-16.768 29.561-16.702 45.891-.06-.048-.121-.095-.182-.141l-26.711-26.711c-3.332-4.454-10.125-4.853-13.893-.404l-15.71 18.549c-21.941 25.906-22.324 63.764-.91 90.108l3.825 4.705c-13.084 4.215-26.973 7.935-41.665 10.961-3.474.715-6.426 2.762-8.324 5.571 3.776.195 7.577.296 11.403.296z" fill="url(#SVGID_5_)"/><path d="m498.502 262.77-23.253 7.082c-32.476 9.892-53.304 41.509-49.573 75.252l.675 6.105c.582 5.264 5.246 9.109 10.524 8.678l6.121-.5c33.836-2.765 60.906-29.235 64.43-63.001l2.523-24.176c.662-6.336-5.353-11.296-11.447-9.44z" fill="url(#SVGID_6_)"/><path d="m447.424 344.027c-.587.153-1.138.302-1.654.446 1.674-1.962 3.538-4.186 5.622-6.712 1.621-1.966 3.321-4.049 5.068-6.211 1.389.049 3.753-.32 7.83-1.383 9.428-2.458 24.435-7.688 24.23-9.261-.204-1.573-15.542 1.107-24.97 3.565-.647.169-1.246.331-1.807.49 3.365-4.23 6.805-8.616 10.146-12.938 1.083.22 3.072.01 6.812-.965 7.734-2.016 20.014-6.536 19.809-8.109-.204-1.573-12.815.396-20.549 2.412-.431.112-.829.222-1.213.33 3.742-4.915 7.23-9.59 10.186-13.675.388.818 1.319 1.199 3.98.505 3.868-1.008 9.927-3.906 9.722-5.479-.195-1.503-6.028-1.251-9.922-.347 3.704-5.338 5.823-8.866 5.324-9.277s-3.558 2.341-8.093 6.994c.146-3.995-.719-9.769-2.231-9.674-1.583.099-3.274 6.599-3.527 10.588-.174 2.744.378 3.585 1.254 3.811-3.447 3.681-7.372 7.995-11.484 12.605.033-.397.064-.809.093-1.253.506-7.976.036-20.731-1.547-20.632s-3.68 13.015-4.186 20.991c-.245 3.857-.071 5.849.351 6.871-3.606 4.104-7.257 8.316-10.768 12.425.049-.581.094-1.199.137-1.867.617-9.724.326-25.291-1.258-25.192-1.583.099-3.859 15.827-4.476 25.551-.267 4.204-.179 6.595.134 7.95-1.789 2.128-3.51 4.193-5.132 6.159-2.083 2.526-3.912 4.78-5.518 6.797.044-.534.085-1.103.123-1.709.617-9.724.326-25.291-1.258-25.192-1.583.099-3.859 15.827-4.476 25.551-.293 4.623-.158 7.054.234 8.324-6.729 9.138-5.79 10.156-4.561 11.169s2.406 1.741 10.095-6.605c1.322.143 3.734-.187 8.217-1.356 9.428-2.458 24.434-7.688 24.23-9.261-.201-1.574-15.539 1.106-24.967 3.564z" fill="url(#SVGID_7_)"/><path d="m425.856 346.73.495 4.48c.582 5.264 5.246 9.109 10.524 8.678l6.121-.5c33.836-2.766 60.906-29.235 64.43-63.001l2.462-23.592c-1.549-4.23-6.217-6.904-10.949-5.463l-23.253 7.083c-31.53 9.604-52.077 39.689-49.83 72.315z" fill="url(#SVGID_8_)"/><path d="m379.579 280.339-15.71 18.549c-21.941 25.906-22.324 63.764-.91 90.108l3.874 4.766c3.34 4.109 9.344 4.816 13.547 1.594l4.875-3.736c26.945-20.652 35.363-57.565 20.035-87.857l-10.974-21.689c-2.877-5.685-10.62-6.597-14.737-1.735z" fill="url(#SVGID_9_)"/><path d="m380.656 376.31c-.411.447-.793.87-1.149 1.271.345-2.556.707-5.435 1.09-8.687.298-2.531.598-5.203.896-7.966 1.194-.711 2.981-2.302 5.833-5.404 6.594-7.173 16.375-19.698 15.352-20.909-1.024-1.212-12.465 9.349-19.059 16.522-.453.492-.868.953-1.253 1.39.537-5.378 1.053-10.928 1.521-16.372 1.03-.402 2.588-1.655 5.203-4.5 5.409-5.884 13.283-16.334 12.26-17.546-1.024-1.212-10.558 7.275-15.967 13.158-.301.328-.577.635-.841.934.484-6.158.883-11.977 1.156-17.013.769.477 1.758.294 3.619-1.731 2.705-2.943 6.228-8.66 5.205-9.872-.978-1.157-5.745 2.214-8.529 5.082.222-6.493.092-10.607-.549-10.682-.642-.076-1.723 3.895-3.014 10.263-2.041-3.437-5.896-7.822-7.116-6.924-1.277.941.822 7.32 2.771 10.811 1.34 2.401 2.259 2.809 3.118 2.524-.904 4.961-1.867 10.714-2.826 16.816-.188-.352-.384-.715-.601-1.104-3.895-6.979-11.199-17.447-12.476-16.506s3.956 12.934 7.851 19.913c1.883 3.374 3.108 4.956 4.016 5.585-.809 5.403-1.595 10.921-2.322 16.277-.274-.514-.57-1.059-.896-1.643-4.749-8.508-13.425-21.436-14.702-20.495s5.329 15.395 10.078 23.902c2.053 3.679 3.422 5.641 4.419 6.61-.351 2.757-.68 5.426-.978 7.957-.383 3.252-.699 6.137-.957 8.703-.253-.473-.526-.973-.822-1.503-4.749-8.508-13.425-21.436-14.702-20.495s5.329 15.395 10.078 23.902c2.258 4.045 3.688 6.015 4.706 6.871-.706 11.326.634 11.673 2.216 11.859s2.966.16 4.909-11.021c1.188-.596 3.037-2.18 6.172-5.59 6.594-7.173 16.375-19.698 15.352-20.909-1.027-1.212-12.468 9.349-19.062 16.522z" fill="url(#SVGID_10_)"/><path d="m363.99 390.265 2.843 3.497c3.34 4.109 9.344 4.816 13.547 1.594l4.875-3.736c26.945-20.652 35.363-57.565 20.035-87.857l-10.709-21.165c-3.593-2.716-8.966-2.436-12.163 1.339l-15.71 18.549c-21.303 25.152-22.279 61.57-2.718 87.779z" fill="url(#SVGID_11_)"/><path d="m500.696 395.325-20.708-12.729c-28.922-17.777-66.405-12.438-89.212 12.708l-4.126 4.549c-3.558 3.923-3.35 9.964.47 13.632l4.43 4.254c24.484 23.517 62.245 26.264 89.875 6.538l19.783-14.124c5.184-3.7 4.916-11.492-.512-14.828z" fill="url(#SVGID_12_)"/><path d="m405.989 410.883c-.504-.339-.98-.653-1.43-.944 2.579-.045 5.48-.122 8.752-.234 2.547-.088 5.233-.194 8.01-.317.883 1.073 2.726 2.6 6.222 4.95 8.086 5.435 21.945 13.213 22.988 12.018s-11.124-10.91-19.21-16.346c-.555-.373-1.074-.714-1.564-1.029 5.398-.281 10.962-.609 16.414-.969.553.957 2.027 2.308 5.234 4.464 6.633 4.458 18.153 10.664 19.196 9.469s-8.786-9.339-15.419-13.797c-.37-.248-.715-.474-1.05-.69 6.161-.452 11.973-.936 16.992-1.427-.355.833-.025 1.782 2.258 3.316 3.317 2.23 9.501 4.849 10.545 3.654.996-1.141-3.056-5.345-6.312-7.663 6.453-.761 10.499-1.51 10.477-2.156s-4.111-1.115-10.6-1.43c3.089-2.537 6.842-7.009 5.77-8.08-1.123-1.12-7.112 1.919-10.268 4.371-2.171 1.687-2.436 2.658-2.024 3.464-5.041-.145-10.873-.227-17.05-.254.32-.238.649-.488 1-.761 6.311-4.904 15.555-13.705 14.432-14.825s-12.188 5.864-18.499 10.768c-3.051 2.371-4.429 3.821-4.915 4.814-5.463.016-11.037.072-16.441.163.467-.348.961-.724 1.489-1.134 7.693-5.979 19.163-16.509 18.04-17.629s-14.413 7.593-22.106 13.572c-3.326 2.585-5.06 4.235-5.867 5.366-2.779.069-5.466.147-8.013.235-3.273.113-6.172.236-8.748.368.429-.321.882-.667 1.362-1.04 7.693-5.979 19.163-16.509 18.04-17.629s-14.413 7.593-22.106 13.572c-3.658 2.843-5.389 4.554-6.081 5.689-11.303 1.012-11.443 2.39-11.388 3.981s.289 2.956 11.635 3.188c.768 1.085 2.613 2.673 6.458 5.257 8.086 5.435 21.945 13.213 22.988 12.018 1.042-1.192-11.125-10.907-19.211-16.343z" fill="url(#SVGID_13_)"/><path d="m389.677 396.516-3.028 3.338c-3.558 3.923-3.35 9.964.47 13.632l4.43 4.254c24.485 23.517 62.245 26.264 89.876 6.538l19.305-13.782c2.143-3.962 1.054-9.231-3.16-11.821l-20.708-12.729c-28.083-17.26-64.231-12.725-87.185 10.57z" fill="url(#SVGID_14_)"/><path d="m426.491 473.175-15.537-18.694c-21.7-26.109-58.916-33.063-88.58-16.552l-5.367 2.987c-4.627 2.576-6.366 8.365-3.924 13.064l2.832 5.45c15.657 30.123 50.546 44.827 83.04 34.996l23.266-7.039c6.099-1.846 8.342-9.312 4.27-14.212z" fill="url(#SVGID_15_)"/><path d="m331.793 457.562c-.369-.482-.719-.932-1.052-1.352 2.457.784 5.23 1.641 8.366 2.583 2.441.733 5.02 1.493 7.69 2.267.493 1.3 1.749 3.336 4.308 6.683 5.918 7.74 16.553 19.549 17.924 18.751s-7.041-13.9-12.959-21.64c-.406-.531-.788-1.02-1.151-1.476 5.203 1.464 10.579 2.936 15.858 4.342.217 1.084 1.181 2.836 3.528 5.906 4.854 6.349 13.778 15.919 15.149 15.122 1.371-.798-5.329-11.661-10.184-18.01-.27-.354-.525-.678-.774-.99 5.981 1.546 11.641 2.951 16.553 4.094-.603.675-.595 1.681 1.076 3.865 2.428 3.175 7.446 7.639 8.817 6.841 1.31-.762-1.182-6.042-3.523-9.282 6.356 1.347 10.429 1.934 10.615 1.315s-3.537-2.374-9.583-4.752c3.739-1.413 8.728-4.447 8.055-5.804-.705-1.421-7.352-.462-11.128.85-2.597.903-3.159 1.737-3.027 2.633-4.729-1.752-10.227-3.7-16.069-5.705.379-.124.771-.254 1.191-.4 7.549-2.623 19.127-7.997 18.422-9.418s-13.425 1.648-20.974 4.272c-3.65 1.269-5.42 2.2-6.198 2.985-5.18-1.735-10.478-3.469-15.626-5.115.554-.18 1.142-.378 1.774-.597 9.203-3.198 23.443-9.497 22.738-10.918s-16.086 2.573-25.29 5.771c-3.979 1.383-6.15 2.39-7.277 3.203-2.654-.825-5.225-1.612-7.666-2.345-3.136-.942-5.922-1.755-8.404-2.454.509-.167 1.05-.349 1.623-.548 9.203-3.198 23.443-9.497 22.738-10.918s-16.086 2.573-25.29 5.771c-4.376 1.521-6.565 2.587-7.584 3.44-11.031-2.663-11.606-1.404-12.064.122-.458 1.525-.673 2.893 10 6.749.38 1.274 1.619 3.37 4.433 7.05 5.918 7.74 16.553 19.549 17.924 18.751 1.371-.8-7.041-13.902-12.959-21.642z" fill="url(#SVGID_16_)"/><path d="m320.945 438.724-3.938 2.192c-4.627 2.576-6.366 8.365-3.924 13.064l2.832 5.45c15.657 30.123 50.546 44.827 83.04 34.996l22.704-6.869c3.299-3.067 3.956-8.406.795-12.21l-15.537-18.694c-21.068-25.35-56.763-32.638-85.972-17.929z" fill="url(#SVGID_17_)"/><path d="m306.379 317.523-15.71 18.548c-21.941 25.906-22.324 63.765-.91 90.108l3.874 4.766c3.34 4.109 9.344 4.816 13.547 1.594l4.875-3.736c26.945-20.652 35.363-57.565 20.035-87.857l-10.974-21.689c-2.876-5.685-10.619-6.596-14.737-1.734z" fill="url(#SVGID_18_)"/><path d="m307.457 413.493c-.411.447-.793.87-1.149 1.271.345-2.556.707-5.435 1.09-8.687.298-2.531.598-5.203.896-7.966 1.194-.711 2.981-2.302 5.833-5.404 6.594-7.173 16.375-19.698 15.352-20.909-1.024-1.212-12.465 9.349-19.059 16.522-.453.492-.868.953-1.253 1.39.537-5.378 1.053-10.928 1.521-16.372 1.03-.402 2.588-1.655 5.203-4.5 5.409-5.884 13.283-16.334 12.26-17.546-1.024-1.212-10.558 7.275-15.967 13.158-.301.328-.577.635-.841.934.484-6.159.883-11.977 1.156-17.013.769.477 1.758.294 3.619-1.731 2.705-2.943 6.228-8.66 5.205-9.872-.978-1.157-5.745 2.214-8.529 5.082.222-6.493.092-10.607-.549-10.682-.642-.076-1.723 3.895-3.015 10.263-2.041-3.437-5.896-7.822-7.115-6.924-1.277.941.822 7.32 2.771 10.811 1.34 2.401 2.259 2.809 3.118 2.524-.904 4.961-1.867 10.714-2.826 16.816-.188-.352-.384-.715-.601-1.104-3.895-6.979-11.199-17.447-12.476-16.506s3.956 12.934 7.851 19.913c1.884 3.374 3.108 4.956 4.016 5.586-.809 5.403-1.595 10.921-2.322 16.277-.274-.514-.57-1.059-.896-1.643-4.748-8.508-13.425-21.436-14.702-20.495s5.329 15.395 10.078 23.902c2.053 3.679 3.422 5.641 4.419 6.61-.352 2.758-.68 5.426-.978 7.957-.383 3.252-.699 6.137-.957 8.703-.253-.473-.526-.973-.822-1.503-4.748-8.508-13.425-21.436-14.702-20.495s5.329 15.395 10.078 23.902c2.258 4.045 3.688 6.015 4.706 6.871-.706 11.326.634 11.673 2.216 11.859 1.581.186 2.966.16 4.908-11.021 1.188-.596 3.037-2.18 6.172-5.59 6.594-7.173 16.375-19.698 15.352-20.909-1.026-1.212-12.467 9.349-19.061 16.521z" fill="url(#SVGID_19_)"/><path d="m290.791 427.449 2.843 3.497c3.34 4.109 9.344 4.816 13.547 1.594l4.875-3.736c26.945-20.652 35.363-57.565 20.035-87.857l-10.709-21.165c-3.593-2.717-8.966-2.436-12.163 1.338l-15.71 18.549c-21.303 25.152-22.279 61.571-2.718 87.78z" fill="url(#SVGID_20_)"/><path d="m441.689 342.299c-19.851 20.19-84.135 77.796-189.77 99.546-5.533 1.139-9.743 5.652-10.477 11.253-1.211 9.243 7.249 16.823 16.298 14.586 39.083-9.662 130.284-40.304 185.367-124.233.61-.929-.638-1.944-1.418-1.152z" fill="url(#SVGID_21_)"/><path d="m442.839 342.175c-.333-.173-.762-.155-1.089.204-19.04 20.956-81.003 81.052-185.698 106.95-5.484 1.357-9.513 6.032-10.025 11.658-.132 1.453-.029 2.856.273 4.179 3.051 2.448 7.181 3.572 11.441 2.519 39.083-9.662 130.284-40.304 185.367-124.233.327-.5.116-1.022-.269-1.277z" fill="url(#SVGID_22_)"/><path d="m11.498 262.77 23.253 7.082c32.476 9.892 53.304 41.509 49.573 75.252l-.675 6.105c-.582 5.264-5.246 9.109-10.524 8.678l-6.121-.5c-33.836-2.765-60.906-29.235-64.43-63.001l-2.524-24.176c-.661-6.336 5.354-11.296 11.448-9.44z" fill="url(#SVGID_23_)"/><path d="m62.576 344.027c.587.153 1.138.302 1.654.446-1.674-1.962-3.538-4.186-5.622-6.712-1.621-1.966-3.321-4.049-5.069-6.211-1.389.049-3.753-.32-7.83-1.383-9.428-2.458-24.435-7.688-24.23-9.261.204-1.573 15.542 1.107 24.97 3.565.647.169 1.246.331 1.807.49-3.365-4.23-6.805-8.616-10.146-12.938-1.083.22-3.072.01-6.812-.965-7.734-2.016-20.014-6.536-19.809-8.109.204-1.573 12.815.396 20.549 2.412.431.112.829.222 1.213.33-3.742-4.915-7.23-9.59-10.186-13.675-.388.818-1.319 1.199-3.98.505-3.868-1.008-9.926-3.906-9.722-5.479.195-1.503 6.028-1.251 9.922-.347-3.704-5.338-5.823-8.866-5.324-9.277s3.558 2.341 8.093 6.994c-.146-3.995.719-9.769 2.231-9.674 1.583.099 3.274 6.599 3.527 10.588.174 2.744-.378 3.585-1.254 3.811 3.447 3.681 7.372 7.995 11.484 12.605-.033-.397-.064-.809-.093-1.253-.506-7.976-.036-20.731 1.547-20.632s3.681 13.015 4.186 20.991c.245 3.857.071 5.849-.351 6.871 3.606 4.104 7.257 8.316 10.768 12.425-.049-.581-.094-1.199-.137-1.867-.617-9.724-.326-25.291 1.257-25.192s3.859 15.827 4.476 25.551c.267 4.204.179 6.595-.134 7.95 1.789 2.128 3.51 4.193 5.132 6.159 2.083 2.526 3.912 4.78 5.518 6.797-.044-.534-.085-1.103-.123-1.709-.617-9.724-.326-25.291 1.257-25.192s3.859 15.827 4.476 25.551c.293 4.623.158 7.054-.234 8.324 6.729 9.138 5.79 10.156 4.561 11.169s-2.406 1.741-10.096-6.605c-1.322.143-3.734-.187-8.216-1.356-9.428-2.458-24.435-7.688-24.23-9.261.204-1.574 15.542 1.106 24.97 3.564z" fill="url(#SVGID_24_)"/><path d="m84.144 346.73-.495 4.48c-.582 5.264-5.246 9.109-10.524 8.678l-6.121-.5c-33.836-2.766-60.906-29.235-64.43-63.001l-2.462-23.592c1.549-4.23 6.217-6.904 10.949-5.463l23.253 7.083c31.53 9.604 52.077 39.689 49.83 72.315z" fill="url(#SVGID_25_)"/><path d="m130.421 280.339 15.71 18.549c21.941 25.906 22.324 63.764.91 90.108l-3.874 4.766c-3.34 4.109-9.344 4.816-13.547 1.594l-4.875-3.736c-26.945-20.652-35.363-57.565-20.035-87.857l10.974-21.689c2.877-5.685 10.62-6.597 14.737-1.735z" fill="url(#SVGID_26_)"/><path d="m129.344 376.31c.411.447.793.87 1.149 1.271-.345-2.556-.707-5.435-1.09-8.687-.298-2.531-.598-5.203-.896-7.966-1.194-.711-2.981-2.302-5.833-5.404-6.594-7.173-16.375-19.698-15.352-20.909 1.024-1.212 12.465 9.349 19.059 16.522.453.492.868.953 1.253 1.39-.537-5.378-1.053-10.928-1.521-16.372-1.03-.402-2.588-1.655-5.203-4.5-5.409-5.884-13.283-16.334-12.26-17.546 1.024-1.212 10.558 7.275 15.967 13.158.301.328.577.635.841.934-.484-6.158-.883-11.977-1.155-17.013-.769.477-1.758.294-3.619-1.731-2.705-2.943-6.229-8.66-5.205-9.872.978-1.157 5.745 2.214 8.529 5.082-.222-6.493-.092-10.607.549-10.682.642-.076 1.723 3.895 3.014 10.263 2.041-3.437 5.896-7.822 7.116-6.924 1.277.941-.823 7.32-2.771 10.811-1.34 2.401-2.259 2.809-3.118 2.524.904 4.961 1.867 10.714 2.826 16.816.188-.352.384-.715.601-1.104 3.895-6.979 11.199-17.447 12.476-16.506s-3.956 12.934-7.851 19.913c-1.883 3.374-3.108 4.956-4.016 5.585.809 5.403 1.595 10.921 2.322 16.277.274-.514.57-1.059.896-1.643 4.749-8.508 13.425-21.436 14.702-20.495s-5.329 15.395-10.077 23.902c-2.053 3.679-3.422 5.641-4.419 6.61.352 2.757.68 5.426.978 7.957.383 3.252.699 6.137.957 8.703.253-.473.526-.973.822-1.503 4.749-8.508 13.425-21.436 14.702-20.495s-5.329 15.395-10.078 23.902c-2.258 4.045-3.688 6.015-4.706 6.871.706 11.326-.634 11.673-2.216 11.859s-2.966.16-4.909-11.021c-1.188-.596-3.037-2.18-6.172-5.59-6.594-7.173-16.375-19.698-15.352-20.909 1.025-1.212 12.466 9.349 19.06 16.522z" fill="url(#SVGID_27_)"/><path d="m146.01 390.265-2.843 3.497c-3.34 4.109-9.344 4.816-13.547 1.594l-4.875-3.736c-26.945-20.652-35.363-57.565-20.035-87.857l10.709-21.165c3.593-2.716 8.966-2.436 12.162 1.339l15.71 18.549c21.304 25.152 22.28 61.57 2.719 87.779z" fill="url(#SVGID_28_)"/><path d="m9.304 395.325 20.708-12.729c28.922-17.777 66.404-12.438 89.212 12.708l4.126 4.549c3.558 3.923 3.35 9.964-.47 13.632l-4.43 4.254c-24.484 23.517-62.245 26.264-89.875 6.538l-19.782-14.122c-5.186-3.702-4.917-11.494.511-14.83z" fill="url(#SVGID_29_)"/><path d="m104.011 410.883c.504-.339.98-.653 1.43-.944-2.579-.045-5.48-.122-8.752-.234-2.547-.088-5.233-.194-8.01-.317-.883 1.073-2.726 2.6-6.222 4.95-8.086 5.435-21.945 13.213-22.988 12.018s11.124-10.91 19.21-16.346c.555-.373 1.074-.714 1.564-1.029-5.398-.281-10.962-.609-16.414-.969-.553.957-2.027 2.308-5.234 4.464-6.633 4.458-18.153 10.664-19.196 9.469s8.786-9.339 15.419-13.797c.37-.248.715-.474 1.05-.69-6.161-.452-11.973-.936-16.992-1.427.355.833.025 1.782-2.258 3.316-3.317 2.23-9.502 4.849-10.545 3.654-.996-1.141 3.056-5.345 6.312-7.663-6.452-.761-10.499-1.51-10.477-2.156s4.111-1.115 10.6-1.43c-3.089-2.537-6.842-7.009-5.77-8.08 1.123-1.12 7.112 1.919 10.268 4.371 2.171 1.687 2.436 2.658 2.024 3.464 5.041-.145 10.873-.227 17.05-.254-.319-.238-.649-.488-1-.761-6.311-4.904-15.555-13.705-14.432-14.825s12.188 5.864 18.499 10.768c3.051 2.371 4.429 3.821 4.915 4.814 5.463.016 11.037.072 16.441.163-.467-.348-.961-.724-1.489-1.134-7.693-5.979-19.163-16.509-18.04-17.629s14.413 7.593 22.106 13.572c3.326 2.585 5.06 4.235 5.867 5.366 2.779.069 5.466.147 8.013.235 3.273.113 6.172.236 8.748.368-.429-.321-.882-.667-1.362-1.04-7.693-5.979-19.163-16.509-18.04-17.629s14.413 7.593 22.106 13.572c3.658 2.843 5.389 4.554 6.081 5.689 11.303 1.012 11.443 2.39 11.388 3.981s-.289 2.956-11.635 3.188c-.768 1.085-2.613 2.673-6.458 5.257-8.086 5.435-21.945 13.213-22.988 12.018-1.043-1.192 11.125-10.907 19.211-16.343z" fill="url(#SVGID_30_)"/><path d="m120.323 396.516 3.028 3.338c3.558 3.923 3.35 9.964-.47 13.632l-4.43 4.254c-24.485 23.517-62.245 26.264-89.876 6.538l-19.304-13.782c-2.143-3.962-1.054-9.231 3.16-11.821l20.708-12.729c28.082-17.26 64.23-12.725 87.184 10.57z" fill="url(#SVGID_31_)"/><path d="m83.509 473.175 15.537-18.694c21.7-26.109 58.916-33.063 88.58-16.552l5.367 2.987c4.627 2.576 6.366 8.365 3.924 13.064l-2.833 5.45c-15.657 30.123-50.546 44.827-83.04 34.996l-23.266-7.039c-6.098-1.846-8.341-9.312-4.269-14.212z" fill="url(#SVGID_32_)"/><path d="m178.207 457.562c.369-.482.719-.932 1.052-1.352-2.457.784-5.23 1.641-8.366 2.583-2.441.733-5.02 1.493-7.69 2.267-.493 1.3-1.749 3.336-4.308 6.683-5.918 7.74-16.553 19.549-17.924 18.751s7.041-13.9 12.959-21.64c.406-.531.788-1.02 1.151-1.476-5.203 1.464-10.579 2.936-15.858 4.342-.217 1.084-1.181 2.836-3.528 5.906-4.854 6.349-13.778 15.919-15.149 15.122-1.371-.798 5.329-11.661 10.184-18.01.27-.354.525-.678.774-.99-5.981 1.546-11.641 2.951-16.553 4.094.603.675.595 1.681-1.076 3.865-2.428 3.175-7.446 7.639-8.817 6.841-1.31-.762 1.182-6.042 3.523-9.282-6.356 1.347-10.429 1.934-10.615 1.315s3.537-2.374 9.583-4.752c-3.739-1.413-8.728-4.447-8.055-5.804.705-1.421 7.352-.462 11.127.85 2.598.903 3.159 1.737 3.027 2.633 4.729-1.752 10.226-3.7 16.069-5.705-.379-.124-.771-.254-1.191-.4-7.549-2.623-19.127-7.997-18.422-9.418s13.425 1.648 20.974 4.272c3.65 1.269 5.42 2.2 6.198 2.985 5.18-1.735 10.478-3.469 15.626-5.115-.554-.18-1.142-.378-1.774-.597-9.203-3.198-23.442-9.497-22.738-10.918.705-1.421 16.086 2.573 25.29 5.771 3.979 1.383 6.15 2.39 7.277 3.203 2.654-.825 5.225-1.612 7.666-2.345 3.136-.942 5.922-1.755 8.404-2.454-.509-.167-1.05-.349-1.623-.548-9.203-3.198-23.443-9.497-22.738-10.918s16.086 2.573 25.29 5.771c4.376 1.521 6.565 2.587 7.584 3.44 11.031-2.663 11.606-1.404 12.064.122.458 1.525.673 2.893-10 6.749-.38 1.274-1.619 3.37-4.433 7.05-5.918 7.74-16.553 19.549-17.924 18.751-1.37-.8 7.042-13.902 12.96-21.642z" fill="url(#SVGID_33_)"/><path d="m189.055 438.724 3.938 2.192c4.627 2.576 6.366 8.365 3.924 13.064l-2.833 5.45c-15.657 30.123-50.546 44.827-83.04 34.996l-22.704-6.869c-3.299-3.067-3.956-8.406-.795-12.21l15.537-18.694c21.069-25.35 56.764-32.638 85.973-17.929z" fill="url(#SVGID_34_)"/><path d="m203.62 317.523 15.71 18.548c21.941 25.906 22.324 63.765.91 90.108l-3.874 4.766c-3.34 4.109-9.344 4.816-13.547 1.594l-4.875-3.736c-26.945-20.652-35.363-57.565-20.035-87.857l10.974-21.689c2.877-5.685 10.62-6.596 14.737-1.734z" fill="url(#SVGID_35_)"/><path d="m202.543 413.493c.411.447.793.87 1.149 1.271-.345-2.556-.707-5.435-1.09-8.687-.298-2.531-.598-5.203-.896-7.966-1.194-.711-2.982-2.302-5.833-5.404-6.594-7.173-16.375-19.698-15.352-20.909 1.024-1.212 12.465 9.349 19.059 16.522.453.492.868.953 1.253 1.39-.537-5.378-1.053-10.928-1.521-16.372-1.03-.402-2.588-1.655-5.203-4.5-5.409-5.884-13.283-16.334-12.26-17.546 1.024-1.212 10.558 7.275 15.967 13.158.301.328.577.635.841.934-.484-6.159-.883-11.977-1.155-17.013-.769.477-1.758.294-3.619-1.731-2.705-2.943-6.229-8.66-5.205-9.872.978-1.157 5.745 2.214 8.529 5.082-.222-6.493-.092-10.607.549-10.682.642-.076 1.723 3.895 3.014 10.263 2.041-3.437 5.896-7.822 7.116-6.924 1.277.941-.823 7.32-2.771 10.811-1.34 2.401-2.259 2.809-3.118 2.524.904 4.961 1.867 10.714 2.826 16.816.188-.352.384-.715.601-1.104 3.895-6.979 11.199-17.447 12.476-16.506s-3.956 12.934-7.851 19.913c-1.883 3.374-3.108 4.956-4.016 5.586.809 5.403 1.595 10.921 2.322 16.277.274-.514.57-1.059.896-1.643 4.748-8.508 13.425-21.436 14.702-20.495s-5.329 15.395-10.078 23.902c-2.053 3.679-3.422 5.641-4.419 6.61.352 2.758.68 5.426.978 7.957.383 3.252.699 6.137.957 8.703.253-.473.526-.973.822-1.503 4.748-8.508 13.425-21.436 14.702-20.495s-5.329 15.395-10.078 23.902c-2.258 4.045-3.688 6.015-4.706 6.871.706 11.326-.634 11.673-2.216 11.859-1.581.186-2.966.16-4.908-11.021-1.188-.596-3.037-2.18-6.172-5.59-6.594-7.173-16.375-19.698-15.352-20.909 1.025-1.212 12.466 9.349 19.06 16.521z" fill="url(#SVGID_36_)"/><path d="m219.209 427.449-2.843 3.497c-3.34 4.109-9.344 4.816-13.547 1.594l-4.875-3.736c-26.945-20.652-35.363-57.565-20.035-87.857l10.709-21.165c3.593-2.717 8.966-2.436 12.163 1.338l15.71 18.549c21.303 25.152 22.279 61.571 2.718 87.78z" fill="url(#SVGID_37_)"/><path d="m68.311 342.299c19.851 20.19 84.135 77.796 189.77 99.546 5.533 1.139 9.743 5.652 10.477 11.253 1.211 9.243-7.249 16.823-16.298 14.586-39.083-9.662-130.284-40.304-185.367-124.233-.61-.929.638-1.944 1.418-1.152z" fill="url(#SVGID_38_)"/><path d="m67.161 342.175c.333-.173.762-.155 1.089.204 19.04 20.956 81.003 81.052 185.698 106.95 5.484 1.357 9.513 6.032 10.025 11.658.132 1.453.029 2.856-.273 4.179-3.051 2.448-7.181 3.572-11.441 2.519-39.083-9.662-130.284-40.304-185.367-124.233-.327-.5-.116-1.022.269-1.277z" fill="url(#SVGID_39_)"/></svg>