<svg height="512pt" viewBox="0 0 512 512" width="512pt" xmlns="http://www.w3.org/2000/svg" xmlns:xlink="http://www.w3.org/1999/xlink"><radialGradient id="a" cx="213.9214" cy="153.8356" gradientTransform="matrix(-1.003922 0 0 -1.003922 512 512)" gradientUnits="userSpaceOnUse" r="358.2439"><stop offset="0" stop-color="#45425a"/><stop offset=".5991" stop-color="#434159"/><stop offset=".8146" stop-color="#3c3c57"/><stop offset=".9679" stop-color="#313452"/><stop offset="1" stop-color="#2d3251"/></radialGradient><linearGradient id="b" gradientUnits="userSpaceOnUse" x1="21.082362" x2="490.917858" y1="256.00011" y2="256.00011"><stop offset="0" stop-color="#ecf7ff"/><stop offset="1" stop-color="#c2e0ff"/></linearGradient><linearGradient id="c"><stop offset="0" stop-color="#ffd459"/><stop offset=".2296" stop-color="#ffd355"/><stop offset=".4362" stop-color="#ffcf4a"/><stop offset=".634" stop-color="#ffc838"/><stop offset=".825" stop-color="#ffbf1f"/><stop offset="1" stop-color="#ffb400"/></linearGradient><radialGradient id="d" cx="214.7603997308" cy="154.4389432232" gradientUnits="userSpaceOnUse" r="359.6489325758" xlink:href="#c"/><radialGradient id="e" cx="216.2304" cy="159.5219" gradientTransform="matrix(-.709873 -.709873 .709873 -.709873 256 618.038714)" gradientUnits="userSpaceOnUse" r="338.1073" xlink:href="#c"/><linearGradient id="f"><stop offset="0" stop-color="#131830" stop-opacity="0"/><stop offset=".3785" stop-color="#151a32" stop-opacity=".380392"/><stop offset=".5148" stop-color="#1c2038" stop-opacity=".513725"/><stop offset=".612" stop-color="#272c42" stop-opacity=".611765"/><stop offset=".6906" stop-color="#383d51" stop-opacity=".690196"/><stop offset=".758" stop-color="#4e5264" stop-opacity=".756863"/><stop offset=".8176" stop-color="#6a6d7c" stop-opacity=".815686"/><stop offset=".8716" stop-color="#8a8d98" stop-opacity=".870588"/><stop offset=".9211" stop-color="#b0b1ba" stop-opacity=".921569"/><stop offset=".9652" stop-color="#d9dade" stop-opacity=".964706"/><stop offset="1" stop-color="#fff"/></linearGradient><radialGradient id="g" cx="329.5716302402" cy="271.9862627514" gradientUnits="userSpaceOnUse" r="285.3531830048" xlink:href="#f"/><radialGradient id="h" cx="301.9582536692" cy="265.9862225262" gradientUnits="userSpaceOnUse" r="178.2524750242" xlink:href="#f"/><linearGradient id="i"><stop offset="0" stop-color="#2d3251" stop-opacity="0"/><stop offset="1" stop-color="#131830"/></linearGradient><linearGradient id="j" gradientUnits="userSpaceOnUse" x1="361.1183732072" x2="280.2094882456" xlink:href="#i" y1="161.7095471316" y2="80.80066217"/><radialGradient id="k" cx="300.6371927094" cy="91.3757757336" gradientUnits="userSpaceOnUse" r="49.3659568982"><stop offset="0" stop-color="#8be1e2"/><stop offset=".1873" stop-color="#87e1e1"/><stop offset=".3558" stop-color="#7ce2dd"/><stop offset=".5172" stop-color="#6ae2d7"/><stop offset=".6741" stop-color="#50e4ce"/><stop offset=".8278" stop-color="#2fe5c2"/><stop offset=".9772" stop-color="#07e7b4"/><stop offset="1" stop-color="#00e7b2"/></radialGradient><linearGradient id="l" gradientUnits="userSpaceOnUse" x1="334.4336244862" x2="253.5247395246" xlink:href="#i" y1="390.4889144548" y2="309.5800294932"/><linearGradient id="m"><stop offset="0" stop-color="#ff6e3a"/><stop offset=".2085" stop-color="#ff6a3c"/><stop offset=".396" stop-color="#ff5f44"/><stop offset=".5755" stop-color="#ff4d50"/><stop offset=".7501" stop-color="#ff3361"/><stop offset=".9195" stop-color="#ff1278"/><stop offset="1" stop-color="#ff0084"/></linearGradient><radialGradient id="n" cx="273.9524439884" cy="320.1551430568" gradientUnits="userSpaceOnUse" r="49.3659568982" xlink:href="#m"/><linearGradient id="o" gradientUnits="userSpaceOnUse" x1="145.2061737658" x2="64.2972888042" xlink:href="#i" y1="330.754149964" y2="249.8452650024"/><radialGradient id="p" cx="84.724993268" cy="260.4202781738" gradientUnits="userSpaceOnUse" r="49.3659568982" xlink:href="#m"/><path d="m512 256c0 141.386719-114.613281 256-256 256s-256-114.613281-256-256 114.613281-256 256-256 256 114.613281 256 256zm0 0" fill="url(#a)"/><path d="m490.917969 258.007812v-4.015624h-48.214844c-.527344-49.964844-20.777344-95.285157-53.324219-128.53125l34.152344-34.152344-2.839844-2.839844-34.152344 34.152344c-33.246093-32.546875-78.566406-52.796875-128.53125-53.324219v-48.214844h-4.015624v48.214844c-49.964844.527344-95.285157 20.777344-128.53125 53.324219l-34.152344-34.152344-2.839844 2.839844 34.152344 34.152344c-32.546875 33.246093-52.796875 78.566406-53.324219 128.53125h-48.214844v4.015624h48.214844c.527344 49.964844 20.777344 95.285157 53.324219 128.53125l-34.152344 34.152344 2.839844 2.839844 34.152344-34.152344c33.246093 32.546875 78.5625 52.792969 128.53125 53.324219v48.214844h4.015624v-48.214844c49.964844-.527344 95.285157-20.777344 128.53125-53.324219l34.152344 34.152344 2.839844-2.839844-34.152344-34.152344c32.542969-33.246093 52.792969-78.5625 53.324219-128.53125zm-52.230469-4.015624h-106.441406c-.507813-19.519532-8.375-37.230469-20.933594-50.464844l75.226562-75.226563c31.820313 32.515625 51.621094 76.832031 52.148438 125.691407zm-180.679688-70.222657c18.414063.503907 35.121094 7.921875 47.625 19.757813l-47.625 47.625zm-4.015624 67.382813-47.625-47.625c12.503906-11.835938 29.210937-19.253906 47.625-19.757813zm-2.839844 2.839844h-67.382813c.503907-18.414063 7.921875-35.121094 19.757813-47.625zm0 4.015624-47.625 47.625c-11.835938-12.503906-19.253906-29.210937-19.757813-47.625zm2.839844 2.839844v67.382813c-18.414063-.503907-35.121094-7.921875-47.625-19.757813zm4.015624 0 47.625 47.625c-12.503906 11.835938-29.210937 19.253906-47.625 19.757813zm2.839844-2.839844h67.382813c-.503907 18.414063-7.921875 35.121094-19.757813 47.625zm0-4.015624 47.625-47.625c11.835938 12.503906 19.253906 29.210937 19.757813 47.625zm122.851563-128.53125-75.226563 75.226562c-13.234375-12.558594-30.945312-20.425781-50.464844-20.933594v-106.441406c48.859376.527344 93.175782 20.328125 125.691407 52.148438zm-129.707031-52.148438v106.441406c-19.519532.507813-37.230469 8.375-50.464844 20.933594l-75.226563-75.226562c32.515625-31.820313 76.832031-51.621094 125.691407-52.148438zm-128.53125 54.988281 75.226562 75.226563c-12.558594 13.234375-20.425781 30.945312-20.933594 50.464844h-106.441406c.527344-48.859376 20.328125-93.175782 52.148438-125.691407zm-52.148438 129.707031h106.441406c.507813 19.519532 8.375 37.230469 20.933594 50.464844l-75.226562 75.226563c-31.820313-32.515625-51.621094-76.832031-52.148438-125.691407zm54.988281 128.53125 75.226563-75.226562c13.234375 12.558594 30.945312 20.425781 50.464844 20.933594v106.441406c-48.859376-.527344-93.175782-20.328125-125.691407-52.148438zm129.707031 52.148438v-106.441406c19.519532-.507813 37.230469-8.375 50.464844-20.933594l75.226563 75.226562c-32.515625 31.820313-76.832031 51.621094-125.691407 52.148438zm128.53125-54.988281-75.226562-75.226563c12.558594-13.234375 20.425781-30.945312 20.933594-50.464844h106.441406c-.527344 48.859376-20.328125 93.175782-52.148438 125.691407zm0 0" fill="url(#b)"/><path d="m256 0c-141.386719 0-256 114.613281-256 256s114.613281 256 256 256 256-114.613281 256-256-114.613281-256-256-256zm0 478.820312c-123.058594 0-222.820312-99.761718-222.820312-222.820312s99.761718-222.820312 222.820312-222.820312 222.820312 99.761718 222.820312 222.820312-99.761718 222.820312-222.820312 222.820312zm0 0" fill="url(#d)"/><path d="m85.15625 426.84375c94.355469 94.355469 247.332031 94.355469 341.6875 0s94.355469-247.332031 0-341.6875-247.332031-94.355469-341.6875 0-94.355469 247.332031 0 341.6875zm319.542969-319.542969c82.125 82.125 82.125 215.273438 0 297.398438s-215.273438 82.125-297.398438 0-82.125-215.273438 0-297.398438 215.273438-82.125 297.398438 0zm0 0" fill="url(#e)"/><path d="m427.1875 256c0 94.542969-76.644531 171.1875-171.1875 171.1875s-171.1875-76.644531-171.1875-171.1875 76.644531-171.1875 171.1875-171.1875 171.1875 76.644531 171.1875 171.1875zm0 0" fill="url(#g)"/><path d="m362.9375 256c0 59.058594-47.878906 106.9375-106.9375 106.9375s-106.9375-47.878906-106.9375-106.9375 47.878906-106.9375 106.9375-106.9375 106.9375 47.878906 106.9375 106.9375zm0 0" fill="url(#h)"/><path d="m337.296875 106.824219c-4.019531-4.328125-9.742187-7.054688-16.113281-7.054688-12.152344 0-22.003906 9.851563-22.003906 22.003907 0 6.375 2.722656 12.09375 7.050781 16.113281l58.0625 58.0625c4.019531 4.328125 9.738281 7.054687 16.113281 7.054687 12.152344 0 22.003906-9.851562 22.003906-22.007812 0-6.371094-2.722656-12.09375-7.054687-16.113282zm0 0" fill="url(#j)"/><path d="m343.1875 121.773438c0 12.152343-9.851562 22.007812-22.003906 22.007812s-22.003906-9.855469-22.003906-22.007812c0-12.152344 9.851562-22.003907 22.003906-22.003907s22.003906 9.851563 22.003906 22.003907zm0 0" fill="url(#k)"/><path d="m310.609375 335.601562c-4.015625-4.328124-9.738281-7.050781-16.109375-7.050781-12.152344 0-22.007812 9.851563-22.007812 22.003907 0 6.371093 2.726562 12.09375 7.054687 16.113281l58.0625 58.058593c4.015625 4.332032 9.738281 7.054688 16.113281 7.054688 12.152344 0 22.003906-9.851562 22.003906-22.003906 0-6.371094-2.726562-12.09375-7.054687-16.113282zm0 0" fill="url(#l)"/><path d="m316.503906 350.554688c0 12.152343-9.851562 22.003906-22.003906 22.003906-12.15625 0-22.007812-9.851563-22.007812-22.003906 0-12.152344 9.851562-22.003907 22.007812-22.003907 12.152344 0 22.003906 9.851563 22.003906 22.003907zm0 0" fill="url(#n)"/><path d="m121.382812 275.867188c-4.015624-4.328126-9.738281-7.054688-16.113281-7.054688-12.152343 0-22.003906 9.851562-22.003906 22.007812 0 6.371094 2.726563 12.09375 7.054687 16.113282l58.058594 58.058594c4.019532 4.328124 9.742188 7.054687 16.113282 7.054687 12.15625 0 22.007812-9.851563 22.007812-22.003906 0-6.375-2.726562-12.097657-7.054688-16.113281zm0 0" fill="url(#o)"/><path d="m127.277344 290.820312c0 12.152344-9.851563 22.003907-22.007813 22.003907-12.152343 0-22.003906-9.851563-22.003906-22.003907 0-12.15625 9.851563-22.007812 22.003906-22.007812 12.15625 0 22.007813 9.851562 22.007813 22.007812zm0 0" fill="url(#p)"/></svg>