<svg height="512pt" viewBox="-28 0 512 512" width="512pt" xmlns="http://www.w3.org/2000/svg" xmlns:xlink="http://www.w3.org/1999/xlink"><linearGradient id="a"><stop offset="0" stop-color="#ffd00d"/><stop offset=".2378" stop-color="#ffcb0e"/><stop offset=".5353" stop-color="#fb1"/><stop offset=".8632" stop-color="#ffa215"/><stop offset="1" stop-color="#ff9517"/></linearGradient><linearGradient id="b" gradientUnits="userSpaceOnUse" x1="228.324007" x2="228.324007" xlink:href="#a" y1="9.5970927512" y2="62.6012629774"/><linearGradient id="c" gradientUnits="userSpaceOnUse" x1="220.2894184496" x2="253.9246203532" xlink:href="#a" y1="11.4711139486" y2="59.885453183"/><linearGradient id="d" gradientUnits="userSpaceOnUse" x1="217.1336900348" x2="238.0965853168" xlink:href="#a" y1="-11.7781132962" y2="53.4396715898"/><linearGradient id="e" gradientTransform="matrix(.788982 -.620825 .620825 .788982 183.669265 749.801613)" gradientUnits="userSpaceOnUse" x1="318.9947" x2="336.5777" xlink:href="#a" y1="-602.7476" y2="-548.0449"/><linearGradient id="f" gradientTransform="matrix(-.788982 -.620825 -.620825 .788982 2146.408214 749.801613)" gradientUnits="userSpaceOnUse" x1="1785.5574" x2="1803.1404" xlink:href="#a" y1="551.1875" y2="605.8902"/><linearGradient id="g"><stop offset="0" stop-color="#445ea0"/><stop offset=".3216" stop-color="#415a9b"/><stop offset=".6926" stop-color="#364d8d"/><stop offset="1" stop-color="#2a3d7c"/></linearGradient><linearGradient id="h" gradientUnits="userSpaceOnUse" x1="-.0001820884" x2="450.4702608848" xlink:href="#g" y1="283.6759305194" y2="283.6759305194"/><linearGradient id="i" gradientTransform="matrix(-1.003922 0 0 -1.003922 2620.668995 512)" gradientUnits="userSpaceOnUse" x1="2200.3394" x2="2560.718" xlink:href="#g" y1="227.4323" y2="227.4323"/><linearGradient id="j" gradientUnits="userSpaceOnUse" x1="159.4984276226" x2="383.507759955" y1="214.850351142" y2="438.8596834744"><stop offset="0" stop-color="#fffcf8"/><stop offset=".1875" stop-color="#faf8f6"/><stop offset=".4041" stop-color="#eceef2"/><stop offset=".6353" stop-color="#d5dcea"/><stop offset=".875" stop-color="#b5c4df"/><stop offset="1" stop-color="#a1b5d8"/></linearGradient><linearGradient id="k" gradientUnits="userSpaceOnUse" x1="238.5813792506" x2="288.5514964084" y1="178.7094603186" y2="250.6362551462"><stop offset="0" stop-color="#ff4974"/><stop offset=".3262" stop-color="#fe4672"/><stop offset=".5324" stop-color="#fb3e6c"/><stop offset=".7054" stop-color="#f52f60"/><stop offset=".8591" stop-color="#ee1a51"/><stop offset="1" stop-color="#e4003d"/></linearGradient><linearGradient id="l" gradientUnits="userSpaceOnUse" x1="220.794592" x2="235.853422" xlink:href="#g" y1="150.567217638" y2="150.567217638"/><linearGradient id="m" gradientUnits="userSpaceOnUse" x1="220.794592" x2="235.853422" xlink:href="#g" y1="416.7849445774" y2="416.7849445774"/><linearGradient id="n" gradientTransform="matrix(0 1.003922 -1.003922 0 -1117.934927 -1602.258824)" gradientUnits="userSpaceOnUse" x1="1871.0674" x2="1886.0674" xlink:href="#g" y1="-1473.5889" y2="-1473.5889"/><linearGradient id="o" gradientTransform="matrix(0 1.003922 -1.003922 0 -1117.934927 -1602.258824)" gradientUnits="userSpaceOnUse" x1="1871.0674" x2="1886.0674" xlink:href="#g" y1="-1208.4111" y2="-1208.4111"/><linearGradient id="p" gradientUnits="userSpaceOnUse" x1="225.5866128826" x2="237.0462821204" xlink:href="#a" y1="279.7357374538" y2="296.230778267"/><linearGradient id="q"><stop offset="0" stop-color="#2a3d7c" stop-opacity="0"/><stop offset=".3949" stop-color="#273a77" stop-opacity=".396078"/><stop offset=".8504" stop-color="#1e3069" stop-opacity=".85098"/><stop offset="1" stop-color="#1a2b63"/></linearGradient><linearGradient id="r" gradientUnits="userSpaceOnUse" x1="130.0202659366" x2="86.5223335206" xlink:href="#q" y1="135.9869572554" y2="92.4890248394"/><linearGradient id="s" gradientUnits="userSpaceOnUse" x1="286.9393984608" x2="227.031959386" xlink:href="#q" y1="94.7113065786" y2="22.8791815956"/><path d="m213.558594 39.125h29.527344v29.527344h-29.527344zm0 0" fill="url(#b)"/><path d="m264.351562 46.070312h-72.054687c-1.632813 0-2.957031-1.320312-2.957031-2.953124v-40.160157c0-1.632812 1.324218-2.957031 2.957031-2.957031h72.054687c1.632813 0 2.957032 1.324219 2.957032 2.957031v40.160157c0 1.632812-1.324219 2.953124-2.957032 2.953124zm0 0" fill="url(#c)"/><path d="m244.171875 46.070312h-31.695313c-1.105468 0-2-.894531-2-2v-42.070312c0-1.105469.894532-2 2-2h31.695313c1.105469 0 2 .894531 2 2v42.070312c0 1.105469-.894531 2-2 2zm0 0" fill="url(#d)"/><path d="m115.746094 90.835938-36.890625 29.027343-14.859375-18.886719c-3.945313-5.015624-3.082032-12.277343 1.933594-16.222656l18.734374-14.742187c5.015626-3.945313 12.277344-3.078125 16.222657 1.9375zm0 0" fill="url(#e)"/><path d="m340.902344 90.835938 36.890625 29.027343 14.859375-18.886719c3.945312-5.015624 3.078125-12.277343-1.933594-16.222656l-18.734375-14.742187c-5.015625-3.945313-12.277344-3.078125-16.222656 1.9375zm0 0" fill="url(#f)"/><path d="m456.648438 283.675781c0 126.101563-102.226563 228.324219-228.324219 228.324219-126.101563 0-228.324219-102.222656-228.324219-228.324219 0-126.097656 102.222656-228.324219 228.324219-228.324219 126.097656 0 228.324219 102.226563 228.324219 228.324219zm0 0" fill="url(#h)"/><path d="m411.703125 283.675781c0 101.277344-82.101563 183.378907-183.378906 183.378907-101.277344 0-183.378907-82.101563-183.378907-183.378907 0-101.277343 82.101563-183.378906 183.378907-183.378906 101.277343 0 183.378906 82.101563 183.378906 183.378906zm0 0" fill="url(#i)"/><path d="m386.722656 283.675781c0 87.480469-70.917968 158.398438-158.398437 158.398438s-158.398438-70.917969-158.398438-158.398438 70.917969-158.398437 158.398438-158.398437 158.398437 70.917968 158.398437 158.398437zm0 0" fill="url(#j)"/><path d="m313.28125 166.503906c-23.859375-17.332031-53.210938-27.558594-84.957031-27.558594v144.730469zm0 0" fill="url(#k)"/><path d="m220.792969 138.78125h15.058593v23.570312h-15.058593zm0 0" fill="url(#l)"/><path d="m220.792969 404.996094h15.058593v23.574218h-15.058593zm0 0" fill="url(#m)"/><path d="m349.644531 276.144531h23.574219v15.058594h-23.574219zm0 0" fill="url(#n)"/><path d="m83.429688 276.144531h23.570312v15.058594h-23.570312zm0 0" fill="url(#o)"/><path d="m241.953125 283.675781c0 7.527344-6.101563 13.628907-13.628906 13.628907-7.527344 0-13.628907-6.101563-13.628907-13.628907 0-7.527343 6.101563-13.628906 13.628907-13.628906 7.527343 0 13.628906 6.101563 13.628906 13.628906zm0 0" fill="url(#p)"/><path d="m166.703125 137.71875c-15.789063 6.664062-30.257813 15.820312-42.929687 26.972656l-48.996094-50.003906c1.457031-1.320312 2.921875-2.613281 4.40625-3.898438.445312-.386718.898437-.757812 1.351562-1.144531 1.035156-.875 2.078125-1.761719 3.125-2.613281.566406-.464844 1.136719-.917969 1.703125-1.375.953125-.773438 1.917969-1.53125 2.898438-2.292969.601562-.476562 1.210937-.941406 1.828125-1.410156.953125-.726563 1.90625-1.441406 2.859375-2.144531.636719-.464844 1.273437-.933594 1.910156-1.386719.964844-.703125 1.941406-1.398437 2.917969-2.078125.632812-.441406 1.269531-.886719 1.90625-1.316406 1.023437-.691406 2.042968-1.386719 3.078125-2.066406.613281-.398438 1.214843-.796876 1.816406-1.195313 1.148437-.734375 2.304687-1.460937 3.476563-2.191406.5-.304688 1-.621094 1.5-.929688 1.667968-1.023437 3.359374-2.035156 5.0625-3.011719zm0 0" fill="url(#r)"/><path d="m213.300781 55.855469-.023437.113281 86.117187 86.121094c2.613281 1.3125 5.1875 2.691406 7.71875 4.140625v-76.917969c-24.5625-9.027344-51.097656-13.960938-78.789062-13.960938-5.050781 0-10.058594.183594-15.023438.503907zm0 0" fill="url(#s)"/></svg>