<svg xmlns="http://www.w3.org/2000/svg" version="1.1" width="80px" height="80px" viewBox="0 0 200 200" style="overflow:hidden!important;"><g id="svga-group-wrapper"><g id="svga-group-backs-single"></g><g id="svga-group-humanwrap-move" transform="matrix(1,0,0,1,2,-6)"><g id="svga-group-humanwrap" transform="matrix(0.8999995000000002,0,0,0.8999995000000002,9.950051466622341,12.73226504650495)"><g id="svga-group-hair-back-move" transform="matrix(0.9986295104026794,-0.0523359589278698,0.0523359589278698,0.9986295104026794,-7.451664924621582,5.432316780090332)"><g id="svga-group-hair-back"></g></g><g id="svga-group-humanbody-back"><path id="SvgjsPath4605" d="M166.5 181.1c-10.9-6.6-27.6-8.4-35-12.1-4.9-2.5-9.1-4.7-8.9-17.8s1.9-42.4 1.9-42.4H75.4s1.6 29.4 1.9 42.4-4.2 15.6-8.9 17.8c-7.4 3.5-24.1 5.4-35 12.1-10.8 6.6-10 18.9-10 18.9v19.7h153.3V200c-.1 0 .7-12.3-10.2-18.9z" fill="#f0c7b1" stroke-width="none" opacity="1" stroke="none"></path></g><g id="svga-group-chinshadow-single"><path id="SvgjsPath4757" d="M124.5 108.9H75.4c.1 1.8 1.6 29.7 1.9 42.3 0 1.4 0 2.7-.1 3.9 1.7 2.2 3.4 4.2 5.1 5.9 5.5 6.1 8.4 6.5 17.7 6.5s12.2-.4 17.7-6.5c1.6-1.7 3.3-3.7 5-5.9-.1-1.2-.1-2.5-.1-3.9.2-12.7 1.8-40.5 1.9-42.3z" fill="#d19271" stroke-width="none" opacity="0.65" stroke="none"></path></g><g id="svga-group-humanbody-front"><path id="SvgjsPath4606" d="M78.7 156.8c.5 4.8 1.7 9.4 3.1 13.9.8 2.3 1.6 4.6 2.6 6.9.8 2 1.7 4.2 3.1 5.9.3.4 1 0 .9-.5-.5-2.2-1.6-4.3-2.4-6.4-.9-2.2-1.7-4.4-2.5-6.6-1.5-4.4-2.8-8.9-4.1-13.3-.2-.4-.8-.3-.7.1zm41.3-1c-1.3 8.2-3.9 16.1-5.4 24.2-.1.4.4.5.6.2 3.1-7.7 4.1-16.1 5.1-24.3-.1-.2-.3-.2-.3-.1zm-25.8 11.9c-.9 3.6 1.9 8.6 6.2 7.6.5-.1.4-.8 0-1-1.4-.5-2.9-.9-3.9-2.1-1.1-1.2-1.5-2.9-1.4-4.5 0-.4-.8-.5-.9 0z" fill="#d19271" stroke-width="none" opacity="1" stroke="none"></path><path id="SvgjsPath4607" d="M177.3 219.7c-.1-6.6-.3-13.1-.3-19.7l-.3-.3c.1 0 .1 0 .2.1s.1.2.1.1v-1.4c0-.5-.1-.9-.1-1.4-.1-.9-.3-1.9-.5-2.8-.5-1.8-1.1-3.6-2-5.3-1.7-3.4-4.4-6.2-7.7-8.1-3.6-2.2-7.6-3.8-11.6-5.1-4-1.3-8.1-2.4-12.1-3.5-4-1.2-8.1-2.2-11.8-4.2-1.9-1-3.6-2.1-4.8-3.6-1.2-1.6-1.9-3.5-2.3-5.5-.8-4-.4-8.2-.3-12.4l.7-12.6 1.5-25.2.1-1.4h-1.4c-8.2 0-16.4 0-24.6.1l-24.6.3h-.9l.1.9c.8 11.9 1.6 23.8 2.1 35.7.1 3 .3 6 .2 8.9-.1 2.9-.4 5.9-1.6 8.6-.6 1.3-1.4 2.5-2.4 3.5s-2.3 1.8-3.6 2.4c-2.6 1.3-5.4 2.2-8.3 3-5.8 1.5-11.6 2.8-17.3 4.7-2.8.9-5.7 2-8.4 3.4-1.3.7-2.7 1.4-4 2.4-1.3.9-2.4 1.9-3.5 3.1-2.1 2.3-3.6 5.2-4.5 8.1-.5 1.5-.8 3-1 4.6-.1.8-.1 1.6-.1 2.4v2.3l-.2 17.9v1.3h1.4l38.3.2c12.8.1 25.5.1 38.3 0 12.8-.1 25.6-.1 38.3-.3 12.8-.2 25.6-.5 38.3-.7h.6v-.5zm-77.2-1.6H61.8l-37 .2-.1-16.6v-2.2c0-.7 0-1.4.1-2.1.1-1.4.4-2.8.8-4.2.8-2.7 2.1-5.3 3.9-7.5.9-1.1 2-2.1 3.1-2.9 1.1-.9 2.4-1.6 3.7-2.3 2.6-1.4 5.3-2.5 8.1-3.5 5.6-2 11.4-3.4 17.1-5.1 2.9-.8 5.8-1.7 8.5-3.1 1.3-.7 2.7-1.5 3.8-2.6 1.1-1.1 2-2.4 2.6-3.9 1.2-2.9 1.5-5.9 1.6-8.9 0-3-.1-6-.2-9l-1.3-34.8 23.5.4c7.7.1 15.4.1 23.1.1-.4 7.9-.8 15.9-1.1 23.8-.2 4.2-.2 8.4-.3 12.6 0 4.2-.2 8.5.8 12.8.5 2.1 1.3 4.2 2.8 6 1.4 1.7 3.4 2.9 5.3 3.8 3.9 1.9 8 2.8 12.1 3.8s8.2 2 12.2 3.3c4 1.3 7.9 2.8 11.5 5 3.2 1.9 5.8 4.7 7.5 8 .9 1.6 1.5 3.4 1.9 5.2.2.9.4 1.8.4 2.7.1.5.1.9.1 1.4V200l-.3 19c-12.6-.2-25.1-.5-37.7-.7-12.7-.1-25.5-.1-38.2-.2z" fill="#c27b55" stroke-width="none" opacity="1" stroke="none"></path></g><g id="svga-group-clothes-single"><path id="SvgjsPath8572" d="M179.3 220.1c0-17.5-1.6-26.7-1.6-26.7-3.2-15.2-21.5-18.1-30.1-20.5-2.8-.8-8.2-1.4-8.2-1.4-4.8 5.3-9.9 9.8-15.9 15.4-7.5 7-14.9 13-21.8 18.1-6.4-4-13.8-9.3-21.4-16.1-7.7-6.9-13.1-12.8-17.9-18.8-3.1.5-7.1.9-10.7 1.7-8.7 1.9-26.5 7.6-29.5 21.6 0 0-1.6 9.2-1.6 26.7h158.7z" fill="#386e77" stroke-width="none" opacity="1"></path><path id="SvgjsPath8573" d="M179.6 210.9c0-3.1-.1-6.1-.3-9.2-.1-1.5-.2-3.1-.3-4.6l-.2-2.3-.1-1.2c0-.4-.2-.8-.3-1.2-.2-.8-.4-1.6-.7-2.3l-.9-2.2-1.2-2.1c-.4-.7-1-1.3-1.5-1.9-2.1-2.4-4.7-4.4-7.5-5.9s-5.7-2.6-8.7-3.6c-3-.9-6-1.7-8.9-2.5-2.9-.8-6.1-.8-9.1-1.7-.5-.1-1 0-1.4.4-5.8 6.3-11.5 11.3-17.8 17.1-6.1 5.6-12.4 11.1-19.1 16.1-3.6-2.2-7.2-4.6-10.6-7.1-3.6-2.6-7.1-5.4-10.5-8.4-3.4-3-6.6-6.1-9.7-9.3-3.1-3.3-5.2-5.8-8-9.3-.1-.1-.3-.2-.5-.2-3.2.6-6.9.8-10 1.5-3.1.6-6.2 1.4-9.2 2.4-6 2.1-11.9 4.9-16.5 9.7-2.3 2.4-4.1 5.2-5.1 8.4l-.4 1.2c-.1.2-.1.4-.2.6l.1.7-.3 2.4c-.2 1.6-.4 3.2-.5 4.7-.6 6.3-.8 12.6-.9 19 0 .8.6 1.4 1.4 1.4l40 .2c13.3 0 26.7-.1 39.9-.2l39.7-.5 19.7-.3 19.5-.4c.1-1.5.1-3.2.1-4.7v-4.7zM23 196.6c.1-.8.2-1.6.3-2.3l.1-.6c0-.2.1-.3.1-.5l.3-1.1c.8-2.8 2.4-5.5 4.4-7.7 1.5-1.6 3.2-3.1 5-4.4 1.1 1.1 2 2.4 2.8 3.7.9 1.5 1.7 3 2.4 4.6 1.4 3.2 2.4 6.5 3.2 9.9.4 1.7.8 3.4 1.1 5.1.3 1.7.6 3.4.9 5.2.5 3.3 1 6.6 1.5 10l-22.8.1c0-5.8.1-11.6.5-17.4-.1-1.4 0-3 .2-4.6zm116.1 22.7-39.7-.5c-13.2-.1-26.3-.2-39.4-.2l-15 .1c.3-3.4.2-6.8 0-10.2-.3-3.5-.8-7.1-1.6-10.6-.4-1.7-.9-3.5-1.5-5.2-.6-1.7-1.3-3.4-2.2-4.9-.8-1.6-1.8-3.1-3-4.5-1-1.2-2.1-2.4-3.4-3.2 3.2-2.2 6.8-3.9 10.4-5.2 2.9-1.1 5.9-1.9 9-2.6 3-.7 6.7-.9 9.6-1.5 2.8 3.4 4.9 5.8 7.9 9 3.1 3.3 6.3 6.4 9.7 9.5 6.7 6.1 13.8 11.6 21.4 16.6.3.2.7.2 1 0 7-5 13.8-10.3 20.2-16.1 3.2-2.9 6.4-5.8 9.4-8.9 2.9-2.8 5.3-4.8 8-7.8 2.7.8 5.7.7 8.4 1.4 3 .8 6 1.4 8.9 2.3 2.9.9 5.7 1.9 8.4 3.3.3.1.5.3.8.4-1.1.8-2.1 1.8-2.9 2.9-1.1 1.4-2.1 2.9-3 4.5-.9 1.6-1.6 3.2-2.2 4.9-.6 1.7-1.1 3.4-1.5 5.2-.8 3.5-1.3 7-1.6 10.6-.2 3.5-.3 7.1 0 10.6l1.5-10.5c.3-1.7.6-3.5.9-5.2.3-1.7.6-3.4 1.1-5.1.8-3.4 1.8-6.7 3.2-9.9.7-1.6 1.5-3.1 2.4-4.6.7-1.2 1.5-2.3 2.4-3.3 2.2 1.2 4.3 2.8 6.1 4.6.5.6 1 1.1 1.4 1.7l1.2 1.8.9 2c.3.7.4 1.4.7 2.1.1.4.2.7.3 1.1l.2 1.1.3 2.3.5 4.6c.3 3 .6 6.1.7 9.2l.5 9.1-40.4-.9zm-4.2-34.6c-3.4 3.3-6.9 6.5-10.4 9.5-7.1 6.1-14.3 11.9-21.9 17.3-4.3-2.5-8.5-5.3-12.5-8.3-4.1-3.1-8-6.3-11.8-9.7-3.8-3.4-7.5-6.9-11.1-10.6-3.6-3.6-7.1-7.4-10.4-11.3 3.2 4 6.5 7.9 10 11.6 3.5 3.7 7.2 7.4 10.9 10.8 3.8 3.5 7.8 6.7 11.8 9.9 4.1 3.1 8.4 6 12.8 8.6.2.1.4.1.5 0 3.8-2.8 7.6-5.6 11.3-8.6 3.7-3 7.3-6 10.8-9.2 3.5-3.1 6.9-6.4 10.3-9.8 3.3-3.4 6.5-6.9 9.5-10.4-3.1 3.5-6.3 6.9-9.8 10.2z" fill="#184f58" stroke-width="none" opacity="1"></path></g><g id="svga-group-head" transform="matrix(0.9986295104026794,-0.0523359589278698,0.0523359589278698,0.9986295104026794,-7.451664924621582,5.432316780090332)"><g id="svga-group-ears-left-move" transform="matrix(1,0,0,1,0,0)"><g id="svga-group-ears-left"><path id="SvgjsPath5446" d="M62.9 100.1s-1.8-5-3.3-7.9-3.6-6.4-6.7-7.2c-3.1-.8-4.1 3.9-2.9 8.3 1.2 4.4 4.3 13.9 5 17.7.7 3.7 1.8 8.2 3.6 7.5 1.7-.7 7.2-7.7 4.3-18.4z" fill="#f0c7b1" stroke-width="none" opacity="1"></path><path id="SvgjsPath5447" d="M63.8 105.1c.2 1.7.1 3.4-.1 5.1-.5 3.3-1.9 6.4-4 8.4l-.4.3c-.2.1-.3.2-.5.3-.4.2-.9 0-1.3-.3-.8-.6-1.2-1.5-1.5-2.3-.6-1.7-.9-3.3-1.3-5-.3-1.6-.7-3.2-1.1-4.8l-1.3-4.9c-.4-1.6-.9-3.2-1.3-4.8l-.7-2.4c-.2-.8-.5-1.6-.6-2.5-.2-.8-.3-1.7-.3-2.6s.1-1.7.3-2.6c.2-.8.6-1.6 1.2-2.1s1.4-.6 2.1-.5c1.4.3 2.7 1.2 3.7 2.4 1.1 1.2 1.9 2.6 2.6 4.1.8 1.4 1.4 3 2 4.5.6 1.6 1.2 3.1 1.7 4.7.3 1.6.7 3.3.8 5zm-5.1-13.7c-.9-1.4-1.7-2.6-2.7-3.7-1-1-2.1-1.8-3.2-2.2-.6-.2-1.1-.1-1.6.2-.5.3-.8.9-1.1 1.6-.5 1.4-.5 3.1-.2 4.7.1.8.3 1.6.6 2.4.2.8.5 1.6.7 2.4l1.5 4.8c.5 1.6 1.1 3.2 1.5 4.8.5 1.6 1 3.2 1.3 4.9.4 1.6.7 3.3 1.3 4.7.3.7.6 1.4 1 1.6.2.1.3.2.5.1.1 0 .2-.1.3-.2l.3-.3c.9-.8 1.7-2 2.4-3.2.7-1.3 1.2-2.7 1.6-4.2.8-3 .7-6.5-.2-9.7-1-3.1-2.3-6.1-4-8.7z" fill="#e1ac8f" stroke-width="none" opacity="1"></path><path id="SvgjsPath5448" d="M50.9 88.1c1.9-.8 3.6 1.4 4.8 3.3 1.6 2.5 2.7 5.5 3 8.7v.2c0 .3 0 .5.1.8 0 .2-.2.2-.2 0-.1-.4-.2-.9-.3-1.4-.1-.1-.1-.2-.2-.4-1.2-.6-1.8-.3-1.8.8 0 .7.2 1.5.3 2.2.3 1.2.9 2.3 1.3 3.5.1.2-.2.4-.3.2-.9-1.6-2.6-5.3-1.5-7.2.5-.9 1.4-.8 1.9-.2-.5-2-1.2-4.3-2.2-6.2-2.1 4.5-1 9.2.1 14.2 0 .2-.2.3-.3.1-1.4-4.6-2.7-10.8 0-14.5-1-2.2-2.6-3.9-4.6-3.7-.1 0-.2-.3-.1-.4z" fill="#d19271" stroke-width="none" opacity="1"></path><path id="SvgjsPath5449" d="M58.6 108.1c.2 1.1 0 2.4-.6 3.2-.1.1-.2 0-.1-.1.3-1 .6-1.9.6-3.1 0-.1.1-.1.1 0z" fill="#d19271" stroke-width="none" opacity="1"></path></g></g><g id="svga-group-ears-right-move" transform="matrix(1,0,0,1,0,0)"><g id="svga-group-ears-right"><path id="SvgjsPath5450" d="M137.1 100.1s1.8-5 3.3-7.9 3.6-6.4 6.7-7.2c3.1-.8 4.1 3.9 2.9 8.3-1.2 4.4-4.3 13.9-5 17.7s-1.8 8.2-3.6 7.5c-1.7-.7-7.2-7.7-4.3-18.4z" fill="#f0c7b1" stroke-width="none" opacity="1"></path><path id="SvgjsPath5451" d="M137.1 100.1c.6-1.6 1.1-3.1 1.7-4.7.6-1.5 1.2-3.1 2-4.5.7-1.5 1.6-2.9 2.6-4.1s2.3-2.1 3.7-2.4c.7-.2 1.5 0 2.1.5s1 1.3 1.2 2.1c.2.8.3 1.7.3 2.6s-.1 1.7-.3 2.6c-.1.9-.4 1.7-.6 2.5l-.7 2.4c-.5 1.6-.9 3.2-1.3 4.8l-1.3 4.9c-.4 1.6-.8 3.2-1.1 4.8-.3 1.7-.7 3.3-1.3 5-.3.8-.7 1.7-1.5 2.3-.4.3-.9.4-1.3.3-.2-.1-.4-.2-.5-.3l-.4-.3c-2.1-2-3.5-5.1-4-8.4-.3-1.7-.3-3.4-.1-5.1 0-1.7.4-3.4.8-5zm.1 0c-.9 3.2-1 6.7-.2 9.7.4 1.5.9 2.9 1.6 4.2.7 1.3 1.5 2.4 2.4 3.2l.3.3c.1.1.2.1.3.2.2.1.3 0 .5-.1.4-.3.7-.9 1-1.6.6-1.4.9-3.1 1.3-4.7.3-1.7.8-3.3 1.3-4.9l1.5-4.8 1.5-4.8c.2-.8.5-1.6.7-2.4l.6-2.4c.3-1.6.2-3.3-.2-4.7-.2-.7-.6-1.3-1.1-1.6-.5-.3-1-.3-1.6-.2-1.2.3-2.3 1.1-3.2 2.2-1 1.1-1.8 2.3-2.7 3.6-1.6 2.7-2.9 5.7-4 8.8z" fill="#e1ac8f" stroke-width="none" opacity="1"></path><path id="SvgjsPath5452" d="M149.1 88.1c-1.9-.8-3.6 1.4-4.8 3.3-1.6 2.5-2.7 5.5-3 8.7v.2c0 .3 0 .5-.1.8 0 .2.2.2.2 0 .1-.4.2-.9.3-1.4.1-.1.1-.2.2-.4 1.2-.6 1.8-.3 1.8.8 0 .7-.2 1.5-.3 2.2-.3 1.2-.9 2.3-1.3 3.5-.1.2.2.4.3.2.9-1.6 2.6-5.3 1.5-7.2-.5-.9-1.4-.8-1.9-.2.5-2 1.2-4.3 2.2-6.2 2.1 4.5 1 9.2-.1 14.2 0 .2.2.3.3.1 1.4-4.6 2.7-10.8 0-14.5 1.2-2.2 2.8-3.9 4.7-3.8 0 .1.1-.2 0-.3z" fill="#d19271" stroke-width="none" opacity="1"></path><path id="SvgjsPath5453" d="M141.4 108.1c-.2 1.1 0 2.4.6 3.2.1.1.2 0 .1-.1-.3-1-.6-1.9-.6-3.1 0-.1-.1-.1-.1 0z" fill="#d19271" stroke-width="none" opacity="1"></path></g></g><g id="svga-group-faceshape-wrap"><g id="svga-group-faceshape-single"><path id="SvgjsPath4747" d="M143.2 82v-.3c-1.3-29.9-20.7-46.4-43.2-46.4S58.1 51.8 56.9 81.7v.3c.1 9.4-.6 25.5 2 31.6 1.3 3.1 13.8 23.8 23.4 34.2 5.5 6.1 8.4 6.5 17.7 6.5 9.3 0 12.2-.4 17.7-6.5 9.6-10.4 22.1-31.1 23.4-34.2 2.6-6.1 1.9-22.2 2.1-31.6z" fill="#f0c7b1" stroke-width="none" opacity="1" stroke="none"></path><path id="SvgjsPath4748" d="M117.7 147.8c9.6-10.4 22.1-31.1 23.4-34.2 2.6-6.1 1.9-22.2 2.1-31.6v-.3c-1.3-29.9-20.7-46.4-43.2-46.4S58.1 51.8 56.9 81.7v.3c.1 9.4-.6 25.5 2 31.6 1.3 3.1 13.8 23.8 23.4 34.2 5.5 6.1 8.4 6.5 17.7 6.5s12.2-.4 17.7-6.5zm-30.3 1.4c-1.2-.9-2.3-2-3.4-3.2-2.3-2.4-4.4-6-6.5-8.6-4.2-5.3-8.1-10.8-11.9-16.3-.9-1.4-1.9-2.8-2.8-4.2-.5-.7-.9-1.4-1.3-2.1l-.6-1c-.2-.3-.4-.6-.5-1-.6-1.3-.9-2.9-1.2-4.5s-.5-3.3-.7-4.9c-.6-6.7-.7-13.5-.8-20.3 0-6.7 1.1-13.4 3.6-19.7.1-.4.3-.8.4-1.2l.6-1.1 1.1-2.2c.3-.8.8-1.4 1.3-2.2l1.3-2.1 1.5-2c.5-.6 1-1.3 1.6-1.9 1.2-1.2 2.2-2.4 3.5-3.4.6-.5 1.3-1.1 1.9-1.6l2-1.4 1-.7c.3-.2.7-.4 1.1-.6l2.1-1.2c.7-.4 1.5-.6 2.2-1 .8-.3 1.5-.7 2.3-.9 1.6-.5 3.1-1 4.7-1.3 6.3-1.4 12.9-1.5 19.2-.1l2.4.5 2.3.7c1.6.4 3 1.1 4.5 1.7.8.3 1.4.8 2.1 1.1.7.4 1.5.7 2.1 1.2 1.3.9 2.8 1.7 4 2.8 5.1 4.1 9.3 9.5 12 15.6 2.7 6.1 4.1 12.9 4.4 19.6-.1 3.4-.1 6.8-.2 10.2-.1 3.4-.2 6.8-.6 10.2-.3 3.3-.8 6.8-1.8 9.8l-.5 1.1c-.2.3-.4.7-.6 1-.4.7-.9 1.4-1.3 2.1-.9 1.4-1.9 2.8-2.9 4.2-2 2.8-4 5.5-6 8.2-1 1.3-2 2.7-3.1 4-1 1.3-2.1 2.7-3.1 4-2.1 2.6-4.2 6.2-6.5 8.6-2.2 2.5-4.4 4.7-6.9 5.5-2.5.9-5.8.9-9.2.9-3.3 0-6.8.1-9.4-.6-1.1-.2-2.2-.8-3.4-1.7z" fill="#c27b55" stroke-width="none" opacity="1" stroke="none"></path></g></g><g id="svga-group-mouth-single-move" transform="matrix(1,0,0,1,0,0)"><g id="svga-group-mouth-single"><path id="SvgjsPath5355" d="M100.36 129.39c-.49.05-9.78-2.48-12.1-3.52 0 0 6.49-1.32 8.19-1.56.77-.11 3.58 1.46 3.58 1.46s2.68-1.6 3.45-1.57c1.22.04 9.47.7 9.47.7s-9.34 4.18-12.59 4.49z" fill="#d26d79" stroke-width="none" opacity="1" transform="translate(0 2)" stroke="none"></path><path id="SvgjsPath5356" d="M88.64 126.16s2.22 4.74 3.61 6.45 4.63 2.76 8.5 2.83 6.93-2.13 7.9-3.18 4.11-7.24 4.11-7.24-10.77 4.8-12.51 4.69-8.03-2.3-8.57-2.46-3.04-1.09-3.04-1.09z" fill="#da7c87" stroke-width="none" opacity="1" transform="translate(0 2)" stroke="none"></path><path id="SvgjsPath5357" d="M113.83 124.15c-4.53 1.15-8.14 3.43-13.6 4.82-2.19-.21-4.23-.98-6.26-1.56-2.22-.63-4.39-1.41-6.58-2.13-.26-.09-.42.31-.18.44 2.07 1.14 4.23 2.04 6.46 2.82 2.09.73 4.39 1.64 6.63 1.72.53-.05 1.1-.3 1.27-.35 4.48-1.44 8.35-3.02 12.49-5.23.28-.17.08-.61-.23-.53z" fill="#cb5f6c" stroke-width="none" opacity="1" transform="translate(0 2)" stroke="none"></path></g></g><g id="svga-group-eyes-left-move" transform="matrix(1,0,0,1,0,0)"><g id="svga-group-eyes-left"><g id="svga-group-eyesback-left"><path id="SvgjsPath5890" d="M89.9 97.6c0-.1-.5-2.9-2.5-4.8s-5.1-3.6-8.7-2.7c-3.5.9-5.3 2.1-7 4.3-1.6 2.2-1.7 3.4-1.7 3.4s3.4 1.1 7.6 1.1c4.1.1 9.6-.7 10.5-.9.9 0 1.8-.4 1.8-.4z" fill="#ffffff" stroke-width="none" opacity="1"></path></g><g id="svga-group-eyesiriswrapper-left" transform="matrix(1,0,0,1,0,0)"><g id="svga-group-eyesiriscontrol-left" transform="matrix(1,0,0,1,0,0)"><g id="svga-group-eyesiris-left"><path id="SvgjsPath6115" d="M80.1 88c3 0 5.5 2.5 5.5 5.5S83.1 99 80.1 99s-5.5-2.5-5.5-5.5 2.5-5.5 5.5-5.5z" fill="#4e60a3" stroke-width="none" opacity="1" stroke="none"></path><path id="SvgjsPath6116" d="M80.1 89.7c2.1 0 3.8 1.7 3.8 3.8s-1.7 3.8-3.8 3.8-3.8-1.7-3.8-3.8 1.7-3.8 3.8-3.8z" fill="#000000" stroke-width="none" opacity="1"></path><path id="SvgjsPath6117" d="m76.1 91 4.3 3-1.7-5c-.4-.4-2.5.8-2.6 2z" fill="#ffffff" stroke-width="none" opacity="1"></path></g></g></g><g id="svga-group-eyesfront-left"><path id="SvgjsPath5898" d="M69.4 94.6c0 6.4 4.7 11.5 10.6 11.5s10.6-5.2 10.6-11.5S85.9 83.1 80 83.1s-10.6 5.1-10.6 11.5zm.7 3.3s.1-1.2 1.7-3.4c1.6-2.2 3.4-3.4 7-4.3s6.7.7 8.7 2.7c2 1.9 2.4 4.8 2.5 4.8 0 0-.9.3-1.8.5s-6.3 1-10.5.9c-4.2-.2-7.6-1.2-7.6-1.2z" fill="#f0c7b1" stroke-width="none" opacity="1" stroke="none"></path><path id="SvgjsPath5899" d="M90.1 96.2c-1.1-4.4-4.7-7.9-9.4-8.1-4.5-.2-8 2.5-9.9 6.5-.1.2-.3 0-.3-.1 1.4-4.4 5.9-7.3 10.5-6.8 4.7.5 8.3 3.9 9.1 8.5z" fill="#e1ac8f" stroke-width="none" opacity="1" stroke="none"></path><path id="SvgjsPath5900" d="M69.7 98.1c.1.2.3.3.4.2 2.7 1.2 6.5 1.2 9.3 1.2 3.4 0 7.1-.3 10.3-1.5.1.2.4.2.4-.1-.3-5-5.2-8.7-10-8.6-4.7.1-9.7 3.6-10.4 8.4-.1.1-.2.3 0 .4zm4 .2c-1.1-.2-2.1-.4-3.2-.5 2.1-3.8 4.6-7 9.3-7.3 4.9-.3 8.3 2.7 9.8 7-3.4.6-6.7 1.3-10.2 1.3-1.8-.1-3.8-.2-5.7-.5z" fill="#2a150e" stroke-width="none" opacity="1" stroke="none"></path></g></g></g><g id="svga-group-eyes-right-move" transform="matrix(1,0,0,1,0,0)"><g id="svga-group-eyes-right"><g id="svga-group-eyesback-right"><path id="SvgjsPath5891" d="M110.1 97.6c0-.1.5-2.9 2.5-4.8s5.1-3.6 8.7-2.7c3.5.9 5.3 2.1 7 4.3 1.6 2.2 1.7 3.4 1.7 3.4s-3.4 1.1-7.6 1.1c-4.1.1-9.6-.7-10.5-.9-.9 0-1.8-.4-1.8-.4z" fill="#ffffff" stroke-width="none" opacity="1"></path></g><g id="svga-group-eyesiriswrapper-right" transform="matrix(1,0,0,1,0,0)"><g id="svga-group-eyesiriscontrol-right" transform="matrix(1,0,0,1,0,0)"><g id="svga-group-eyesiris-right"><path id="SvgjsPath6118" d="M119.9 88c3 0 5.5 2.5 5.5 5.5s-2.5 5.5-5.5 5.5-5.5-2.5-5.5-5.5 2.5-5.5 5.5-5.5z" fill="#4e60a3" stroke-width="none" opacity="1" stroke="none"></path><path id="SvgjsPath6119" d="M119.9 89.7c2.1 0 3.8 1.7 3.8 3.8s-1.7 3.8-3.8 3.8-3.8-1.7-3.8-3.8 1.7-3.8 3.8-3.8z" fill="#000000" stroke-width="none" opacity="1"></path><path id="SvgjsPath6120" d="m115.9 91 4.3 3-1.7-5c-.3-.4-2.4.8-2.6 2z" fill="#ffffff" stroke-width="none" opacity="1"></path></g></g></g><g id="svga-group-eyesfront-right"><path id="SvgjsPath5901" d="M120 83.1c-5.9 0-10.6 5.2-10.6 11.5s4.7 11.5 10.6 11.5 10.6-5.2 10.6-11.5-4.8-11.5-10.6-11.5zm2.3 15.9c-4.1.1-9.6-.7-10.5-.9-.9-.2-1.8-.5-1.8-.5 0-.1.5-2.9 2.5-4.8s5.1-3.6 8.7-2.7 5.3 2.1 7 4.3c1.6 2.2 1.7 3.4 1.7 3.4s-3.4 1.1-7.6 1.2z" fill="#f0c7b1" stroke-width="none" opacity="1" stroke="none"></path><path id="SvgjsPath5904" d="M109.9 96.2c1.1-4.4 4.7-7.9 9.4-8.1 4.5-.2 8 2.5 9.9 6.5.1.2.3 0 .3-.1-1.4-4.4-5.9-7.3-10.5-6.8-4.7.5-8.3 3.9-9.1 8.5z" fill="#e1ac8f" stroke-width="none" opacity="1" stroke="none"></path><path id="SvgjsPath5905" d="M130.3 97.7c-.7-4.8-5.8-8.3-10.4-8.4-4.8-.1-9.7 3.6-10 8.6 0 .2.3.3.4.1 3.3 1.1 6.9 1.5 10.3 1.5 2.8 0 6.6 0 9.3-1.2.2.1.4 0 .4-.2.2-.1.1-.3 0-.4zm-9.8 1c-3.5 0-6.8-.6-10.2-1.3 1.5-4.4 4.9-7.3 9.8-7 4.7.3 7.2 3.6 9.3 7.3-1.1.1-2.1.4-3.2.5-1.8.4-3.8.5-5.7.5z" fill="#2a150e" stroke-width="none" opacity="1" stroke="none"></path></g></g></g><g id="svga-group-facehighlight-single"></g><g id="svga-group-eyebrows-left-move" transform="matrix(1,0,0,1,0,0)"><g id="svga-group-eyebrows-left-rotate" transform="matrix(1,1.7453292144864463e-9,-1.7453292144864463e-9,1,1.4176200124893512e-7,-1.3606350535155798e-7)"><g id="svga-group-eyebrows-left"><path id="SvgjsPath6366" d="M67.6 82.5c.1-.5.6-.7 1-1 .3-.2.7-.5 1-.7 0-.1 0-.2.1-.3 1.1-1.1 2.9-1.6 4.4-2.1.8-.8 2.1-.7 3.3-.4 1.4-.5 3.4.2 4.5.9.1.1.2.1.2.2.1 0 .3.1.4.1.8.2 1.4.4 1.9 1 1.2.5 2.4 1.1 3.2 2.1.6.2 1.2.5 1.7 1 .2.1.4.2.5.4h.2c.2 0 .4.2.6.3v-.2c-.1-.2.2-.3.3-.1.5.7.6 1.8.1 2.5 0 .1-.1.3-.1.4-.3.4-.6.5-.9.5-.6.2-1.2.2-1.7-.2-2-.1-4.2-1.3-5.9-2.3-.9-.5-2.5-1.3-3.5-2.3-.9-.1-1.8-.3-2.7-.5-1.1-.2-2.3-.2-3.3-.6-.2.1-.4.1-.6.2-.5.3-1.1.6-1.6.8-.6.3-1.2.6-1.9.6-.3 0-.5.2-.8.2-.3 0-.5-.3-.4-.5z" fill="#2a232b" stroke-width="none" opacity="1"></path><path id="SvgjsPath6367" d="M85.9 81.1c0-.1.1-.3.3-.1 1.3 1.3 1.8 3.6 1 5.3-.1.2-.4.1-.4-.1-.1-.1-.1-.2-.2-.3-.1-.1.1-.2.2-.2h.1c.1-.7.2-1.4 0-2.1-.2-.8-.6-1.6-1-2.5zm1.8.7c1.3 1.2 2.6 3.4 1.9 5.3-.1.2-.4.2-.4-.1.1-2-.9-3.2-1.8-4.9-.2-.3.1-.5.3-.3zm-8-3.4c3.3.5 5.1 4.2 5.8 7.1.1.2-.2.3-.3.1-.7-1.2-1.1-2.6-1.9-3.8-1-1.4-2.4-2.2-3.7-3.1-.2-.1-.1-.3.1-.3zm-2.6-.7c1.1 1 1.8 2.4 2.8 3.5 1.1 1.2 2.3 2.1 3.6 3 .2.1 0 .4-.2.3-2.9-1.3-4.9-3.8-6.7-6.4-.3-.3.2-.6.5-.4zm-2.4.3c.8.1 1.3.9 1.8 1.5.4.5.7 1 1.3 1.3.5.3.9.6 1.3 1 .2.2-.1.5-.3.3-.8-.6-1.7-.9-2.4-1.7-.3-.3-.5-.7-.8-1.1-.3-.4-.7-.6-1-1-.2 0-.1-.3.1-.3zm-5.3 3c1.5-1.4 4.2-1.4 5.8-.2.2.1.1.4-.2.4-1.1-.3-2.1-.6-3.3-.4-.8.2-1.4.6-2.2.6-.2-.1-.3-.3-.1-.4z" fill="#3a353a" stroke-width="none" opacity="1"></path><path id="SvgjsPath6368" d="M90.6 82.6c-.1-.1-.2 0-.2.1.2.7.7 1.5.7 2.3 0 1.6-1.5 1.9-2.7 1.6-.6-.1-1.2-.3-1.8-.6.3-1.7-.2-3.7-1.2-5.3 1.5 1 2.9 2.3 4.5 2.9.2.1.4-.2.3-.4-1.3-1.9-4.1-3.2-6.1-4.2-2.2-1.1-4.4-1.8-6.9-1.7-2.3 0-4.5.6-6.4 1.9-2.1 1.4-3.7 3.3-5.5 4.9-.4.4.2 1 .7.7 2.6-2.2 5.9-3.2 9.3-2.8 3.2.4 5.8 2.3 8.5 3.8 1.8 1 4.7 2.5 6.8 1.6 2-1 1.1-3.5 0-4.8zm-14.1-4.4c-.1.1-.1.1-.1.2.3 1 1 1.9 1.7 2.7.2.3.4.5.6.8-.3-.1-.6-.2-.8-.3-.1 0-.2-.1-.3-.1-1.2-.7-2.2-1.6-3.4-2.4-.1-.1-.3.1-.2.2.5.7 1.1 1.3 1.8 1.7-.2 0-.5-.1-.7-.1-.2-.1-.3-.2-.5-.3-.1-.1-.2-.1-.3-.2-.1 0-.2-.1-.3-.1-.1-.1-.2.1-.1.2l.2.2c.1.1.2.1.2.1-2.1-.1-4.2.4-6.2 1.3 2.4-2.1 5.2-3.6 8.4-3.9zm9.5 7.6c-.6-.2-1.1-.5-1.6-.8-1.4-.8-2.9-1.7-4.3-2.5-.5-.6-.9-1.2-1.4-1.8-.6-.8-1.1-1.8-1.8-2.5h.8c2.4.1 4.5.9 6.6 2 .5.9 1 1.8 1.3 2.8.3.9.3 1.9.4 2.8z" fill="#1b141c" stroke-width="none" opacity="1"></path></g></g></g><g id="svga-group-eyebrows-right-move" transform="matrix(1,0,0,1,0,0)"><g id="svga-group-eyebrows-right-rotate" transform="matrix(1,1.7453292144864463e-9,-1.7453292144864463e-9,1,1.4176202967064455e-7,-2.127084570702209e-7)"><g id="svga-group-eyebrows-right"><path id="SvgjsPath6369" d="M132.4 82.5c-.1-.5-.6-.7-1-1-.3-.2-.7-.5-1-.7 0-.1 0-.2-.1-.3-1.1-1.1-2.9-1.6-4.4-2.1-.8-.8-2.1-.7-3.3-.4-1.4-.5-3.4.2-4.5.9-.1.1-.2.1-.2.2-.1 0-.3.1-.4.1-.8.2-1.4.4-1.9 1-1.2.5-2.4 1.1-3.2 2.1-.6.2-1.2.5-1.7 1-.2.1-.4.2-.5.4h-.2c-.2 0-.4.2-.6.3v-.2c.1-.2-.2-.3-.3-.1-.5.7-.6 1.8-.1 2.5 0 .1.1.3.1.4.3.4.6.5.9.5.6.2 1.2.2 1.7-.2 2-.1 4.2-1.3 5.9-2.3.9-.5 2.5-1.3 3.5-2.3.9-.1 1.8-.3 2.7-.5 1.1-.2 2.3-.2 3.3-.6.2.1.4.1.6.2.5.3 1.1.6 1.6.8.6.3 1.2.6 1.9.6.2.2.5.3.8.3.3-.1.5-.4.4-.6z" fill="#2a232b" stroke-width="none" opacity="1"></path><path id="SvgjsPath6370" d="M114.1 81.1c.1-.2-.1-.3-.2-.2-1.3 1.3-1.8 3.6-1 5.3.1.2.4.1.4-.1.1-.1.1-.2.2-.3.1-.1-.1-.2-.2-.2h-.1c-.1-.7-.2-1.4 0-2.1.1-.7.5-1.5.9-2.4zm-1.8.7c-1.3 1.2-2.6 3.4-1.9 5.3.1.2.4.2.4-.1-.1-2 .9-3.2 1.8-4.9.2-.3-.1-.5-.3-.3zm8-3.4c-3.3.5-5.1 4.2-5.8 7.1-.1.2.2.3.3.1.7-1.2 1.1-2.6 1.9-3.8 1-1.4 2.4-2.2 3.7-3.1.2-.1.1-.3-.1-.3zm2.6-.7c-1.1 1-1.8 2.4-2.8 3.5-1.1 1.2-2.3 2.1-3.6 3-.2.1 0 .4.2.3 2.9-1.3 4.9-3.8 6.7-6.4.3-.3-.2-.6-.5-.4zm2.4.3c-.8.1-1.3.9-1.8 1.5-.4.5-.7 1-1.3 1.3-.5.3-.9.6-1.3 1-.2.2.1.5.3.3.8-.6 1.7-.9 2.4-1.7.3-.3.5-.7.8-1.1.3-.4.7-.6 1-1 .2 0 .1-.3-.1-.3zm5.3 3c-1.5-1.4-4.2-1.4-5.8-.2-.2.1-.1.4.2.4 1.1-.3 2.1-.6 3.3-.4.8.2 1.4.6 2.2.6.2-.1.3-.3.1-.4z" fill="#3a353a" stroke-width="none" opacity="1"></path><path id="SvgjsPath6371" d="M109.5 87.3c2.1.9 4.9-.6 6.8-1.6 2.8-1.5 5.3-3.4 8.5-3.8 3.4-.4 6.7.6 9.3 2.8.4.4 1.1-.3.6-.7-1.9-1.6-3.4-3.6-5.5-4.9-1.9-1.2-4.1-1.8-6.4-1.9-2.4 0-4.7.7-6.9 1.7-2 1-4.8 2.3-6.1 4.2-.1.2.1.5.3.4 1.6-.6 3-1.9 4.5-2.9-1 1.6-1.6 3.6-1.2 5.3l-1.8.6c-1.3.3-2.7 0-2.7-1.6 0-.8.4-1.6.7-2.3 0-.1-.1-.2-.2-.1-1.1 1.4-2 3.9.1 4.8zm22.3-5.1c-1.9-.9-4-1.4-6.2-1.3.1 0 .2-.1.2-.1l.2-.2c.1-.1 0-.3-.1-.2-.1 0-.2.1-.3.1-.1 0-.2.1-.3.2-.2.1-.4.2-.5.3-.2 0-.5.1-.7.1.7-.5 1.4-1 1.8-1.7.1-.1-.1-.3-.2-.2-1.2.8-2.2 1.7-3.4 2.4-.1 0-.2.1-.3.1-.3.1-.6.2-.8.3.2-.2.4-.5.6-.8.6-.8 1.3-1.7 1.7-2.7 0-.1 0-.2-.1-.2 3.3.2 6.1 1.7 8.4 3.9zm-17.4.8c.3-1 .8-1.9 1.3-2.8 2.1-1.1 4.2-1.9 6.6-2h.8c-.7.7-1.2 1.7-1.8 2.5-.4.6-.9 1.2-1.4 1.8-1.5.8-2.9 1.7-4.3 2.5-.5.3-1.1.6-1.6.8.1-.9.1-1.9.4-2.8z" fill="#1b141c" stroke-width="none" opacity="1"></path></g></g></g><g id="svga-group-beardwrap"><g id="svga-group-beard-single-move" transform="matrix(1,0,0,1,0,0)"><g id="svga-group-beard-single"><path id="SvgjsPath8402" d="M144.2 93c-1.2-3.7-2.7-2.1-3.2-.7-.5 1.4-1.7 12.2-2.9 17.1-1.8 7.6-11 16.3-12.6 15.4s1.1-4.9-1.8-7.7c-1.9-1.9-13.8 1.1-23.5 1.2-6.2.1-19.7-4.1-23.8-1.2-2.8 1.9-1.6 6.6-2.1 7.8s-7.8-6.6-9.6-10.8c-1.8-4.3-4.3-19.4-4.6-22.4-.3-3-2.5-2.8-3-1.6-.6 1.4-2.5 6.4-2.9 12.8-.5 7.6-.5 19.6 1.8 28 2.3 8.4 8 13.9 8 13.9l.3-1.4s5.3 8.7 12.6 12.6c7.3 3.9 19.6 6.8 19.6 6.8l-.8-2.1 4 2.7 10.1-2.2-1.6 1.3s9.7-.3 22.2-8.5c5-3.7 8.7-10.7 9.6-13.3l.4 1.8s4.1-11.4 5.1-18.1l.5.7c0-.1 2.8-18.2-1.8-32.1zm-29.1 45.8c-4.1 4.8-27.5 3.5-31.4-1.4-3-3.7-4.4-15.1-1.2-15.4 0 0 32.5-.6 35 .3 2.4.9 1.7 11.8-2.4 16.5z" fill="#2a232b" stroke-width="none" opacity="1"></path><path id="SvgjsPath8403" d="M58.2 89.7c.1-.3-.3-.5-.5-.3-2.7 4.2-3.8 9.6-4 14.5 0 .2.3.3.3 0 .8-4.9 2.5-9.4 4.2-14.2zm-.9 9.3c0-.2-.2-.2-.3 0-1.4 6.2-1 12.9 0 19.2 0 .2.3.1.3 0-.5-6.5-.2-12.7 0-19.2zm.8-5.2c-.2 2.8-.5 5.7-.5 8.5 0 .2.3.3.3.1.4-2.8.5-5.7.6-8.5 0-.3-.4-.3-.4-.1zm1.5 21.2c-.3-3.7-.6-7.4-.5-11.2 0-.4-.5-.4-.6 0-.1 3.8-.1 7.5.6 11.2.2.3.6.2.5 0zm.7 12.2c0 .2.4.2.4-.1-.2-3.6-.5-7.1-.5-10.7 0-.2-.3-.2-.3 0-.3 3.6-.3 7.3.4 10.8zm2.7 6.4c-.6-3.2-1.2-6.4-1.2-9.7 0-.4-.6-.4-.6 0 0 3.3.3 6.7 1.4 9.8.2.2.5.1.4-.1zm-3.4-33.3c-.2-3.8-.2-7.4.2-11.1 0-.2-.3-.2-.3 0-.8 3.7-.9 7.6-.2 11.2 0 .2.3.1.3-.1zm1.4 3.4c-.1-2.9-.4-5.8-.8-8.6 0-.2-.3-.2-.3 0 .2 2.9.3 5.8.7 8.7.1.1.4.1.4-.1zm2.3 10.3c-.4-3-1-6.1-1.4-9.1 0-.2-.4-.2-.4.1.3 3.1.6 6.1 1.4 9.1.1.2.5.1.4-.1zm2.9 5.5c-.8-2.7-1.6-5.3-2.1-8.1-.1-.3-.5-.2-.4.1.5 2.8 1.2 5.5 2.3 8.1 0 .1.2 0 .2-.1zm2.6 4.5c-.7-2.5-1.6-5-2.2-7.5-.1-.3-.6-.2-.5.1.6 2.5 1.3 5.2 2.4 7.5 0 .3.3.1.3-.1zm2.3 3.2c-1.1-2.6-2.3-5.1-3.2-7.9-.1-.2-.4-.1-.4.1.7 2.7 1.6 5.6 3.2 7.9.2.3.5.1.4-.1zm2.1 1.9c-.7-1.9-1.7-3.6-2.3-5.5-.1-.3-.6-.2-.5.1.6 1.9 1.3 4 2.4 5.6.1.2.5.1.4-.2zm12 12.4c-.4-.6-.8-1.3-1.2-1.9 1.2 1.7 2.5 3.3 4.1 4.6.2.2.4-.1.3-.3-1.6-2-3.4-3.8-4.9-5.9-.1-.1-.3-.1-.4-.1-1.8-3.9-2.4-8-3-12.5 0-.3-.5-.3-.5 0 .2 5.7.9 12.1 5.1 16.5.3.1.7-.2.5-.4zm4.1 1.9c1 1.5 2.1 3 3.4 4.2.1.1.3 0 .2-.2-1-1.5-2.2-2.8-3.2-4.3-.1-.2-.5 0-.4.3zm3.7 1.5c-.4-.7-1.1-1.3-1.6-1.9s-.9-1.4-1.3-2.1c-.2-.3-.6 0-.4.3.7 1.4 1.7 3.2 3 4.1.2.1.5-.1.3-.4zm3.5-1.4c.6 3.1 1.2 6.3 2.3 9.3.1.3.4.1.4-.1-.5-3.1-1.4-6.2-2.2-9.3-.1-.4-.6-.3-.5.1zm4.1 10.5c0-1.3-.4-2.5-.7-3.8-.3-1.6-.5-3.3-.7-5 0-.2-.3-.2-.3 0 0 2.8.1 6.3 1.3 8.8.1.2.4.1.4 0zm1.1.4c-.1-2.7-.6-5.3-1-8 0-.3-.5-.2-.5.1.3 2.6.5 5.4 1.1 8 0 .2.4.1.4-.1zm11.8-13.3c-.9 2.6-2.3 5.1-3.2 7.8-.1.2.2.2.3.1 1.6-2.2 2.6-5.1 3.5-7.7 0-.4-.5-.5-.6-.2zm6.8-4.8c-1.3 3.1-2.7 6.2-4 9.4-.1.2.2.3.3.1 1.7-3 3-6.1 4.3-9.3.2-.5-.4-.6-.6-.2zm-31.7 20.9c.1.1.2-.1.2-.2-2.3-2.6-4-5.2-4.4-8.7 0-.2-.4-.2-.3 0 .2 3.3 1.6 6.8 4.5 8.9zm-19.4-13.8c-.3-1.1-.9-2.2-1.4-3.2-.5-1.2-1-2.5-1.3-3.8-.1-.2-.4-.1-.3.1.6 2.3 1.3 5.1 2.8 7 0 .1.2 0 .2-.1zm-2-.3c.1.1.3-.1.2-.2-1.2-1.9-1.9-4.2-2.3-6.4 0-.2-.3-.1-.3.1.2 1.4.5 2.8 1 4.2.4.8.6 1.8 1.4 2.3zm31.5 15.4c-.3-1.2-.9-2.3-1-3.6 0-.2-.4-.2-.4 0 .1 1.2.3 2.8 1.2 3.8.1 0 .2-.1.2-.2zm1.1.2c0-1.1-.4-2.3-.5-3.4 0-.2-.4-.2-.3 0 .1 1.1.1 2.5.6 3.5 0 .1.1 0 .2-.1zm1.7-.8c0-.9-.3-1.8-.4-2.6 0-.2-.4-.2-.4 0 .1.9.1 1.9.5 2.7.1.1.3 0 .3-.1zm4.8 1.4c-1.1.7-2.1 1.6-3.2 2.3-.2.1-1.3.7-2.2 1.1.4-.3.8-.7 1.1-.9.9-.8 1.9-1.6 2.6-2.6.1-.1-.1-.3-.2-.2-.9.7-1.8 1.5-2.7 2.3l-.1.1c1.3-1.5 2.5-3.2 3.4-5 .1-.1-.1-.3-.2-.2-.5.6-1 1.3-1.5 2-.1 0-.2 0-.3.1-.8.7-1.6 1.3-2.3 2l-.1.1c-.1-.1-.1-.2-.2-.4.4-.4.7-.9 1.1-1.3.3-.4-.2-1-.6-.6-.4.5-.8.9-1.2 1.4l-.1.1c-.2.3-.5.5-.7.8-.3-1-.8-2.1-1.2-3-.1-.2-.3-.3-.4-.2-.3-.5-.5-1-.8-1.5-.4-1-.8-1.9-1.1-2.9-.1-.2-.4-.1-.3.1.4 1.6 1 3.4 2 4.8l.8 1.9v.1c-.1-.1-.2-.1-.3-.2-.3-.2-.7.1-.4.4.4.3.8.7 1.2 1 0 0 0 .1.1.1-.3.3-.7.6-1 .9-.2-1-.7-1.9-1.1-2.9-.4-1.1-.6-2.1-.9-3.2-.1-.4-.7-.2-.7.2.1.3.1.6.2 1-.5-.7-1-1.4-1.3-2.2-.5-1-.9-2.1-1.3-3.2-.1-.2-.4-.1-.3.1.6 2 1.3 4.6 3.1 6 .3 1.4.7 2.9 1.4 4.1-.2-.1-.4-.2-.6-.4-.3-.6-.7-1.1-.9-1.7-.5-1-.8-2-1.1-3-.1-.2-.3-.3-.5-.2-.2-.5-.5-1-.7-1.5-.2-.6-.4-1.3-.6-2-.1-.2-.4-.1-.3.1.2 1.2.6 2.6 1.3 3.7v.2c.3 1.1.6 2.4 1.2 3.6 0 0-.1 0-.1-.1-.3-.5-.7-1-1-1.5-.4-.6-.7-1.2-1.1-1.9l.2.2c.1.1.2 0 .2-.1-.2-.7-.7-1.3-1-1.9-.4-.8-.8-1.6-1-2.4-.1-.2-.4-.1-.3.1.2.8.5 1.7.9 2.5-.2 0-.4.2-.3.4l.3.6c-.9-1.5-1.6-3.1-2.3-4.8-.1-.2-.4-.1-.3.1.5 1.3 1 2.6 1.6 3.8.4.9.8 1.8 1.7 2.3.2.5.4.9.7 1.4-.4-.2-.8-.5-1.1-.8-.1 0-.1-.1-.2 0-.2-.3-.4-.6-.6-1v-.1c-.5-1.1-1.2-2.1-1.8-3.1-.6-1-1.1-2.1-1.6-3.2-.1-.2-.4-.1-.3.1.7 1.8 1.5 3.9 2.8 5.4-.1.1-.1.2 0 .3.6 1.1 1.2 2.1 1.9 3.1-3.1-2.8-6-5.6-8.4-9.2-.2-.3-.7 0-.5.3 2 3.3 4.6 6.6 7.8 8.9-.4-.2-.8-.3-1.2-.5-3.3-3.2-6.5-6.2-9.2-10-.3-.4-.9 0-.6.4 2 3.1 4.5 6.3 7.4 8.7-.1-.1-.2-.1-.4-.1-2.1-1.7-4.1-3.2-5.8-5.1.1-.1.1-.2 0-.3-.8-1.1-1.6-2.2-2.5-3.3-.1-.1-.1-.2-.2-.4 0-.1-.1-.1-.2-.1-.7-.8-1.3-1.7-1.9-2.5.4.5.8.9 1.2 1.4l.9 1.2c.1.1.2 0 .2-.1l.2.2c.2.2.6-.1.4-.3-3.2-4.4-6.4-8.7-8.5-13.9-.1-.3-.7-.2-.6.1.4 1.1.8 2.1 1.2 3.1-.2-.2-.6 0-.5.3.2.6.4 1.2.7 1.8 0 0 0-.1-.1-.1-.1-.3-.6-.1-.5.2 1.1 2.6 2.4 5.1 3.9 7.5-1.3-1.9-2.5-4-3.4-6.2-.1-.3-.7-.1-.6.2 2 5 4.8 10 9.1 13.5.1.1.3.1.3 0 .6.7 1.2 1.3 1.9 1.9-.3-.1-.6-.3-1-.5-1.7-1.6-3.4-3.1-4.9-4.9-.1-.1-.1-.1-.2-.1-2.1-2.6-4.1-5.3-5.5-8.4-.2-.4-.8-.1-.6.4 1.5 3.4 3.4 6.8 6.2 9.3.4.4.9.9 1.3 1.2.4.4.8.9 1.2 1.3-1-.5-1.9-1.1-2.8-1.8-1-1.6-2.3-3-3.3-4.6-1.1-1.6-2-3.2-2.9-4.9-.2-.5-.9-.1-.7.4 1 2.1 2.2 4.5 3.8 6.5l-.5-.5h-.1c-1.6-2.4-3.3-4.8-4.7-7.4-.1-.1-.2-.1-.3-.1-.2-.5-.4-1-.7-1.5-.1-.1-.3-.1-.2.1.2.6.5 1.2.7 1.8 0 .1.1.2.1.3.5 1.2 1.1 2.3 1.7 3.4.7 1.3 1.5 2.6 2.3 3.8-.6-.5-1.1-1-1.6-1.6v-.1c-1.2-2.2-2.5-4.2-3.6-6.4-.8-2.4-1.6-4.7-2.1-7.2 0-.3-.5-.2-.5.1.2 1.2.5 2.4.8 3.6-.2-.1-.5.1-.4.4.4 1.2.8 2.4 1.3 3.5-.1-.2-.2-.4-.4-.7-.1-.2-.2-.4-.2-.6-.6-1.6-1.1-3.4-1.6-5 0-.1-.1-.1-.1-.2-.6-2.4-1.1-4.7-1.3-7.2 0-.3-.5-.3-.4 0 .2 2.5.5 5.1 1.2 7.5.5 1.8.9 3.8 1.6 5.6-.1-.1-.1-.2-.2-.3-.3-1-.7-2.1-1-3.1-.4-1.3-.8-2.7-1.1-4 0-.1-.1-.2-.2-.2-.2-2.2-.7-4.4-.8-6.7 0-.2-.3-.2-.3 0 0 1.3 0 2.6.2 4-.3-2-.6-4-.5-6.1 0-.2-.3-.2-.3 0-.1 1.8-.2 3.8.2 5.7-1.1-2.2-.9-5.3-1.2-7.7 0-.2-.3-.2-.3 0 .1 1.7.2 3.3.3 5-.2-.3-.7-.2-.7.2-.3-1.1-.2-2.7-.3-3.6 0-1.3 0-2.6.1-3.8 0-.2-.3-.2-.3 0-.2 2-.3 3.9-.1 5.9.1.7 0 1.8.6 2.3v1.7c-.3-1.4-.6-2.8-.8-4.2l.1-.1c-.5-2.9-.5-5.5-.3-8.4 0-.2-.2-.2-.3 0-.2 1.9-.5 4-.3 6v1.8c-.7-5.7-1-11.3-.8-17.1 0-.2-.3-.2-.4 0-.7 7.2-.3 14.6 1.4 21.7 0 .2.2.2.3.1.7 3.9 1.9 7.7 4 10.9.1.1.4.1.3-.1-.5-1.4-1-2.8-1.4-4.2.1 0 .1-.1.1-.2-.3-.9-.5-1.8-.6-2.6.3.9.7 1.8 1.1 2.7.1.2.1.5.2.8 0 .1.1.1.2.1.7 1.4 1.5 2.8 2.3 4.1.1.2.2.3.3.5 0 .1.1.1.2.1.6.8 1.2 1.5 1.9 2.2.2.4.5.7.8 1.1.1.1.3.1.3-.1 2.3 3.5 5.3 6.6 9.4 7.9h.2c3.5 2.5 7.6 4.1 11.8 5.2.2.1.3-.2.1-.3-1-.4-1.9-.9-2.9-1.3-.2-.2-.4-.3-.6-.5 2.8 1.6 5.9 2.8 8.9 3.8.2.2.4.4.7.5.3.1.5-.2.3-.4 0-.1 0-.2-.1-.2-.1-.1-.2-.1-.2-.2-.6-.6-1.1-1.3-1.6-2l1.2.9c.4.6 1 1.1 1.6 1.5.2.1.4-.1.3-.3-.1-.1-.1-.2-.2-.3.2.2.3.4.5.6.2.2.5.1.6-.1.2.1.4.1.6.2l-.4.4c-.2.3.1.7.4.5.9-.4 1.7-1.1 2.4-1.9.1.1.1.1.2.1h.1c-.2.2-.4.4-.6.7-.2.2.1.5.4.4.8-.4 1.4-1 2-1.6-.1.2-.2.3-.4.5-.1.2 0 .4.1.4-.6.4-1.2.9-1.6 1.5 0 .1 0 .1.1.1h.1c0 .1.1.1.1.1.9.3 2.6-.9 3.3-1.3 1.3-.8 2.7-1.7 3.7-2.9 0-.1-.2-.3-.3-.2zM60 137.2c-.2-1.3-.5-2.6-.7-3.9 0-.3-.5-.2-.5.1.1.5.2 1 .2 1.6-.3-.8-.6-1.6-.9-2.5 0-.1 0-.1-.1-.1v-1.8c.1 1 .2 1.9 1 2.5h.2c.1.4.2.9.4 1.3.1.2.4.2.3-.1 0-.2 0-.4-.1-.6.1.7.2 1.3.5 1.9-.1.1-.1.2-.1.3.2 1 .4 2.1.7 3.2-.2-.5-.5-1.2-.9-1.9zm39.4 24.1c-.1-.1-.1-.2-.2-.2.2-.3.5-.5.7-.8.1.1.2.2.2.3-.2.2-.4.5-.7.7zm25.6-8.9c2.1-2 3.3-5.1 4-7.8.1-.3-.3-.4-.4-.1-.8 2.9-2.2 5.2-3.8 7.8-.1 0 .1.2.2.1zm4.2-4.3c-2 3.1-4.3 5.8-6.7 8.4-.3.1-.5.3-.8.4 1.1-1.3 2.1-2.7 3-4 .2-.3-.2-.6-.4-.3-1.6 2.2-3.6 4-5.5 5.9-.3.1-.6.3-.9.4l.2-.2c1.1-.8 2.1-1.7 3.1-2.6.3-.3-.1-.8-.5-.5-.2.2-.5.4-.7.6.2-.3.4-.6.6-1 0 .1.1.1.2.1 2.7-1.5 4.6-4.6 5.6-7.5.1-.2-.3-.3-.4-.1-1.2 2.9-3.1 4.9-5.2 7.1.1-.2.3-.4.4-.6.1-.1 0-.3-.1-.4.4-.7.8-1.4 1.1-2.1.1-.2-.2-.3-.3-.1-.8 1.7-1.9 3.1-3.2 4.4.1-.1.1-.2.2-.4.6-1.2 1.2-2.3 1.9-3.5.2-.4-.3-.7-.5-.4-1.1 2-2.6 4.2-3.2 6.4v.1c-.1 0-.1-.1-.2-.1 0-.1-.1-.2-.1-.3 1.1-1.8 1.8-3.9 2.4-6 .8-.9 1.5-1.9 1.7-3.1 0-.1-.2-.2-.2-.1-.3.5-.6 1.1-.9 1.7-.1.2-.2.4-.4.6 0-.1.1-.2.1-.3.1-.4-.5-.6-.6-.2-.7 2.7-1.8 5.1-3.1 7.5-1 .7-2.1 1.4-3.1 2 1.6-1.3 3-3.1 4.1-4.8.2-.2-.2-.5-.3-.2-.7 1-1.6 2-2.4 2.9-.2.1-.5.2-.7.4.4-.4.8-.9 1.2-1.3.3-.4-.3-.8-.6-.4-1.1 1.2-2.3 2.3-3.6 3.3l-1.2.6c-.2.1-.2.2-.1.3-1 .6-2.1 1.2-3 1.9-.2.1 0 .5.2.4 1.9-.5 3.8-1.7 5.4-3.2l1.2-.6c-.2.2-.3.4-.5.6-.2.2.1.4.3.3-.9.6-1.8 1.1-2.7 1.7l-.1.1c-.1.2.1.5.3.4 1.2-.4 2.4-.9 3.6-1.5 0 .2.2.4.3.3.5-.3 1.1-.6 1.6-1 .1.1.2.1.4.1.4-.3.8-.6 1.2-1 0 .1.1.2.3.1-.3.3-.7.6-1 1-.2.2 0 .6.3.4.6-.4 1.2-.8 1.8-1.3 0 .2.2.4.5.3.1 0 .1-.1.2-.1-.1.1-.2.2-.3.4-.2.2.1.4.3.3.6-.4 1.2-.9 1.8-1.4 3.3-1.6 6.2-4 7.9-7.1.2-.3-.2-.6-.5-.3-1.4 1.7-2.9 3.2-4.4 4.5 2.1-2.4 3.9-5.2 5.4-7.8.2-.1-.2-.4-.4-.1zm-8.7 10.5c-.3.2-.7.3-1.1.5.3-.3.6-.5.9-.8.3-.1.6-.3.8-.4-.1.2-.3.5-.6.7zm-15.9-.5c1.3-2 2.7-3.9 3.8-6 .1-.1-.1-.2-.2-.1-1.6 1.7-2.9 3.8-4.1 5.9-.1.2.3.5.5.2zm1.3-.5c1-1.2 2.2-2.4 3-3.8.1-.1-.1-.2-.2-.1-1.2 1.1-2.1 2.5-3.1 3.7 0 .1.2.4.3.2zm1.4-.2c1.2-.8 2.5-1.8 3.1-3.1.1-.1-.1-.2-.2-.1-.5.5-.9 1-1.4 1.5-.5.5-1.1 1-1.7 1.5 0 .1.1.3.2.2zm9.9-6c-1 1.1-1.8 2.3-3 3.2-.2.1.1.4.2.3 1.2-.9 2.4-2 3-3.4.1-.1-.1-.2-.2-.1zm-2.4.9c-1.1 1.1-2.1 2.5-3.1 3.7-.1.2.1.4.2.2 1.1-1.2 2.2-2.4 3-3.8.1-.1 0-.2-.1-.1zm-2.6 1.1c-1 1.2-1.8 2.5-3.1 3.5-.2.1.1.4.2.2 1.2-.9 2.4-2.2 3-3.6.1-.1-.1-.2-.1-.1zm-1.5 2.6c-.9 1.6-2.4 2.7-3.6 4-1.2.8-2.4 1.6-3.4 2.6-.2.1 0 .4.2.4 2.1-.9 3.8-2.4 5.6-3.8.3-.2.1-.6-.2-.6.7-.7 1.4-1.5 1.8-2.5-.1-.2-.4-.2-.4-.1zm21.2-9.8c1.6-2.7 1.8-6 1.9-9 0-.3-.4-.3-.4 0-.3 3.1-.7 6-1.7 8.9-.1.1.1.2.2.1zm-3.2 2.8c1.4-2 2.2-4.6 2.7-6.9.1-.2-.3-.3-.3-.1-.6 2.4-1.6 4.6-2.6 6.9-.1.2.2.2.2.1zm11-14.7c-.7 3.2-1.7 6.2-2.8 9.2-.1 0-.2.1-.2.2-1.5 3.2-3 6.1-5.2 8.8 1.9-3.5 3.5-7.2 4.7-11.1.1-.4-.4-.6-.6-.2-.9 2.5-2 4.9-3.1 7.3-.1 0-.1 0-.2.1-2.2 3.7-4.9 6.7-8.2 9.4-.2.2 0 .6.3.4 2.4-1.3 4.5-3.3 6.1-5.5-.2.4-.4.9-.6 1.4-.2.3-.3.7-.5 1-.1.2.2.4.4.2.2-.3.4-.6.5-.9 1.5-1.3 2.9-2.8 4.1-4.5.1.1.3.2.4 0 2.7-4.8 4.4-10.1 5.5-15.5 0-.5-.5-.6-.6-.3zm-21.3-16.2c1.8 2.6 1.6 5.9 2.2 8.9 0 .2.3.1.3 0 .2-2.9-.5-6.6-2.2-9.1-.2-.1-.4 0-.3.2zm2.3.3c.9 4.7.7 9.2.9 13.8 0 .2.3.2.3 0 .5-4.6.3-9.5-.9-13.9 0-.2-.3-.1-.3.1zm2.1 28.9c-.8 1.1-1.3 2.3-2.1 3.3-.1.1.1.3.3.2.8-1 1.7-2.2 2-3.4.1-.1-.1-.2-.2-.1zm2.3-1.4c-.8 1.2-1.3 2.4-2.3 3.5-.2.2.1.4.3.3 1-1 2-2.3 2.3-3.6 0-.3-.2-.4-.3-.2zm-1.8-28.5c.2 0 .3-.1.3-.3.9 2.4.9 5 .6 7.6-.1-2-.5-4-1.1-5.9-.1-.2-.3-.1-.3.1.7 2.9.9 5.8 1 8.7-.2 1.3-.3 2.6-.4 3.9 0 .3.4.3.4.1 1.2-4.6 2.1-10.4 0-14.9-.1-.2-.4-.1-.4.2l-.1-.1c-4.7-1.1-9.3.1-14 .9-7.3 1.3-14-.1-21.2-1.1-.1 0-.2.2-.1.2 5.6 1.3 11 3.1 16.8 2.7 1.2-.1 2.5-.2 3.7-.4 1 0 1.8.8 2.6 1.5-3.1-.1-6.3.1-9.4.5-.1-.1-.2-.2-.4-.2-1.9.3-3.8.4-5.6.5.2-.3.5-.5.6-.9.1-.1-.1-.2-.2-.1-.3.2-.5.5-.7.8v.2c-.6 0-1.2 0-1.8.1.2-.4.4-.9.7-1.3.3-.4.7-.7 1.1-1.1.1-.1 0-.3-.1-.2-1.1.3-1.8 1.5-2.1 2.6-1.9 0-3.8-.1-5.7-.2.7-1.4 2.6-1.9 3.8-2.6.1-.1.1-.2-.1-.2-1.5.1-3.6 1.2-4.2 2.8h-.6c-.4 0-.9-.1-1.3-.1 1-1.1 2.4-1.5 3.6-2.2.1-.1 0-.2-.1-.2-1.5.3-3.1 1.1-4 2.4-.5 0-.9 0-1.4.1.3-.6.7-1.2 1.1-1.7.6-.6 1.3-.9 2-1.4.1-.1 0-.2-.1-.2-1.6.3-2.9 1.8-3.4 3.3-.7.1-1.3.4-1.9.8.2-1.9 2.1-3.4 3.3-4.8.1-.1 0-.3-.2-.2-1.7.8-3.7 3.2-3.5 5.3l-.6.6c-.1.2.1.4.3.2.1-.1.3-.2.4-.3 0 .1 0 .1.1.2.1.2.4.1.3-.1 0-.1 0-.2-.1-.3 1-.6 2.2-.8 3.4-.8.1.1.1.1.2 0 2.8-.1 6 .8 8.4.9 2.4.1 4.9.1 7.2-.8 5.8.4 14.9-2.1 18.5 3.1.1.1.2.2.3.1 0 .7.1 1.3.1 2-1.2 6-3.1 11.5-6.2 17-.1.2.2.4.4.2 2.3-3.3 4.2-7 5.3-10.9-.3 1.7-.8 3.4-1.3 5 0 .1 0 .3.2.3-1.4 3.3-3.1 6.4-5.1 9.6-.1.2.2.4.3.2 4.3-5.5 7-12.4 8.4-19.2.1-.3-.4-.5-.5-.1-.2.7-.3 1.4-.5 2 .3-2.1.3-4.1 0-6.1v-.3c0-.1-.1-.2-.1-.2-.1-.5-.2-1.1-.4-1.6 0-.1-.2-.2-.3-.2-.5-1.9-1.7-3.8-3-5.3 2.5 0 4.8-.3 7.1-.2zm-9.4 3.3c-.6-.8-1.6-1.5-2.5-2-.2-.1-.4.2-.2.3.6.3 1.1.7 1.6 1.2l.5.5c-.5 0-1 0-1.5-.1-.4-.4-.8-.7-1.2-1.1l-.9-.6 3.9-.6c1.4.7 2.3 1.8 3.2 3.1-1-.4-1.9-.6-2.9-.7zm5.2 3.5c-.4-1.2-1.2-2.1-2.2-2.6v-.1c-.4-1.4-1.6-2.6-2.9-3.2.7-.1 1.3-.2 2-.3v.1c1.6 1.8 2.3 3.8 3.1 6.1zm6.8 7.9c.8-1.7 1.2-3.6 1.3-5.4 0-.2-.4-.2-.4 0-.2 1.8-.7 3.6-1.2 5.3 0 .2.2.3.3.1zm19.5-28.4c.1-4.5-.9-9-2.5-13.2-.1-.3-.6-.1-.5.2 1.3 4.3 2 8.6 2.5 13.1 0 .3.5.2.5-.1zm-.4-9c-.1-.3-.5-.2-.5.1 1.1 6.2 1.7 12.3 2.1 18.5 0 .2.3.2.3 0 .4-6.3-.4-12.5-1.9-18.6zm1 18.8c-1 7.9-2.5 15.5-4 23.3 0 .2.3.3.3.1 2.7-7.3 4-15.5 4.2-23.3 0-.3-.4-.4-.5-.1zm-6 20.2c.1.2.3.1.3-.1 0-.9-.2-1.8-.4-2.6-.2-1-.3-2-.5-3-.1-.2-.4-.2-.4.1.1.9.2 1.9.4 2.8.1 1 .2 2 .6 2.8zm.9-1.5c.3-1.5-.1-3.1-.4-4.6-.1-.2-.4-.1-.3.1.3 1.5.2 2.9.4 4.4 0 .3.3.4.3.1zm2.3-15c.2.8.3 1.6.4 2.4.1.6 0 1.3.2 1.9 0 .1.2.1.2 0 .4-1.3-.2-3.2-.6-4.4.1-.2-.2-.2-.2.1zm.5-1.1c.4 1.2.4 2.7 1 3.9.1.1.2.1.2-.1.1-1.3-.6-2.7-1-3.9 0-.2-.3-.1-.2.1zm2.3-7.6c.2-1.6-.3-3.4-.7-4.9-.1-.2-.4-.1-.3.1.4 1.6.4 3.3.8 4.9-.1.1.1 0 .2-.1zm-1.7-1.3c.6 2.9.8 5.8 1.3 8.8 0 .2.3.1.3 0 .1-2.9-.6-6-1.3-8.8-.1-.3-.3-.2-.3 0zm-1.2.8c.7 3.3 1.3 6.8 2.1 10.1.1.2.4.2.4-.1-.4-3.4-1.3-6.8-2.1-10.1-.1-.2-.4-.1-.4.1zm1.9-2.2c-.1-.2-.4-.1-.3.1.5 2.3.7 4.7 1.3 7 0 .2.3.1.3 0 0-2.4-.7-4.8-1.3-7.1zm-2.8 15.8c.1.7.2 1.5.3 2.2.1.6.1 1.3.3 1.9.1.2.3.1.3 0 .1-1.3-.3-2.9-.6-4.2 0-.2-.3-.1-.3.1zm.7-2.4c.1.8.2 1.7.2 2.5 0 .6 0 1.3.1 1.9 0 .2.2.1.3 0 .4-1.4 0-3.2-.3-4.6-.1 0-.3.1-.3.2zm-.6 6.7c-.7 5.8-1.8 11.4-3.1 17.1-.1.3.3.4.4.1 1.9-5.5 2.9-11.3 3.2-17.2-.1-.2-.5-.2-.5 0zm-11.5 1.4c.1-1.4 0-2.9 0-4.4 0-.2-.3-.2-.3 0 0 1.4-.1 2.9 0 4.4 0 .2.3.2.3 0zm-52.1-2.6c-.4-2.2.8-3.9 1.8-5.8.1-.1-.1-.3-.2-.2-1.4 1.7-2.5 3.8-1.8 6-.1.2.2.2.2 0zm-.2 6.8c.1.1.3.1.3-.1-1.1-3.3-1.9-6.6-2.1-10.1 0-.3-.4-.3-.4 0 .1 3.5.8 6.9 2.2 10.2zm3.9 16.9c-2-3.6-4.3-7.9-5.8-12.4 0 0 .1-.1 0-.2-.6-2.3-1.3-4.5-1.8-6.9-.3-1.9-.3-3.9-.1-5.8.2 4.8 1.4 9.4 3.7 13.8.1.2.4 0 .3-.2-2.3-5-3.5-10.2-3.6-15.7.3-1.1.6-2.1 1.1-3.2.1-.2-.2-.4-.3-.2-1.6 2.7-2.2 5.8-2.3 9.1-.3-.6-.6-1.2-.8-1.8-.1-.2-.4 0-.3.2.4.9.8 2 1.2 2.9.2 3.2.9 6.4 2 9.5-.3-.8-.7-1.5-1-2.3-.1-.2-.5-.1-.4.1 1.7 4.4 3.8 8.7 6.8 12.3.1.1.1.1.2 0 .2.3.5.6.7.9.2.5.5.2.4-.1zm59.5-47.5c.1-1.8-.1-3.6-.2-5.4 0-.2-.4-.2-.3 0 .2 1.8.2 3.6.3 5.4 0 .1.2.1.2 0zm-2.4 19.8c.4-4.2.3-8.4.2-12.6 0-.3-.5-.3-.5 0 0 4.2-.1 8.4 0 12.6-.1.2.2.2.3 0zm-1.6 2.1c.4-3.9.2-8.1-.1-12 0-.2-.3-.2-.4 0-.2 3.9-.5 8.1-.1 12 .2.3.6.3.6 0zm-2.3 2.7c.4-3.2.3-6.5.4-9.8 0-.2-.3-.2-.3 0-.2 3.2-.6 6.5-.5 9.8-.1.3.3.3.4 0zm-2.4-.3c.3-1.4.4-2.9.6-4.4 0-.3-.4-.3-.4 0-.2 1.4-.4 2.9-.5 4.4 0 .1.2.2.3 0zm5 7.2c0-.2-.3-.2-.3 0 0 2.5-.6 4.7-1 7.1 0 .1.1.2.2.1 1-2.2 1.1-4.8 1.1-7.2zm-2.9 4.8c-.2 1.3-.5 2.6-.9 3.9-.4 1.1-.9 2.1-1.3 3.3 0 .1.1.2.2.1 1.6-1.9 2.1-4.9 2.4-7.3 0-.3-.3-.2-.4 0zm1.2-1.7c-.1.9-.3 1.9-.5 2.8-.2.7-.4 1.4-.4 2.2 0 .1.2.2.2.1.8-1.4.9-3.5 1-5.1.1-.2-.3-.2-.3 0z" fill="#1b141c" stroke-width="none" opacity="1"></path></g></g></g><g id="svga-group-mustache-single-move" transform="matrix(1,0,0,1,0,0)"><g id="svga-group-mustache-single"></g></g><g id="svga-group-nose-single-move" transform="matrix(1,0,0,1,0,0)"><g id="svga-group-nose-single"><path id="SvgjsPath5104" d="M105.53 106.38c.26.82 3.73 4.55 3.79 6.57.06 2.02-2.08 4.04-4.74 2.21 0 0-2.46 1.89-4.74 1.64s-3.54-1.83-3.54-1.83-2.15.82-3.98.19c-1.83-.63-2.27-2.84-.95-4.86 1.33-2.02 3.6-5.49 4.1-7.45.52-1.96 7.09-5.62 10.06 3.53z" fill="#f0c7b1" stroke-width="none" opacity="1" transform="translate(0 1)" stroke="none"></path><path id="SvgjsPath5105" d="M105.49 105.94c-.16-.2-.5.06-.36.28.93 1.43 1.95 2.83 2.81 4.31.59 1 1.18 2.25.77 3.46-.67 1.98-2.42 1.87-3.83 1.11.53-.68.84-1.48.77-2.36-.02-.22-.32-.41-.48-.2-1.4 1.76-2.29 3.6-4.89 3.7-2.75.11-4.52-2.12-5.25-4.51-.06-.21-.35-.16-.36.05-.07 1.1.27 2.16.87 3.06-.4.07-.8.15-1.2.17-1.28.08-1.49-.02-2.33-1.09-.89-1.12-.89-1.4-.4-2.65.23-.58.58-1.08.91-1.61 1.08-1.68 2.04-3.39 2.75-5.26 1.43-3.73 2.05-7.86 1.36-11.81-.03-.17-.29-.12-.29.04-.01 3.2-.21 6.36-1.15 9.44-.97 3.19-2.81 5.59-4.34 8.46-.8 1.49-1.13 3.46.23 4.74 1.35 1.28 3.43.87 5.01.27.94 1.02 2.24 1.72 3.61 1.85 1.55.14 3.58-.61 4.83-1.88 1.45 1.61 4.23.86 4.96-1.19 1.09-3.12-2.3-6.24-4-8.38z" fill="#c27b55" stroke-width="none" opacity="1" transform="translate(0 1)" stroke="none"></path><path id="SvgjsPath5106" d="M102.24 108.78c-.89-.83-2.3-1.07-3.3-.3-.36.28-.58.63-.67 1-.17.06-.34.16-.48.3-.76.74-.44 1.9.21 2.59.55.59 1.45.87 2.24.83.97-.05 1.85-.51 2.39-1.33.63-.95.44-2.31-.39-3.09z" fill="#f8d5c3" stroke-width="none" opacity="1" transform="translate(0 1)" stroke="none"></path></g></g><g id="svga-group-hair-front"><path id="SvgjsPath7987" d="M135.8 66.3c-1 3.3-1 5.1-.9 7.6.1 2.4-1 5.1 1.1 4.8 2.1-.3 4.4-.7 5.7-4.2 1.3-3.5 3-8.2 2.9-10-.1-1.8-3.7-9-3.7-9l-3.3 7.8-1.8 3z" fill="#221b23" stroke-width="none" opacity="1"></path><path id="SvgjsPath7988" d="M143.8 74c.4-3.6 1-8.5.2-9.3-.8-.8-5.6 2.2-6 4.8s-.4 7.5-.4 7.5c-.7 2.7-.8 4-.7 5.8.1 1.8-1 3.9.7 3.6.1 0 .2 0 .2-.1-.3 2.3-.1 3.8.2 5.4.3 2.2-.7 4.5 1 4.6s2.7-.6 3.5-3.8c.8-3.2 1.3-6.4 1.4-9.5.1-2.5.2-6.3-.2-8.4.1-.2.1-.4.1-.6zm-81.6 6.8c-.5-1.6-.3-4-1-5.3s-3.5-6.4-3.5-6.4c-.9 1.8-2.3 3.9-2.3 7.1 0 2.7-.4 4.6.2 6.2-.1 1.2-.1 2.4 0 3.1.2 1.1 1.8 8.1 3.4 9.1 1.4.8 2.4-2.9 2.2-6.2 1.6-2.9 1.5-6.1 1-7.6z" fill="#1b141c" stroke-width="none" opacity="1"></path><path id="SvgjsPath7989" d="M59.3 61c-.9.8-2.3 3.2-2.7 5.7s-.4 5 .1 6.2c.6 1.1 3.6 7.3 5.6 6.3 2-1 1.3-3 1.1-6.2s.1-3.7-.7-6.4c-.8-2.8-3.4-5.6-3.4-5.6zm8.9-37.1c-.7-2.5 3 1.4 2.9 7.5-.1 6.2 1 10.6 3.8 13 2.8 2.4 13.2 11.2 13.2 11.2s-2.4.7-7.2-.7-11-3.5-14.2-7.6-2.3-10.2-.9-13.2c1.4-2.9 3.3-6.9 2.4-10.2zm51.4 32c2.2-.6 5.8-1.7 7.5-.6 1.6 1.1 1.7 4.7 5.3 4.6 3.6-.1 6.8-6.5 6.5-9.4-.2-2.9-2.4-7.8-5.9-9.1-3.5-1.3-3.1 2.6-3.5 4.1-.4 1.5.1 2.5-3.5 5.1-3.5 2.7-6.4 5.3-6.4 5.3z" fill="#221b23" stroke-width="none" opacity="1"></path><path id="SvgjsPath7990" d="M131.3 58.4c-.2 1.1-.4 4.4 1.1 6.4s.6 4.3 3.8 3.1c3.2-1.2 6.9-5.4 6.6-8.5-.2-3.1-2.7-10.6-5.3-12-2.7-1.3-2.9 4.6-2.9 4.6l-3.3 6.4zM66.4 40c-1.8 2.1-4.9 2.8-4.2 6.5s5.4 7.7 9.8 8.3 7.7-.1 8.3-.6-9.6-6.2-9.6-6.2l-4.3-8z" fill="#2a232b" stroke-width="none" opacity="1"></path><path id="SvgjsPath7991" d="M62.8 45.5c-1.2 1-2.4 1.5-2.8 4.4-.4 2.9-.5 3.4 1.2 6.7 1.8 3.3 2 5.3 4.6 4.7 2.6-.6 5.5-2.9 5.2-6.5s-2.7-1.3-3.9-4.5-2.1-3.9-2.1-3.9l-2.2-.9z" fill="#221b23" stroke-width="none" opacity="1"></path><path id="SvgjsPath7992" d="M60.9 52.2c-1.2 1.6-2.6 1.9-2.9 4.9s-1.3 2.9.7 6.4c2 3.5 4 7.7 5.9 5.7s1.6-3 1.9-5.4c.3-2.4-.6-4.9-1.7-7-1.2-2.2-3.9-4.6-3.9-4.6zm34.5 5s-6.4 0-10.1-1.8c-3.7-1.8-11.6-8.7-13.2-13.6s.4-14.4-.8-18.9c0 0 1.5 3.8 2.9 5.8s4.4 2 9.2 4.8 9.1 8.5 9.8 12.8 2.2 10.9 2.2 10.9z" fill="#1b141c" stroke-width="none" opacity="1"></path><path id="SvgjsPath7993" d="M73.7 18.1c-.1-.5-2 6.7 2 10.6S85.9 37 87.2 42.2s.9 6.1 2.3 9.3 3.2 6.4 5.8 7.6c2.6 1.2 7.4-.2 7.4-1s4.1 3.5 6.8 2.2c2.7-1.3 10.3-10.6 11.4-17.2s-2.4-13.6-6.8-14.7-21.6-2.4-25.2-4.3c-3.6-1.9-5.2-3.7-5.6-5.1 0 0-.3 3.4 3 7.4S96 33 96 33s4.7 1.2 5.3 5c0 0-8.2-6.4-15-8.9s-10-.9-12.6-11z" fill="#221b23" stroke-width="none" opacity="1"></path><path id="SvgjsPath7994" d="M104.5 60.4s-4.2.3-5.8-4.5S98 42 95.1 37.1s-13.9-7.4-16.7-10.3c-2.7-2.9-3.8-9.3-3.8-9.3s2.7 7.9 6.7 8.4c3.9.5 17.3 4.9 21.7 6.9s9.1 10.3 8.2 15.5-2.5 12.6-6.7 12.1z" fill="#2a232b" stroke-width="none" opacity="1"></path><path id="SvgjsPath7995" d="M110.6 26.7c.6 0 10.8 2.9 15.9 4.5s17 10.3 4.4 17.8-8 8.8-20.3 10.9c-3.4.6 3.6-5.6 6.3-11 2.7-5.4 2.5-14.6 1-16.6s-7.3-5.6-7.3-5.6z" fill="#1b141c" stroke-width="none" opacity="1"></path><path id="SvgjsPath7996" d="M96.3 58.9c-3.5-3-5.5-6.7-6.4-11.2-.6-3.2-.3-6.8-1.7-9.7-.9-1.8-2.2-3-3.8-4.1-4.4-3.1-7.9-5-9.8-10.5-.1-.2-.4-.1-.3.1.8 3 2.2 5.6 4.6 7.6 4.2 3.7 8.6 4.8 9.5 11.3.8 6.3 1.6 13.5 7.9 16.8-.1 0 .1-.2 0-.3zm2.5-.6c-6.1-2.7-8.2-8.4-8.7-14.6 0-.2-.3-.2-.3 0-.2 6.2 2.7 12.8 8.9 14.9.2 0 .3-.2.1-.3zm3.5.5c-3.5-4-4.4-8.4-4.3-13.6.1-2.9.5-5.9-1.2-8.5-1.4-2.2-3.7-3.1-5.9-4.2-3.7-1.8-7.3-3.6-11-5.1-.1 0-.2.1-.1.2 3.5 2 7.2 3.7 10.8 5.5 2.8 1.4 5.2 2.4 6.3 6 .6 1.9.2 4.2.2 6.1-.2 5.5 1.1 9.9 5 13.8.1.2.4-.1.2-.2zm3.6-.3c-3.7-3.2-1.6-6.9-1.5-11 0-2.6-.7-4.9-2-7.1-.1-.2-.3 0-.2.1 1.1 2.4 1.7 4.9 1.6 7.5-.1 1.8-.8 3.5-.8 5.3-.1 2.3 1 4 2.8 5.3.1.2.2 0 .1-.1zm18.3-25.6c-.2-.1-.3.2-.1.3.8.3 1.6.5 2.4.8v.1c7.6 6.6-2.7 14.6-7.7 18.1-.2.1 0 .4.2.3 5.3-2.8 16-12.5 8.1-18.3 3.1 1.3 3.8 2 4.7 5.5.8 3.2.4 4.9-2 7.4-1.3 1.4-3.1 2.4-4.8 3.4-4.2 2.5-7.9 5.8-12.2 8.2-.1 0 0 .2.1.1 4.4-2 8.1-5.5 12.3-8 2.8-1.7 5.7-3.5 7.1-6.5 3-6.4-2.7-10-8.1-11.4zm-10.5-3.3c-.1 0-.2.2 0 .2 4.6 1 9.8 2.1 10.5 7.7.5 4-2.1 7.8-4.8 10.4-3.5 3.3-7.4 5.9-8.2 11-.1.4.5.6.6.2 1.5-8.6 12.7-10.9 13.2-20.3.4-6.8-5.6-8.8-11.3-9.2zm-1.1 8.2c-4.2-9.5-17.4-8.6-24.7-14.5-.1-.1-.3.1-.2.2 7.2 6.7 18.9 5.6 24.3 14.6.3.3.8 0 .6-.3zm25.8 14.3c-.1-.2-.4-.2-.4 0 .1 5.3-6.3 8.5-4.5 14 .1.2.4.1.3-.1-1.3-5.4 5.8-8.4 4.6-13.9zm3.1 7.4c0-.2-.3-.2-.4 0-.6 1.8-1 3.6-1.9 5.3-.8 1.4-1.9 2.5-2.6 3.9-1 2-1.1 4-.5 6.1.1.2.4.1.3-.1-.6-4 1.4-5.9 3.3-9.1 1.1-1.9 1.6-4 1.8-6.1zm.7 2c0-.3-.4-.2-.5.1-.2 2.2-.4 4.1-1.2 6.1-.1.2.2.4.3.2 1-1.9 1.7-4.2 1.4-6.4zm0 11.7c0-.2-.3-.2-.4-.1-.6 3-1.6 5.7-2.5 8.6-.6 1.9-.8 3.6 0 5.4.1.3.6.1.5-.2-1-2.8.3-5.1 1.2-7.7.8-1.9 1.2-3.9 1.2-6zm-.2 8c-.5 1.1-.6 2.5-.6 3.7 0 .2.4.2.4 0 0-1.2.3-2.3.5-3.5 0-.3-.2-.5-.3-.2zM86.9 53.1c-4.5-1.6-8.2-3.9-10.6-8.2-2.5-4.4-2.2-9-2.3-13.9 0-.3-.5-.3-.5 0-.9 9.7 2.8 20 13.3 22.4.3.1.3-.2.1-.3zm-8.6-2c-2.7-1.7-5.5-4.7-7-7.5-1.9-3.4-1.8-7.3-1.7-11.1 0-.3-.4-.3-.4 0-.5 7.7 1.7 15 9 18.9.1.1.3-.2.1-.3zm-3.7.1c-3.8-1.8-6.7-4.4-8.4-8.4-.1-.2-.5-.2-.4.1 1.2 4 4.4 7.7 8.6 8.7.2.1.4-.3.2-.4zm-4.3 1.6c-1.7-.7-3.3-1.5-4.8-2.5-.1-.1-.2.1-.1.2 1.5 1 3.1 1.9 4.9 2.5.1-.1.1-.2 0-.2zM66 57.6c-1.6-1.5-3.2-2.8-4.4-4.6-.1-.2-.4 0-.3.2 1.2 1.8 2.7 3.6 4.5 4.7.1 0 .3-.2.2-.3zm55.6-20.7c-.4-3.5-3.1-6.2-6.5-6.7-.2 0-.2.2-.1.2 4.1 1.4 7.1 5.1 5.7 9.7-.8 2.6-3 4.6-4.6 6.7-.1.1.1.2.2.1 2.6-2.9 5.8-5.7 5.3-10zm-10.2-3.3c-.2-.2-.4.1-.2.2 5.6 6.5.8 14.3-1.4 21.2-.1.2.2.3.3.1 2.6-6.6 7.5-15.5 1.3-21.5zm-16.7-.9c-.2 0-.3.2-.1.3 8.9 2.5 3.9 14.4 6.7 20.7.1.2.3 0 .3-.1-1.8-6.4 2.2-18.9-6.9-20.9z" fill="#3a353a" stroke-width="none" opacity="1"></path></g><g id="svga-group-glasses-single-move" transform="matrix(1,0,0,1,0,0)"><g id="svga-group-glasses-single"><path id="SvgjsPath7410" d="M96.5 91.39c0-5.03-4.08-9.12-9.12-9.12-3.27 0-6.13 1.73-7.74 4.32 0 0-.16.19-.39.21-.27.02-.46-.21-.46-.21-1.61-2.59-4.47-4.32-7.74-4.32-5.03 0-9.12 4.08-9.12 9.12 0 .41.04.81.09 1.2h-.01s.81 6.7 5.48 11.57c5.14 5.36 10.8 7.62 11.71 7.64h.02c.91-.02 6.57-2.28 11.71-7.64 4.67-4.87 5.48-11.57 5.48-11.57h-.01c.06-.39.1-.79.1-1.2z" fill="url(#SvgjsLinearGradient7411)" opacity="1"></path><path id="SvgjsPath7418" d="M103.5 91.39c0-5.03 4.08-9.12 9.12-9.12 3.27 0 6.13 1.73 7.74 4.32 0 0 .16.19.39.21.27.02.46-.21.46-.21 1.61-2.59 4.47-4.32 7.74-4.32 5.03 0 9.12 4.08 9.12 9.12 0 .41-.04.81-.09 1.2h.01s-.81 6.7-5.48 11.57c-5.14 5.36-10.8 7.62-11.71 7.64h-.02c-.91-.02-6.57-2.28-11.71-7.64-4.67-4.87-5.48-11.57-5.48-11.57h.01c-.06-.39-.1-.79-.1-1.2z" fill="url(#SvgjsLinearGradient7419)" opacity="1"></path><path id="SvgjsPath7426" d="M138.06 90.38a9.018 9.018 0 0 0-1.29-3.76c-1.08-1.77-2.76-3.18-4.72-3.87a9.18 9.18 0 0 0-6.12-.05 9.272 9.272 0 0 0-4.79 3.82l-.01.01-.01.01-.02.02-.04.03-.09.06c-.06.03-.12.05-.19.05-.12 0-.26-.08-.34-.17a9.1 9.1 0 0 0-4.5-3.73c-1.85-.72-3.94-.79-5.84-.24s-3.61 1.73-4.78 3.32c-.92 1.2-1.49 2.63-1.71 4.11-1.1-.4-2.28-.61-3.46-.62h-.06c-1.48 0-2.74.32-3.68.67-.22-1.5-.79-2.96-1.72-4.17a9.124 9.124 0 0 0-4.78-3.32c-1.9-.56-3.98-.48-5.84.24a9.1 9.1 0 0 0-4.5 3.73c-.09.1-.22.18-.34.17-.06 0-.13-.02-.19-.05-.03-.02-.06-.03-.09-.06l-.04-.03-.02-.02-.01-.01-.01-.01c-1.11-1.76-2.82-3.14-4.79-3.82a9.18 9.18 0 0 0-6.12.05c-1.96.69-3.64 2.1-4.72 3.87-.71 1.13-1.14 2.43-1.29 3.76l-1.18-.07.17 1.45.96.03c.01.26.03.51.06.76l-.01.01.01.04c.73 4.46 2.64 8.82 5.87 12.05 1.59 1.62 3.36 3.06 5.25 4.32.95.62 1.92 1.21 2.93 1.72 1.03.5 2.02 1.02 3.21 1.23 1.19-.2 2.18-.73 3.21-1.23 1.01-.52 1.99-1.1 2.94-1.72 1.89-1.26 3.64-2.72 5.23-4.34 3.22-3.23 5.13-7.59 5.85-12.04v-.01l-.01-.01.08-1.19c0-.1-.02-.2-.02-.3.89-.37 2.13-.74 3.65-.72a9.5 9.5 0 0 1 3.38.66c-.01.12-.03.24-.03.36l.08 1.19-.01.01v.01c.72 4.45 2.63 8.81 5.85 12.04 1.59 1.62 3.34 3.08 5.23 4.34.95.62 1.93 1.2 2.94 1.72 1.03.5 2.02 1.02 3.21 1.23 1.19-.2 2.18-.73 3.21-1.23 1.01-.52 1.99-1.1 2.93-1.72a33.42 33.42 0 0 0 5.25-4.32c3.23-3.23 5.15-7.59 5.87-12.05l.01-.04-.01-.01c.03-.25.05-.51.06-.76l.96-.03.17-1.45-1.19.08zm-41.57 1.01-.09 1.2v.01h.01c-.76 4.43-2.71 8.75-5.94 11.9-1.59 1.6-3.36 3.02-5.24 4.26-.94.62-1.91 1.2-2.91 1.71-.99.49-2.05 1.02-3.1 1.2-1.05-.18-2.1-.71-3.1-1.2-1-.51-1.97-1.09-2.91-1.71a33.502 33.502 0 0 1-5.22-4.28c-3.21-3.15-5.16-7.45-5.91-11.86h.01l-.01-.04c-.28-2.03.14-4.16 1.23-5.91a8.932 8.932 0 0 1 4.69-3.8c1.93-.69 4.1-.7 6.03-.01 1.93.68 3.6 2.05 4.68 3.78l.12.04c-.03.03-.11-.01-.11-.02v.01l.01.01.02.02.05.05c.04.03.08.05.12.08.08.04.18.07.28.07.21 0 .38-.1.51-.25v-.01c1.04-1.64 2.59-2.96 4.4-3.67 1.81-.72 3.85-.82 5.73-.29 1.88.52 3.58 1.67 4.76 3.24.94 1.19 1.51 2.64 1.74 4.13-.28.11-.55.22-.77.33l.43.9c.13-.06.29-.12.43-.18.03.1.05.19.06.29zm41.43 1.24c-.75 4.41-2.7 8.72-5.91 11.86-1.59 1.6-3.34 3.04-5.22 4.28-.94.62-1.91 1.2-2.91 1.71-.99.49-2.05 1.02-3.1 1.2-1.04-.18-2.1-.71-3.1-1.2-1-.51-1.97-1.09-2.91-1.71a34.001 34.001 0 0 1-5.24-4.26c-3.23-3.15-5.18-7.48-5.94-11.9h.01v-.01l-.09-1.2c0-.12.03-.23.03-.34.2.08.4.15.59.24l.43-.9c-.3-.14-.61-.27-.93-.38.24-1.48.82-2.9 1.74-4.08a9.05 9.05 0 0 1 4.76-3.24c1.88-.53 3.92-.43 5.73.29 1.81.71 3.36 2.03 4.4 3.67v.01c.13.14.3.25.51.25.1 0 .2-.03.28-.07.04-.02.08-.05.12-.08l.05-.05.02-.02.01-.01v-.01c0 .01-.08.05-.11.02l.12-.04c1.08-1.74 2.74-3.11 4.68-3.78 1.93-.69 4.1-.68 6.03.01 1.94.67 3.63 2.04 4.69 3.8 1.09 1.75 1.51 3.88 1.23 5.91l.03.03z" fill="#604ab3" stroke-width="none" opacity="1" stroke="none"></path></g></g></g></g></g><rect id="svga-credit-rect" width="200" height="15" x="0" y="185" fill="#ecf0f1" opacity="0.5" style="display: none;"></rect><text id="svga-credit-text" font-family="Avenir Next, Roboto, Helvetica, Arial, sans-serif" font-size="10px" text-anchor="start" font-weight="400" size="10px" anchor="start" weight="400" fill="#333333" x="33.311859130859375" y="182.60824728012085" style="display: none;"><tspan id="SvgjsTspan4465" dy="13" x="33.311859130859375">Created on AvatarMaker.com</tspan></text></g><defs id="SvgjsDefs4412"><linearGradient id="SvgjsLinearGradient7411" x1="79.2145" y1="82.2703" x2="79.2145" y2="111.8043" gradientUnits="userSpaceOnUse" class="svga-on-canvas-glasses-gradient-single-0-null"><stop id="SvgjsStop7412" stop-opacity="1" stop-color="#ff73b2" offset="0.004166667" ></stop><stop id="SvgjsStop7413" stop-opacity="0.8085" stop-color="#ff75ae" offset="0.1949" ></stop><stop id="SvgjsStop7414" stop-opacity="0.5986" stop-color="#ff79a0" offset="0.4039" ></stop><stop id="SvgjsStop7415" stop-opacity="0.3799" stop-color="#ff818a" offset="0.6217" ></stop><stop id="SvgjsStop7416" stop-opacity="0.1566" stop-color="#ff8b6c" offset="0.844" ></stop><stop id="SvgjsStop7417" stop-opacity="0" stop-color="#ff9452" offset="1" ></stop></linearGradient><linearGradient id="SvgjsLinearGradient7419" x1="-20.7855" y1="82.2703" x2="-20.7855" y2="111.8043" gradientTransform="matrix(-1 0 0 1 100 0)" gradientUnits="userSpaceOnUse" class="svga-on-canvas-glasses-gradient-single-1-null"><stop id="SvgjsStop7420" stop-opacity="1" stop-color="#ff73b2" offset="0.004166667" ></stop><stop id="SvgjsStop7421" stop-opacity="0.8085" stop-color="#ff75ae" offset="0.1949" ></stop><stop id="SvgjsStop7422" stop-opacity="0.5986" stop-color="#ff79a0" offset="0.4039" ></stop><stop id="SvgjsStop7423" stop-opacity="0.3799" stop-color="#ff818a" offset="0.6217" ></stop><stop id="SvgjsStop7424" stop-opacity="0.1566" stop-color="#ff8b6c" offset="0.844" ></stop><stop id="SvgjsStop7425" stop-opacity="0" stop-color="#ff9452" offset="1" ></stop></linearGradient></defs></svg>