<svg viewBox="0 0 25 25" fill="none" xmlns="http://www.w3.org/2000/svg" width="30" height="30"><path d="M7.997 11.06h-.692a6.895 6.895 0 0 0-5.114 2.005L2 13.288v6.586h3.245v-3.739l.438-.493.199-.23a8.75 8.75 0 0 1 3.746-2.275 5.242 5.242 0 0 1-1.63-2.076ZM23.38 13.041a6.896 6.896 0 0 0-5.114-2.004c-.29 0-.58.017-.867.048a5.242 5.242 0 0 1-1.59 1.948 8.679 8.679 0 0 1 3.976 2.387l.199.222.43.494v3.746h3.133v-6.618l-.167-.223ZM7.282 9.51h.246a5.13 5.13 0 0 1 2.474-5.003 3.253 3.253 0 1 0-2.72 5.035V9.51ZM17.884 8.913c.01.183.01.366 0 .549.153.024.307.037.462.04h.15a3.253 3.253 0 1 0-2.966-4.916 5.194 5.194 0 0 1 2.354 4.327ZM12.666 12.477a3.555 3.555 0 1 0 0-7.111 3.555 3.555 0 0 0 0 7.11Z" fill="#1873D3"/><path d="M12.857 14.37a7.706 7.706 0 0 0-5.655 2.147l-.199.223v5.035A1.249 1.249 0 0 0 8.276 23h9.139a1.247 1.247 0 0 0 1.273-1.225v-5.02l-.191-.238a7.62 7.62 0 0 0-5.64-2.147Z" fill="#1873D3"/></svg>