<svg viewBox="0 0 25 25" fill="none" xmlns="http://www.w3.org/2000/svg" width="30" height="30"><g clip-path="url(#a)"><path d="M23.077 3H1.538A1.538 1.538 0 0 0 0 4.538v16.924A1.538 1.538 0 0 0 1.538 23h21.539a1.539 1.539 0 0 0 1.538-1.538V4.538A1.539 1.539 0 0 0 23.077 3ZM3.692 11.315v-2.03l7.693 3.53v1.6l-7.693 3.531v-2.038L8.7 13.6l-5.008-2.285Zm12.77 7.377h-4.923v-1.846h4.923v1.846ZM1.538 6.231V4.538h21.539v1.693H1.538Z" fill="#1873D3"/></g><defs><clipPath id="a"><path fill="#1873D3" d="M0 0h25v25H0z"/></clipPath></defs></svg>